<?xml version="1.0" encoding="utf-8"?>
<!-- Generator: Adobe Illustrator 18.0.0, SVG Export Plug-In . SVG Version: 6.00 Build 0)  -->
<!DOCTYPE svg PUBLIC "-//W3C//DTD SVG 1.1//EN" "http://www.w3.org/Graphics/SVG/1.1/DTD/svg11.dtd">
<svg version="1.1" id="Calque_1" xmlns="http://www.w3.org/2000/svg" xmlns:xlink="http://www.w3.org/1999/xlink" x="0px" y="0px"
	 viewBox="0 0 1343 474" enable-background="new 0 0 1343 474" xml:space="preserve">
<path fill-rule="evenodd" clip-rule="evenodd" fill="#7698CA" d="M485.5,321.2c29.8,0,45.4-14.2,53.9-29.8l-22.1-12
	c-5.7,11-18,19.8-31.8,19.8c-24.9,0-42.9-19-42.9-44.7c0-25.7,18-44.7,42.9-44.7c13.9,0,26.1,8.8,31.8,19.8l22.1-12.2
	c-8.5-15.8-24.1-29.6-53.9-29.6c-41,0-70.6,24.7-70.6,66.7C414.9,296.3,444.4,321.2,485.5,321.2"/>
<path fill-rule="evenodd" clip-rule="evenodd" fill="#7698CA" d="M634.2,275.9h-40.9l20.4-59.2L634.2,275.9 M681.7,321.1
	l-50.5-135.3h-35l-50.5,136.1h31.6l8.2-23h56.2l8.3,23h31.6V321.1z"/>
<path fill-rule="evenodd" clip-rule="evenodd" fill="#7698CA" d="M752.6,254.7h-31.3v-46h31.3c11.7,0,20.9,8.5,20.9,22.3
	c0,14.3-9,23.7-20.7,23.7H752.6 M802.1,321.9l-28.7-48.1c13.7-3,28-16.2,28-43.5c0-28.5-16.3-44.6-44.2-44.6h-64v136.1h28.3v-46H743
	l27.6,46H802.1z"/>
<polyline fill-rule="evenodd" clip-rule="evenodd" fill="#7698CA" points="880.5,320.9 880.5,208.8 921.1,208.8 921.1,185.8 
	813.3,185.8 813.3,208.8 852.2,208.8 852.2,321.9 879.4,321.9 880.5,320.9 "/>
<path fill-rule="evenodd" clip-rule="evenodd" fill="#7698CA" d="M1139.2,298.9h-25.3v-90.2h25.5c28.4,0,44,19.5,44,44.6
	c0,24.5-16.1,45.5-43.7,45.5H1139.2 M1139.9,321.9c43.5,0,71.3-26.1,71.3-69.5c0-42.9-27.8-66.7-71.5-66.7h-54.1v136.1H1139.9z"/>
<path fill-rule="evenodd" clip-rule="evenodd" fill="#7698CA" d="M1294.4,298.9h-37.4v-33.6h37.4c13.9,0,19.9,7.5,19.9,16.9
	c0,10.7-6.8,17-18.2,17l-2.1-0.3H1294.4 M1293.2,242.3h-36.1v-33.6h36.1c9.7,0,15.5,7,15.5,16.9c0,10.4-6.1,16.7-15.8,16.7H1293.2z
	 M1303.8,321.9c25.6,0,38.2-14.8,38.2-35.1c0-18.4-10.7-31.2-24.5-33.1c8.8-2.3,18.8-15,18.8-35c0-18.6-12.5-32.9-37.3-32.9h-70.3
	v136.1H1303.8z"/>
<rect x="968.9" y="159.2" fill="#7698CA" width="56.6" height="17.7"/>
<path fill-rule="evenodd" clip-rule="evenodd" fill="#7698CA" d="M930,255.6c0,37.6,30.5,68.1,68.1,68.1c37.6,0,68.1-30.5,68.1-68.1
	s-30.5-68.1-68.1-68.1C960.4,187.5,930,218,930,255.6 M953,255.6c0-24.9,20.2-45.1,45.1-45.1c24.9,0,45.1,20.2,45.1,45.1
	c0,24.9-20.2,45.1-45.1,45.1C973.1,300.7,953,280.5,953,255.6z"/>
<path fill-rule="evenodd" clip-rule="evenodd" fill="#7698CA" d="M1021.7,236.4c1.7-3,0.7-4-2.2-2.3l-22.8,13.2
	c-3,1.7-6.8,5.5-8.5,8.5l-13.2,22.8c-1.7,3-0.7,4,2.3,2.3l22.8-13.2c3-1.7,6.8-5.5,8.5-8.5L1021.7,236.4 M1003.7,257.6
	c0,2.9-2.3,5.2-5.2,5.2c-2.9,0-5.2-2.3-5.2-5.2c0-2.9,2.3-5.2,5.2-5.2C1001.4,252.3,1003.7,254.7,1003.7,257.6z"/>
<path fill="#7698CA" d="M150.5,429.3c23.8,0,25.2,3.3,25.2,3.3l-8,37.8c0,0-4.4,3.6-18,3.6c-13.6,0-18.8-3.6-18.8-3.6l-5.8-38
	C125.1,432.4,126.7,429.3,150.5,429.3 M314.4,147.9l-1.3-1.1c0,0,2.3-1.1,3.6-2.4c2.5-2.5,3.9-5.5,3.4-5.2
	c-4.2,2.9-12.5,1.5-12.5,1.5s2.9-0.5,4.6-1.7c2.6-1.7,3.3-4.1,3-3.9c-2.1,1.5-4.3,1.9-5.9,1.9c-9.8,0-11.4-8.7-20.4-8.7
	c-3.7,0-11.5,3.9-14,0c-13.3-32.8-33.3-80.1-52.9-128.1C141.4,17.3,105.5,158.2,184,183.2c-42.6-12.6-56.7-57.5-50.2-95.1
	c-29.2,10.3-73.8,28-103.5,65.2c-17.8,22.3-17.7,46.1-17.7,93.2C11.6,261,0,266.6,0,266.6s13.8,0.6,18.3-6.7
	c19,33.4,111.1,119.4,111.1,139c0,0-3.3,9.2-2.3,9.4c8.4,1,47.4,3,47.4,3c1.7-6.7-2.2-11.4-2.2-16.1c0-47.8,66.1-92.2,73.8-97.6
	c2.8,1.7,7.6,3.2,10,4.2c22.2,9.9-3.5,66.2-26.6,66.2c-26.6,0,15-45.2,15.8-46.3c2.8-3.6-4.8-0.3-7.2-2.6c-1.5-1.5,0.2-5.4-3.4-2.3
	c0,0-55.2,48.9-16.2,63.3C292.4,407.4,400.6,231.8,314.4,147.9z"/>
<rect y="0.4" fill="none" width="1342.1" height="473.6"/>
<path fill="#7698CA" d="M412,372.9c0-12.2,8.9-20.2,20.1-20.2c7,0,11.8,3,15.1,7.3l-3.9,2.5c-2.5-3.2-6.6-5.4-11.3-5.4
	c-8.5,0-15,6.5-15,15.8c0,9.2,6.5,15.9,15,15.9c4.7,0,8.5-2.2,10.5-4.2v-7.9h-13.5v-4.3h18.2v14c-3.6,4.1-8.9,6.8-15.3,6.8
	C420.9,393.2,412,385,412,372.9"/>
<path fill="#7698CA" d="M453.4,378.3c0-8.2,5.8-14.8,13.9-14.8c8.5,0,13.6,6.7,13.6,15.1v1.1h-22.8c0.4,5.3,4,9.8,10.1,9.8
	c3.3,0,6.5-1.3,8.8-3.6l2.1,2.9c-2.9,2.8-6.7,4.4-11.2,4.4C459.5,393.1,453.4,387.1,453.4,378.3 M467.3,367.1c-6,0-9,5.1-9.2,9.4
	h18.5C476.5,372.3,473.7,367.1,467.3,367.1z"/>
<path fill="#7698CA" d="M486.4,378.3c0-8.2,5.4-14.8,14-14.8c8.6,0,14,6.6,14,14.8c0,8.2-5.4,14.9-14,14.9
	C491.7,393.1,486.4,386.5,486.4,378.3 M509.7,378.3c0-5.7-3.3-10.9-9.4-10.9c-6,0-9.4,5.1-9.4,10.9c0,5.8,3.3,10.9,9.4,10.9
	C506.4,389.2,509.7,384.1,509.7,378.3z"/>
<path fill="#7698CA" d="M519.1,388.7l2.2-3.2c1.9,2.2,5.4,4,9.3,4c4.3,0,6.7-2,6.7-4.9c0-6.8-17.5-2.6-17.5-13.1
	c0-4.4,3.7-8.1,10.5-8.1c4.9,0,8.2,1.8,10.5,4.1l-2,3c-1.7-2-4.7-3.6-8.4-3.6c-3.9,0-6.3,1.9-6.3,4.4c0,6.1,17.5,2.1,17.5,13.1
	c0,4.7-3.8,8.5-11.1,8.5C525.8,393.1,521.9,391.7,519.1,388.7"/>
<path fill="#7698CA" d="M553,388.1v15h-4.4v-39h4.4v4.2c2-2.9,5.6-4.9,9.5-4.9c7.4,0,12.6,5.6,12.6,14.8c0,9.1-5.1,14.9-12.6,14.9
	C558.7,393.1,555.4,391.2,553,388.1 M570.5,378.3c0-6.3-3.4-10.9-9.1-10.9c-3.5,0-6.9,2-8.4,4.5v12.8c1.5,2.5,5,4.6,8.4,4.6
	C567.1,389.2,570.5,384.5,570.5,378.3z"/>
<path fill="#7698CA" d="M599.8,392.4v-3.2c-2.3,2.6-5.6,3.9-9.4,3.9c-4.7,0-9.8-3.2-9.8-9.4c0-6.4,5-9.3,9.8-9.3
	c3.9,0,7.1,1.2,9.4,3.8v-5.1c0-3.7-3-5.9-7.1-5.9c-3.4,0-6.1,1.2-8.7,3.9l-2-3c3-3.2,6.7-4.7,11.3-4.7c6,0,10.9,2.7,10.9,9.5v19.4
	H599.8 M599.8,386.5v-5.4c-1.7-2.3-4.7-3.5-7.7-3.5c-4.2,0-7,2.6-7,6.1c0,3.6,2.9,6.2,7,6.2C595.1,390,598.1,388.8,599.8,386.5z"/>
<path fill="#7698CA" d="M613.9,386.5V368h-4.7v-3.9h4.7v-7.7h4.4v7.7h5.7v3.9h-5.7v17.5c0,2.1,0.9,3.6,2.8,3.6c1.3,0,2.4-0.6,3-1.2
	l1.3,3.3c-1.1,1.1-2.7,1.8-5.2,1.8C616,393.1,613.9,390.7,613.9,386.5"/>
<path fill="#7698CA" d="M629.4,357.2c0-1.6,1.3-3,3-3c1.6,0,2.9,1.3,2.9,3c0,1.6-1.3,2.9-2.9,2.9
	C630.8,360.1,629.4,358.8,629.4,357.2 M630.2,364.2h4.4v28.2h-4.4V364.2z"/>
<path fill="#7698CA" d="M661,392.4v-3.2c-2.3,2.6-5.6,3.9-9.4,3.9c-4.7,0-9.8-3.2-9.8-9.4c0-6.4,5-9.3,9.8-9.3
	c3.9,0,7.1,1.2,9.4,3.8v-5.1c0-3.7-3-5.9-7.1-5.9c-3.4,0-6.1,1.2-8.7,3.9l-2-3c3-3.2,6.7-4.7,11.3-4.7c6,0,10.9,2.7,10.9,9.5v19.4
	H661 M661,386.5v-5.4c-1.7-2.3-4.7-3.5-7.7-3.5c-4.2,0-7,2.6-7,6.1c0,3.6,2.9,6.2,7,6.2C656.3,390,659.3,388.8,661,386.5z"/>
<rect x="674.2" y="353.4" fill="#7698CA" width="4.4" height="39"/>
<path fill="#7698CA" d="M700.9,378.3c0-8.2,5.4-14.8,14-14.8c8.6,0,14,6.6,14,14.8c0,8.2-5.4,14.9-14,14.9
	C706.3,393.1,700.9,386.5,700.9,378.3 M724.2,378.3c0-5.7-3.3-10.9-9.4-10.9c-6,0-9.4,5.1-9.4,10.9c0,5.8,3.3,10.9,9.4,10.9
	C720.9,389.2,724.2,384.1,724.2,378.3z"/>
<path fill="#7698CA" d="M755.1,392.4v-18.5c0-5-2.6-6.6-6.4-6.6c-3.5,0-6.7,2.1-8.4,4.4v20.6H736v-28.2h4.4v4.1
	c2-2.4,5.8-4.8,10.1-4.8c5.8,0,8.9,3,8.9,9.1v19.8H755.1"/>
<path fill="#7698CA" d="M784.3,386.5V368h-4.7v-3.9h4.7v-7.7h4.4v7.7h5.7v3.9h-5.7v17.5c0,2.1,0.9,3.6,2.8,3.6c1.3,0,2.4-0.6,3-1.2
	l1.3,3.3c-1.1,1.1-2.7,1.8-5.2,1.8C786.4,393.1,784.3,390.7,784.3,386.5"/>
<path fill="#7698CA" d="M819.7,392.4v-18.6c0-5-2.5-6.4-6.4-6.4c-3.4,0-6.7,2.1-8.3,4.4v20.6h-4.4v-39h4.4v14.9
	c1.9-2.4,5.8-4.8,10.1-4.8c5.9,0,9,2.9,9,9v19.9H819.7"/>
<path fill="#7698CA" d="M831.3,378.3c0-8.2,5.8-14.8,13.9-14.8c8.5,0,13.6,6.7,13.6,15.1v1.1h-22.8c0.3,5.3,4,9.8,10.1,9.8
	c3.3,0,6.5-1.3,8.8-3.6l2.1,2.9c-2.9,2.8-6.7,4.4-11.2,4.4C837.3,393.1,831.3,387.1,831.3,378.3 M845.1,367.1c-6,0-9,5.1-9.2,9.4
	h18.5C854.4,372.3,851.6,367.1,845.1,367.1z"/>
<path fill="#7698CA" d="M879.3,378.3c0-8.4,5.7-14.8,14.1-14.8c5.1,0,8.2,2.1,10.4,4.9l-2.9,2.6c-1.9-2.6-4.3-3.6-7.2-3.6
	c-6,0-9.8,4.6-9.8,10.9c0,6.3,3.8,10.9,9.8,10.9c2.9,0,5.3-1.2,7.2-3.7l2.9,2.7c-2.2,2.8-5.2,4.9-10.4,4.9
	C885,393.1,879.3,386.6,879.3,378.3"/>
<rect x="910" y="353.4" fill="#7698CA" width="4.4" height="39"/>
<path fill="#7698CA" d="M921.5,378.3c0-8.2,5.4-14.8,14-14.8c8.6,0,14,6.6,14,14.8c0,8.2-5.4,14.9-14,14.9
	C926.9,393.1,921.5,386.5,921.5,378.3 M944.8,378.3c0-5.7-3.3-10.9-9.4-10.9c-6,0-9.4,5.1-9.4,10.9c0,5.8,3.3,10.9,9.4,10.9
	C941.5,389.2,944.8,384.1,944.8,378.3z"/>
<path fill="#7698CA" d="M975.7,392.4v-4c-2.2,2.5-5.8,4.7-10.1,4.7c-5.9,0-9-2.9-9-9v-19.9h4.4v18.6c0,5,2.5,6.4,6.4,6.4
	c3.4,0,6.7-2,8.3-4.3v-20.8h4.4v28.2H975.7"/>
<path fill="#7698CA" d="M1009.3,392.4v-4.2c-2.1,2.9-5.6,4.9-9.5,4.9c-7.4,0-12.6-5.6-12.6-14.8c0-9.1,5.2-14.9,12.6-14.9
	c3.8,0,7.3,1.9,9.5,5v-15h4.4v39H1009.3 M1009.3,384.7v-12.8c-1.5-2.5-5-4.6-8.4-4.6c-5.7,0-9.1,4.7-9.1,10.9s3.4,10.9,9.1,10.9
	C1004.3,389.2,1007.8,387.2,1009.3,384.7z"/>
</svg>
