<?xml version="1.0" encoding="utf-8"?>
<!-- Generator: Adobe Illustrator 15.1.0, SVG Export Plug-In . SVG Version: 6.00 Build 0)  -->
<!DOCTYPE svg PUBLIC "-//W3C//DTD SVG 1.1//EN" "http://www.w3.org/Graphics/SVG/1.1/DTD/svg11.dtd">
<svg version="1.1"
	 id="svg2" sodipodi:docname="logo-v2.8.svg" inkscape:export-filename="/Users/hbs/home/workspace/corp/media/logo/logo-v2.8.png" inkscape:export-xdpi="599.96106" inkscape:export-ydpi="599.96106" xmlns:inkscape="http://www.inkscape.org/namespaces/inkscape" xmlns:sodipodi="http://sodipodi.sourceforge.net/DTD/sodipodi-0.dtd" xmlns:svg="http://www.w3.org/2000/svg" xmlns:rdf="http://www.w3.org/1999/02/22-rdf-syntax-ns#" xmlns:cc="http://creativecommons.org/ns#" xmlns:dc="http://purl.org/dc/elements/1.1/" inkscape:version="0.48.2 r9819"
	 xmlns="http://www.w3.org/2000/svg" xmlns:xlink="http://www.w3.org/1999/xlink" x="0px" y="0px" width="905.432px"
	 height="500.275px" viewBox="291.379 283.934 905.432 500.275" enable-background="new 291.379 283.934 905.432 500.275"
	 xml:space="preserve">
<sodipodi:namedview  bordercolor="#666666" inkscape:cx="604.53335" inkscape:cy="602.42858" inkscape:zoom="1" inkscape:window-maximized="0" inkscape:window-height="1123" borderopacity="1" inkscape:pageopacity="0" inkscape:pageshadow="2" pagecolor="#ffffff" guidetolerance="10" objecttolerance="10" inkscape:window-width="1920" gridtolerance="10" id="namedview4" inkscape:window-y="0" inkscape:window-x="-5" inkscape:current-layer="g10" showgrid="false">
	</sodipodi:namedview>
<g id="g10" transform="matrix(1.25,0,0,-1.25,0,1052.3622)" inkscape:groupmode="layer" inkscape:label="Logo_CityzenData_RVB">
	<g id="Cityzen" transform="scale(1,-1)">
		<path id="path4622" inkscape:connector-curvature="0" fill="#202D42" d="M372.296-467.182
			c-15.091-11.262-31.758-16.667-50.677-16.667c-48.65,0-88.516,39.866-88.516,88.517c0,48.198,40.541,87.164,88.516,87.164
			c18.019,0,36.038-6.081,50.677-16.667v-23.423c-13.514,13.514-32.208,22.522-51.352,22.522c-38.065,0-68.921-32.883-68.921-70.272
			c0-37.388,30.631-70.272,68.47-70.272c19.595,0,38.289,8.559,51.803,22.523V-467.182"/>
		<path id="path4624" inkscape:connector-curvature="0" fill="#202D42" d="M425.676-416.956h-18.018v105.859h18.019L425.676-416.956
			 M416.667-469.659c-6.983,0-12.838,5.856-12.838,12.838c0,7.207,5.855,12.838,12.838,12.838c6.982,0,12.838-5.631,12.838-12.838
			C429.505-463.803,423.649-469.659,416.667-469.659"/>
		<path id="path4626" inkscape:connector-curvature="0" fill="#202D42" d="M482.209-400.289h18.92v-16.667h-18.92v-38.064h-18.019
			v38.064h-11.036v16.667h11.036v89.192h18.019V-400.289"/>
		<path id="path4628" inkscape:connector-curvature="0" fill="#202D42" d="M557.888-321.006l-34.236,69.37h20.496l78.155-165.32
			h-20.496l-34.235,75.903l-37.388-75.903h-20.947L557.888-321.006"/>
		<path id="path4630" inkscape:connector-curvature="0" fill="#28B6D8" d="M660.593-327.764l76.128-89.192h-98.427v16.667h62.164
			l-76.353,89.192h109.463v-16.667H660.593"/>
		<g id="g4636">
			<path id="path4632" inkscape:connector-curvature="0" fill="#28B6D8" d="M847.986-360.196
				c1.802-31.533-16.217-59.686-50.227-59.686c-33.109,0-51.352,25.902-51.352,57.208c0,30.406,20.27,54.506,51.803,54.506
				c21.622,0,38.74-10.811,48.875-29.73l-15.316-8.784c-6.982,12.613-16.892,21.847-32.208,21.847
				c-20.496,0-34.461-15.766-34.686-35.361H847.986 M765.776-375.512c2.252-15.316,16.667-27.705,32.209-27.705
				c15.766,0,28.604,12.389,31.081,27.705H765.776"/>
			<path id="path4634" inkscape:connector-curvature="0" fill="#28B6D8" d="M890.78-416.956h-18.019v105.859h18.019v-50.227
				c0-18.919,1.577-41.894,26.352-41.894c20.946,0,22.298,15.317,22.298,32.434v59.686h18.019v-62.839
				c0-24.777-6.757-45.947-36.037-45.947c-13.063,0-22.748,5.63-30.181,15.766h-0.45V-416.956"/>
		</g>
	</g>
	<g id="globe" transform="matrix(0.29486329,0.12790435,0.12790435,-0.29486329,564.62248,573.64087)" sodipodi:insensitive="true">
		<g id="g9370">
			<path id="path9372" fill="#D0D0D0" d="M210.789,72.701c-16.97-7.031-35.395-10.579-55.27-10.578
				c-21.148-0.001-40.605,4.07-58.463,12.03l-3.573,11.168c9.721-5.001,20.004-8.778,30.946-11.334
				c-10.969,17.156-20.113,35.324-27.519,54.45c-4.98-2.567-9.764-5.386-14.354-8.346l-2.589,8.119
				c4.483,2.798,9.11,5.446,13.948,7.915c-8.156,23.25-12.535,45.243-13.097,65.962l-24.175,0.027l-2.58,8.292l26.79,0.005
				c0.562,20.625,4.934,42.54,13.091,65.791c-13.406,6.844-25.473,14.958-36.16,24.333c-9.168-9.485-16.665-19.695-22.53-30.545
				l-3.396,10.566c5.968,9.679,13.275,18.781,21.869,27.376c28.126,28.124,62.076,42.22,101.827,42.22
				c39.751,0,73.674-14.027,101.799-42.154c28.124-28.125,42.149-62.108,42.148-101.858c-0.001-39.75-14.028-73.673-42.154-101.799
				C243.283,90.28,227.759,79.732,210.789,72.701z M207.312,80.519c14.579,5.97,27.832,14.504,39.884,25.525
				c-9.844,8.625-20.838,16.105-33.027,22.386c-7.407-19.219-16.625-37.384-27.593-54.446
				C193.725,75.653,200.687,77.806,207.312,80.519z M175.199,71.677c12.656,18.375,23.106,38.483,31.357,60.234
				c-16.218,7.312-31.88,11.27-46.973,11.927l0.006-73.506C164.463,70.424,169.668,70.832,175.199,71.677z M253.258,111.811
				c24.374,25.218,37.047,55.312,38.078,90.28l-61.138,0.018c-0.562-20.718-4.944-42.714-13.1-65.965
				C230.505,129.394,242.572,121.28,253.258,111.811z M151.296,70.295l0.035,73.609c-15-0.657-30.628-4.7-46.848-12.012
				c8.343-21.75,18.791-41.787,31.354-60.163C141.369,70.885,146.515,70.389,151.296,70.295z M209.493,139.798
				c7.688,22.125,11.851,42.869,12.412,62.275l-62.323,0.013l0.035-49.923C175.837,151.506,192.432,147.392,209.493,139.798z
				 M291.371,210.415c-1.031,34.969-13.709,65.015-38.083,90.14c-10.686-9.374-22.755-17.491-36.161-24.334
				c8.156-23.25,12.503-45.266,13.066-65.891L291.371,210.415z M151.325,152.125l-0.035,49.923l-62.149,0.003
				c0.562-19.406,4.74-40.143,12.427-62.268C118.63,147.377,135.201,151.469,151.325,152.125z M221.869,210.366
				c-0.561,19.313-4.607,40.031-12.294,62.156c-17.062-7.593-33.783-11.707-50.002-12.363l0.045-49.75L221.869,210.366z
				 M151.325,210.373l0.027,49.78c-16.124,0.656-32.741,4.802-49.804,12.395c-7.688-22.125-11.809-42.86-12.371-62.173
				L151.325,210.373z M206.589,280.383c-8.343,21.75-18.822,41.859-31.385,60.234c-5.532,0.843-10.726,1.277-15.602,1.372
				l0.006-73.506C174.701,269.139,190.371,273.072,206.589,280.383z M214.203,283.94c12.187,6.281,23.181,13.755,33.024,22.38
				c-17.531,16.032-37.739,26.695-60.614,32.039C197.581,321.203,206.797,303.066,214.203,283.94z M151.315,268.446l-0.037,73.577
				c-4.781-0.095-9.874-0.582-15.406-1.426c-12.656-18.375-23.136-38.412-31.387-60.162
				C120.703,273.124,136.315,269.103,151.315,268.446z M96.871,283.916c7.405,19.125,16.623,37.291,27.593,54.446
				c-22.874-5.344-43.088-16.031-60.619-32.06C73.688,297.676,84.684,290.197,96.871,283.916z"/>
		</g>
	</g>
	
		<path id="sparkline" sodipodi:nodetypes="ccccccccccccc" inkscape:connector-curvature="0" fill="none" stroke="#A99E9E" stroke-width="8" stroke-linecap="round" stroke-linejoin="round" d="
		M519.337,451.657c17.248-0.026,34.497,0.173,51.744-0.092l13.089,136.129l12.946-124.312l12.602-11.872l12.456,20.227
		l13.483-19.992h12.262l12.978,24.558l10.616-24.971l14.113,10.995l12.995-10.845l28.022,0.176"/>
	<g id="g13944" transform="translate(141.40079,233.17694)">
		<g id="use7961-0" transform="matrix(0.07275273,0.03155833,0.03155833,-0.07275273,494.56651,300.4884)">
			<path id="mark3-2" inkscape:connector-curvature="0" fill="#EC6929" d="M460.098,371.979l5.82,2.525l9.468-21.826l-5.82-2.525
				L460.098,371.979z"/>
		</g>
		<g id="use7963-2" transform="matrix(0.07878488,-0.00904605,-0.00904605,-0.07878488,494.56651,300.4884)">
			<path id="mark2-2" inkscape:connector-curvature="0" fill="#E59E4B" d="M500.461,379.635l6.303-0.724l-2.171-18.908l-6.303,0.724
				L500.461,379.635z"/>
		</g>
		<g id="use7965-3" transform="matrix(0.06370668,-0.04722655,-0.04722655,-0.06370668,494.56651,300.4884)">
			<path id="mark2-2_1_" inkscape:connector-curvature="0" fill="#EDC24E" d="M539.245,366.084l5.097-3.778l-11.334-15.29
				l-5.097,3.778L539.245,366.084z"/>
		</g>
		<g id="use9624" transform="matrix(0.06460156,0.04599485,0.04599485,-0.06460156,494.56651,300.4884)">
			<path id="mark1-9" inkscape:connector-curvature="0" fill="#8A8A8A" d="M447.28,364.17l2.584,1.84l4.6-6.46l-2.584-1.84
				L447.28,364.17z"/>
		</g>
		<g id="use9626" transform="matrix(0.06905544,0.03899018,0.03899018,-0.06905544,494.56651,300.4884)">
			<path id="mark1-9_1_" inkscape:connector-curvature="0" fill="#8E8E8E" d="M454.195,368.764l2.762,1.56l3.899-6.906l-2.762-1.56
				L454.195,368.764z"/>
		</g>
		<g id="use9630" transform="matrix(-0.053627,-0.05842117,-0.05842117,0.053627,495.45039,299.56916)">
			<path id="mark1-9_2_" inkscape:connector-curvature="0" fill="#E2E2E2" d="M554.945,247.11l-2.145-2.337l-5.842,5.362
				l2.145,2.337L554.945,247.11z"/>
		</g>
		<g id="use9632" transform="matrix(-0.0594399,-0.05249558,-0.05249558,0.0594399,495.45039,299.56916)">
			<path id="mark1-9_3_" inkscape:connector-curvature="0" fill="#E6E6E6" d="M549.135,241.179l-2.378-2.1l-5.249,5.944l2.377,2.1
				L549.135,241.179z"/>
		</g>
		<g id="use9634" transform="matrix(-0.06460156,-0.04599485,-0.04599485,0.06460156,495.45039,299.56916)">
			<path id="mark1-9_4_" inkscape:connector-curvature="0" fill="#EAEAEA" d="M542.738,235.888l-2.584-1.84l-4.599,6.46l2.584,1.84
				L542.738,235.888z"/>
		</g>
		<g id="use9636" transform="matrix(-0.06905544,-0.03899018,-0.03899018,0.06905544,495.45039,299.56916)">
			<path id="mark1-9_5_" inkscape:connector-curvature="0" fill="#EEEEEE" d="M535.822,231.293l-2.762-1.559l-3.899,6.905
				l2.763,1.559L535.822,231.293z"/>
		</g>
		<g id="use7975-9" transform="matrix(0.03155833,-0.07275273,-0.07275273,-0.03155833,495.45039,299.56916)">
			<path id="mark3-2_1_" inkscape:connector-curvature="0" fill="#7AC6E2" d="M566.941,334.038l2.525-5.82l-21.826-9.468
				l-2.525,5.82L566.941,334.038z"/>
		</g>
		<g id="use7977-6" transform="matrix(-0.00904605,-0.07878488,-0.07878488,0.00904605,495.45039,299.56916)">
			<path id="mark2-2_2_" inkscape:connector-curvature="0" fill="#28B6D8" d="M574.597,293.675l-0.723-6.303l-18.909,2.171
				l0.724,6.303L574.597,293.675z"/>
		</g>
		<g id="use7979-9" transform="matrix(-0.04722655,-0.06370668,-0.06370668,0.04722655,495.45039,299.56916)">
			<path id="mark2-2_3_" inkscape:connector-curvature="0" fill="#4366A3" d="M561.046,254.891l-3.778-5.097l-15.29,11.334
				l3.778,5.097L561.046,254.891z"/>
		</g>
	</g>
	<g>
		<defs>
			<polygon id="SVGID_1_" points="651.882,612.582 648.77,598.51 673.944,594.763 677.903,601.833 665.246,610.319 			"/>
		</defs>
		<clipPath id="SVGID_2_">
			<use xlink:href="#SVGID_1_"  overflow="visible"/>
		</clipPath>
		<path id="path3207" inkscape:connector-curvature="0" clip-path="url(#SVGID_2_)" fill="#AEAEAE" d="M636.5,612.832
			c-25.217,0.059-49.96-11.841-65.45-33.875c-25.318-36.014-16.664-85.757,19.35-111.075
			c36.014-25.318,85.757-16.639,111.075,19.375c25.318,36.014,16.639,85.732-19.375,111.05l-4.275,2.8
			C664.934,608.989,650.646,612.8,636.5,612.832z M635.625,605.382c14.429,0.136,29.045-4.035,41.8-12.875l0.4-0.275
			c32.655-22.957,40.507-68.044,17.55-100.7c-22.957-32.656-68.044-40.507-100.7-17.55c-32.656,22.957-40.507,68.044-17.55,100.7
			C591.048,594.488,613.116,605.17,635.625,605.382z"/>
	</g>
	<g>
		<defs>
			<polygon id="SVGID_3_" points="683,587.293 691.4,596.443 708.25,572.543 706.5,571.693 696.75,566.243 			"/>
		</defs>
		<clipPath id="SVGID_4_">
			<use xlink:href="#SVGID_3_"  overflow="visible"/>
		</clipPath>
		<path id="path4016" inkscape:connector-curvature="0" clip-path="url(#SVGID_4_)" fill="#BEBEBE" d="M636.5,612.832
			c-25.217,0.059-49.96-11.841-65.45-33.875c-25.318-36.014-16.664-85.757,19.35-111.075
			c36.014-25.318,85.757-16.639,111.075,19.375c25.318,36.014,16.639,85.732-19.375,111.05l-4.275,2.8
			C664.934,608.989,650.646,612.8,636.5,612.832L636.5,612.832z M635.625,605.382c14.429,0.136,29.045-4.035,41.8-12.875l0.4-0.275
			c32.655-22.957,40.507-68.044,17.55-100.7c-22.957-32.656-68.044-40.507-100.7-17.55c-32.656,22.957-40.507,68.044-17.55,100.7
			C591.048,594.488,613.116,605.17,635.625,605.382z"/>
	</g>
	<g>
		<defs>
			<polygon id="SVGID_5_" points="638.25,612.993 638.25,603.093 613.05,601.393 610.3,610.293 626.35,614.743 			"/>
		</defs>
		<clipPath id="SVGID_6_">
			<use xlink:href="#SVGID_5_"  overflow="visible"/>
		</clipPath>
		<path id="path4045" inkscape:connector-curvature="0" clip-path="url(#SVGID_6_)" fill="#9E9E9E" d="M636.5,612.832
			c-25.217,0.059-49.96-11.841-65.45-33.875c-25.318-36.014-16.664-85.757,19.35-111.075
			c36.014-25.318,85.757-16.639,111.075,19.375c25.318,36.014,16.639,85.732-19.375,111.05l-4.275,2.8
			C664.934,608.989,650.646,612.8,636.5,612.832L636.5,612.832z M635.625,605.382c14.429,0.136,29.045-4.035,41.8-12.875l0.4-0.275
			c32.655-22.957,40.507-68.044,17.55-100.7c-22.957-32.656-68.044-40.507-100.7-17.55c-32.656,22.957-40.507,68.044-17.55,100.7
			C591.048,594.488,613.116,605.17,635.625,605.382z"/>
	</g>
	<g>
		<defs>
			<polygon id="SVGID_7_" points="706.806,518.802 716.123,516.716 710.8,490.143 704.314,491.084 696.5,495.697 			"/>
		</defs>
		<clipPath id="SVGID_8_">
			<use xlink:href="#SVGID_7_"  overflow="visible"/>
		</clipPath>
		<path id="path4053" inkscape:connector-curvature="0" clip-path="url(#SVGID_8_)" fill="#DEDEDE" d="M636.5,612.832
			c-25.217,0.059-49.96-11.841-65.45-33.875c-25.318-36.014-16.664-85.757,19.35-111.075
			c36.014-25.318,85.757-16.639,111.075,19.375c25.318,36.014,16.639,85.732-19.375,111.05l-4.275,2.8
			C664.934,608.989,650.646,612.8,636.5,612.832L636.5,612.832z M635.625,605.382c14.429,0.136,29.045-4.035,41.8-12.875l0.4-0.275
			c32.655-22.957,40.507-68.044,17.55-100.7c-22.957-32.656-68.044-40.507-100.7-17.55c-32.656,22.957-40.507,68.044-17.55,100.7
			C591.048,594.488,613.116,605.17,635.625,605.382z"/>
	</g>
	<g>
		<defs>
			<polygon id="SVGID_9_" points="704.491,555.66 716.299,559.372 716.123,530.38 705.374,530.487 			"/>
		</defs>
		<clipPath id="SVGID_10_">
			<use xlink:href="#SVGID_9_"  overflow="visible"/>
		</clipPath>
		<path id="path4061" inkscape:connector-curvature="0" clip-path="url(#SVGID_10_)" fill="#CECECE" d="M636.5,612.832
			c-25.217,0.059-49.96-11.841-65.45-33.875c-25.318-36.014-16.664-85.757,19.35-111.075
			c36.014-25.318,85.757-16.639,111.075,19.375c25.318,36.014,16.639,85.732-19.375,111.05l-4.275,2.8
			C664.934,608.989,650.646,612.8,636.5,612.832L636.5,612.832z M635.625,605.382c14.429,0.136,29.045-4.035,41.8-12.875l0.4-0.275
			c32.655-22.957,40.507-68.044,17.55-100.7c-22.957-32.656-68.044-40.507-100.7-17.55c-32.656,22.957-40.507,68.044-17.55,100.7
			C591.048,594.488,613.116,605.17,635.625,605.382z"/>
	</g>
	<g id="Data" transform="scale(1,-1)">
		<path id="path5026" inkscape:connector-curvature="0" fill="#AB9E9E" d="M774.96-223.526c3.464,0,6.311-0.361,8.54-1.081
			c3.979-1.338,7.237-3.909,9.776-7.717c2.023-3.053,3.481-6.962,4.373-11.73c0.515-2.847,0.772-5.488,0.772-7.923
			c0-9.364-1.87-16.634-5.608-21.814c-3.705-5.18-9.689-7.769-17.956-7.769h-18.162v58.034H774.96 M746.406-290.359h30.612
			c10.392,0,18.452,3.688,24.18,11.062c5.111,6.653,7.666,15.177,7.666,25.569c-0.001,8.027-1.509,15.281-4.527,21.764
			c-5.317,11.455-14.458,17.183-27.423,17.183h-30.509V-290.359"/>
		<path id="path5028" inkscape:connector-curvature="0" fill="#AB9E9E" d="M827.129-229.443c0,2.675,0.977,4.784,2.933,6.328
			c1.955,1.544,4.27,2.316,6.945,2.316c3.259,0,6.414-0.755,9.466-2.264c5.145-2.503,7.717-6.603,7.717-12.297v-7.459
			c-1.132,0.72-2.589,1.32-4.373,1.8c-1.784,0.481-3.533,0.823-5.248,1.03l-5.609,0.72c-3.361,0.445-5.882,1.148-7.562,2.109
			C828.552-235.548,827.129-232.976,827.129-229.443 M849.56-248.17c2.127-0.275,3.55-1.167,4.27-2.677
			c0.412-0.822,0.618-2.006,0.618-3.55c0-3.155-1.132-5.436-3.396-6.842c-2.229-1.441-5.436-2.161-9.621-2.161
			c-4.836,0-8.266,1.303-10.289,3.911c-1.132,1.441-1.87,3.584-2.213,6.431h-8.644c0.172-6.792,2.367-11.508,6.586-14.148
			c4.253-2.677,9.175-4.014,14.766-4.014c6.483,0,11.747,1.236,15.794,3.705c4.013,2.47,6.02,6.311,6.02,11.525v31.744
			c0,0.959,0.189,1.731,0.566,2.314c0.412,0.584,1.252,0.875,2.521,0.875c0.412,0,0.875-0.017,1.389-0.052
			c0.515-0.069,1.063-0.155,1.647-0.256v6.842c-1.441,0.411-2.538,0.669-3.293,0.772s-1.784,0.155-3.087,0.155
			c-3.19,0-5.505-1.133-6.946-3.397c-0.755-1.2-1.286-2.897-1.594-5.092c-1.887,2.469-4.596,4.613-8.129,6.431
			c-3.533,1.817-7.426,2.727-11.679,2.727c-5.11,0-9.295-1.544-12.553-4.631c-3.224-3.12-4.837-7.014-4.837-11.678
			c0-5.111,1.595-9.072,4.785-11.884c3.19-2.812,7.374-4.545,12.553-5.197L849.56-248.17 M841.895-271.22L841.895-271.22"/>
		<path id="path5030" inkscape:connector-curvature="0" fill="#AB9E9E" d="M880.533-285.265h9.363v15.383h8.798v7.564h-8.798v35.962
			c0,1.92,0.652,3.206,1.955,3.858c0.72,0.378,1.92,0.566,3.601,0.566c0.446,0,0.926,0,1.441,0c0.515-0.034,1.115-0.084,1.801-0.153
			v7.305c-1.063,0.309-2.178,0.531-3.344,0.669c-1.132,0.137-2.367,0.206-3.705,0.206c-4.322,0-7.255-1.097-8.798-3.292
			c-1.544-2.23-2.315-5.111-2.315-8.644v-36.477h-7.46v-7.564h7.46V-285.265"/>
		<path id="path5032" inkscape:connector-curvature="0" fill="#AB9E9E" d="M915.003-229.443c0,2.675,0.977,4.784,2.933,6.328
			c1.955,1.544,4.27,2.316,6.945,2.316c3.259,0,6.414-0.755,9.466-2.264c5.145-2.503,7.717-6.603,7.717-12.297v-7.459
			c-1.132,0.72-2.59,1.32-4.373,1.8c-1.784,0.481-3.533,0.823-5.248,1.03l-5.608,0.72c-3.361,0.445-5.882,1.148-7.562,2.109
			C916.427-235.548,915.003-232.976,915.003-229.443 M937.434-248.17c2.127-0.275,3.55-1.167,4.27-2.677
			c0.412-0.822,0.617-2.006,0.617-3.55c0-3.155-1.131-5.436-3.395-6.842c-2.23-1.441-5.436-2.161-9.621-2.161
			c-4.836,0-8.266,1.303-10.29,3.911c-1.131,1.441-1.869,3.584-2.212,6.431h-8.644c0.172-6.792,2.366-11.508,6.586-14.148
			c4.252-2.677,9.175-4.014,14.766-4.014c6.482,0,11.747,1.236,15.795,3.705c4.013,2.47,6.02,6.311,6.02,11.525v31.744
			c0,0.959,0.188,1.731,0.566,2.314c0.412,0.584,1.252,0.875,2.521,0.875c0.412,0,0.875-0.017,1.389-0.052
			c0.515-0.069,1.063-0.155,1.647-0.256v6.842c-1.441,0.411-2.538,0.669-3.293,0.772c-0.755,0.103-1.784,0.155-3.087,0.155
			c-3.19,0-5.505-1.133-6.946-3.397c-0.755-1.2-1.286-2.897-1.595-5.092c-1.887,2.469-4.596,4.613-8.129,6.431
			c-3.533,1.817-7.426,2.727-11.679,2.727c-5.111,0-9.295-1.544-12.553-4.631c-3.224-3.12-4.837-7.014-4.837-11.678
			c0-5.111,1.595-9.072,4.785-11.884c3.19-2.812,7.374-4.545,12.553-5.197L937.434-248.17 M929.769-271.22L929.769-271.22"/>
	</g>
</g>
</svg>
