<?xml version="1.0" encoding="utf-8"?>
<!-- Generator: Adobe Illustrator 15.1.0, SVG Export Plug-In . SVG Version: 6.00 Build 0)  -->
<!DOCTYPE svg PUBLIC "-//W3C//DTD SVG 1.1//EN" "http://www.w3.org/Graphics/SVG/1.1/DTD/svg11.dtd">
<svg version="1.1" id="Calque_1" xmlns="http://www.w3.org/2000/svg" xmlns:xlink="http://www.w3.org/1999/xlink" x="0px" y="0px"
	 width="445px" height="212px" viewBox="0 0 445 212" enable-background="new 0 0 445 212" xml:space="preserve">
<path d="M134.729,211.396"/>
<rect x="14.23" y="14.818" fill="#007BBE" width="105.916" height="99.297"/>
<path fill="#FFFFFF" d="M67.446,33.557c31.125-3.747,55.494-13.989,54.422-22.875c-1.072-8.887-27.176-13.053-58.303-9.305
	C32.439,5.123,8.071,15.365,9.142,24.252C10.214,33.139,36.319,37.305,67.446,33.557"/>
<polygon fill="#FFFFFF" points="4.894,20.012 36.228,127.252 22.759,22.289 "/>
<polygon fill="none" stroke="#FFFFFF" stroke-width="6.62" points="4.894,20.012 36.228,127.252 22.759,22.289 "/>
<path fill="#4D4D4D" d="M56.12,27.666c28.133-2.543,50.778-9.996,50.576-16.647c-0.201-6.65-26.525-8.97-54.658-6.427
	C23.905,7.135,4.614,13.58,4.815,20.231C5.015,26.879,27.985,30.209,56.12,27.666"/>
<path fill="#FFFFFF" d="M120.105,38.486c-0.499-4.117-6.374-7.218-15.624-8.992c2.045,1.389,3.272,2.994,3.483,4.799
	c1.039,8.885-22.719,19.953-52.871,23.701c-11.871,1.475-31.996,3.071-31.996,3.071c10.715,2.037,25.926,2.3,42.582,0.296
	C96.808,57.613,121.173,47.371,120.105,38.486"/>
<path fill="#FFFFFF" d="M120.105,67.115c-0.499-4.117-6.374-7.218-15.624-8.99c2.045,1.387,3.272,2.994,3.483,4.797
	c1.039,8.887-22.719,19.955-52.871,23.701c-11.871,1.475-31.996,3.07-31.996,3.07c10.715,2.039,25.926,2.303,42.582,0.297
	C96.808,86.244,121.173,76.002,120.105,67.115"/>
<path fill="#FFFFFF" d="M120.105,94.836c-0.499-4.117-6.374-7.219-15.624-8.992c2.045,1.388,3.272,2.994,3.483,4.799
	c1.039,8.886-22.565,19.129-52.715,22.875c-6.451,0.803-12.658,1.229-18.471,1.334v4.076c8.561,0.406,18.446,0.041,28.901-1.217
	C96.808,113.965,121.173,103.723,120.105,94.836"/>
<polyline fill="#4D4D4D" points="4.784,20.84 38.644,133.941 22.759,22.289 4.784,20.84 "/>
<rect x="14.23" y="14.818" fill="#007BBE" width="105.916" height="99.297"/>
<path fill="#FFFFFF" d="M67.446,33.557c31.125-3.747,55.494-13.989,54.422-22.875c-1.072-8.887-27.176-13.053-58.303-9.305
	C32.439,5.123,8.071,15.365,9.142,24.252C10.214,33.139,36.319,37.305,67.446,33.557"/>
<polygon fill="#FFFFFF" points="4.894,20.012 36.228,127.252 22.759,22.289 "/>
<polygon fill="none" stroke="#FFFFFF" stroke-width="6.62" points="4.894,20.012 36.228,127.252 22.759,22.289 "/>
<path fill="#4D4D4D" d="M56.12,27.666c28.133-2.543,50.778-9.996,50.576-16.647c-0.201-6.65-26.525-8.97-54.658-6.427
	C23.905,7.135,4.614,13.58,4.815,20.231C5.015,26.879,27.985,30.209,56.12,27.666"/>
<path fill="#FFFFFF" d="M120.105,38.486c-0.499-4.117-6.374-7.218-15.624-8.992c2.045,1.389,3.272,2.994,3.483,4.799
	c1.039,8.885-22.719,19.953-52.871,23.701c-11.871,1.475-31.996,3.071-31.996,3.071c10.715,2.037,25.926,2.3,42.582,0.296
	C96.808,57.613,121.173,47.371,120.105,38.486"/>
<path fill="#FFFFFF" d="M120.105,67.115c-0.499-4.117-6.374-7.218-15.624-8.99c2.045,1.387,3.272,2.994,3.483,4.797
	c1.039,8.887-22.719,19.955-52.871,23.701c-11.871,1.475-31.996,3.07-31.996,3.07c10.715,2.039,25.926,2.303,42.582,0.297
	C96.808,86.244,121.173,76.002,120.105,67.115"/>
<path fill="#FFFFFF" d="M120.105,94.836c-0.499-4.117-6.374-7.219-15.624-8.992c2.045,1.388,3.272,2.994,3.483,4.799
	c1.039,8.886-22.565,19.129-52.715,22.875c-6.451,0.803-12.658,1.229-18.471,1.334v4.076c8.561,0.406,18.446,0.041,28.901-1.217
	C96.808,113.965,121.173,103.723,120.105,94.836"/>
<polyline fill="#4D4D4D" points="4.784,20.84 38.644,133.941 22.759,22.289 4.784,20.84 "/>
<rect x="14.23" y="14.818" fill="#007BBE" width="105.916" height="99.297"/>
<path fill="#FFFFFF" d="M67.446,33.557c31.125-3.747,55.494-13.989,54.422-22.875c-1.072-8.887-27.176-13.053-58.303-9.305
	C32.439,5.123,8.071,15.365,9.142,24.252C10.214,33.139,36.319,37.305,67.446,33.557"/>
<polygon fill="#FFFFFF" points="4.894,20.012 36.228,127.252 22.759,22.289 "/>
<polygon fill="none" stroke="#FFFFFF" stroke-width="6.62" points="4.894,20.012 36.228,127.252 22.759,22.289 "/>
<path fill="#4D4D4D" d="M56.12,27.666c28.133-2.543,50.778-9.996,50.576-16.647c-0.201-6.65-26.525-8.97-54.658-6.427
	C23.905,7.135,4.614,13.58,4.815,20.231C5.015,26.879,27.985,30.209,56.12,27.666"/>
<path fill="#FFFFFF" d="M120.105,38.486c-0.499-4.117-6.374-7.218-15.624-8.992c2.045,1.389,3.272,2.994,3.483,4.799
	c1.039,8.885-22.719,19.953-52.871,23.701c-11.871,1.475-31.996,3.071-31.996,3.071c10.715,2.037,25.926,2.3,42.582,0.296
	C96.808,57.613,121.173,47.371,120.105,38.486"/>
<path fill="#FFFFFF" d="M120.105,67.115c-0.499-4.117-6.374-7.218-15.624-8.99c2.045,1.387,3.272,2.994,3.483,4.797
	c1.039,8.887-22.719,19.955-52.871,23.701c-11.871,1.475-31.996,3.07-31.996,3.07c10.715,2.039,25.926,2.303,42.582,0.297
	C96.808,86.244,121.173,76.002,120.105,67.115"/>
<path fill="#FFFFFF" d="M120.105,94.836c-0.499-4.117-6.374-7.219-15.624-8.992c2.045,1.388,3.272,2.994,3.483,4.799
	c1.039,8.886-22.565,19.129-52.715,22.875c-6.451,0.803-12.658,1.229-18.471,1.334v4.076c8.561,0.406,18.446,0.041,28.901-1.217
	C96.808,113.965,121.173,103.723,120.105,94.836"/>
<polyline fill="#4D4D4D" points="4.784,20.84 38.644,133.941 22.759,22.289 4.784,20.84 "/>
<path fill="#333333" d="M29.638,159.781h-4.295v-2.369h-0.069c-1.386,1.694-3.351,2.778-5.718,2.778
	c-4.129,0-5.922-2.913-5.922-6.838v-10.997h4.535v9.305c0,2.131,0.033,5.008,2.945,5.008c3.28,0,3.991-3.551,3.991-5.785v-8.527
	h4.533V159.781"/>
<path fill="#333333" d="M35.493,142.355h4.299v2.367h0.066c1.422-1.996,3.35-2.773,5.721-2.773c4.125,0,5.922,2.91,5.922,6.834
	v10.998h-4.535v-9.307c0-2.131-0.035-5.008-2.945-5.008c-3.282,0-3.995,3.556-3.995,5.787v8.527h-4.533V142.355"/>
<path fill="#333333" d="M57.454,134.842h4.535v4.332h-4.535V134.842z M57.454,142.355h4.535v17.426h-4.535V142.355z"/>
<polyline fill="#333333" points="66.017,142.355 70.888,142.355 75.22,155.045 75.288,155.045 79.485,142.355 84.019,142.355 
	77.589,159.781 72.481,159.781 66.017,142.355 "/>
<path fill="#333333" d="M101.919,155.113c-1.691,0.945-3.586,1.76-5.785,1.76c-2.809,0-4.772-1.594-4.975-4.4h12.045
	c0-6.092-1.826-10.523-8.291-10.523c-5.412,0-8.086,4.162-8.086,9.203c0,5.721,3.35,9.038,9.104,9.038
	c2.435,0,4.33-0.476,5.988-1.39V155.113 M91.159,149.359c0.203-2.334,1.489-4.094,4.026-4.094c2.539,0,3.554,1.893,3.687,4.094
	H91.159z"/>
<path fill="#333333" d="M108.044,142.355h4.027v3.96h0.069c0.201-1.625,2.062-4.366,4.771-4.366c0.44,0,0.912,0,1.387,0.135v4.568
	c-0.406-0.236-1.219-0.373-2.031-0.373c-3.69,0-3.69,4.604-3.69,7.107v6.395h-4.533V142.355"/>
<path fill="#333333" d="M132.644,146.01c-1.385-0.475-2.403-0.744-4.059-0.744c-1.219,0-2.674,0.439-2.674,1.928
	c0,2.775,7.885,1.016,7.885,7.309c0,4.063-3.621,5.688-7.311,5.688c-1.724,0-3.484-0.308-5.142-0.747l0.269-3.723
	c1.422,0.711,2.911,1.152,4.467,1.152c1.152,0,2.979-0.441,2.979-2.133c0-3.42-7.885-1.084-7.885-7.377
	c0-3.757,3.283-5.414,6.838-5.414c2.131,0,3.517,0.338,4.937,0.643L132.644,146.01"/>
<path fill="#333333" d="M138.601,134.842h4.535v4.332h-4.535V134.842z M138.601,142.355h4.535v17.426h-4.535V142.355z"/>
<path fill="#333333" d="M150.579,145.67h-3.349v-3.314h3.349v-3.486l4.535-1.455v4.941h4.026v3.314h-4.026v8.121
	c0,1.488,0.407,2.877,2.133,2.877c0.811,0,1.59-0.168,2.063-0.475l0.136,3.588c-0.949,0.271-1.998,0.409-3.351,0.409
	c-3.553,0-5.516-2.202-5.516-5.653V145.67"/>
<path fill="#333333" d="M177.415,155.113c-1.693,0.945-3.588,1.76-5.787,1.76c-2.811,0-4.773-1.594-4.975-4.4H178.7
	c0-6.092-1.828-10.523-8.291-10.523c-5.414,0-8.088,4.162-8.088,9.203c0,5.721,3.35,9.038,9.104,9.038c2.435,0,4.33-0.476,5.99-1.39
	V155.113 M168.007,139.986h2.808l4.635-4.941h-4.635L168.007,139.986z M166.653,149.359c0.202-2.334,1.489-4.094,4.028-4.094
	c2.537,0,3.552,1.893,3.689,4.094H166.653z"/>
<path fill="#333333" d="M193.792,146.01c-1.387-0.475-2.402-0.744-4.062-0.744c-1.217,0-2.672,0.439-2.672,1.928
	c0,2.775,7.884,1.016,7.884,7.309c0,4.063-3.619,5.688-7.308,5.688c-1.727,0-3.486-0.308-5.143-0.747l0.27-3.723
	c1.42,0.711,2.91,1.152,4.467,1.152c1.15,0,2.978-0.441,2.978-2.133c0-3.42-7.887-1.084-7.887-7.377
	c0-3.757,3.285-5.414,6.836-5.414c2.133,0,3.52,0.338,4.942,0.643L193.792,146.01"/>
<path fill="#333333" d="M221.845,159.781h4.398v-25.379h-4.533v9.982h-0.068c-1.356-1.658-2.946-2.436-5.211-2.436
	c-5.348,0-7.311,4.264-7.311,9.068c0,4.771,1.963,9.173,7.311,9.173c2.13,0,3.992-0.681,5.345-2.372h0.069V159.781 M213.858,151.018
	c0-2.334,0.811-5.551,3.756-5.551c2.91,0,4.061,3.113,4.061,5.551c0,2.471-0.983,5.65-3.992,5.65
	C214.704,156.668,213.858,153.42,213.858,151.018z"/>
<path fill="#333333" d="M244.888,155.113c-1.691,0.945-3.586,1.76-5.785,1.76c-2.811,0-4.771-1.594-4.975-4.4h12.047
	c0-6.092-1.828-10.523-8.291-10.523c-5.414,0-8.088,4.162-8.088,9.203c0,5.721,3.351,9.038,9.104,9.038
	c2.436,0,4.329-0.476,5.988-1.39V155.113 M234.128,149.359c0.203-2.334,1.488-4.094,4.027-4.094c2.537,0,3.551,1.893,3.688,4.094
	H234.128z"/>
<path fill="#333333" d="M260.622,145.67h-3.349v-3.314h3.349v-3.486l4.535-1.455v4.941h4.027v3.314h-4.027v8.121
	c0,1.488,0.407,2.877,2.133,2.877c0.812,0,1.59-0.168,2.065-0.475l0.134,3.588c-0.947,0.271-1.998,0.409-3.35,0.409
	c-3.553,0-5.518-2.202-5.518-5.653V145.67"/>
<path fill="#333333" d="M286.272,155.113c-1.691,0.945-3.588,1.76-5.787,1.76c-2.807,0-4.77-1.594-4.975-4.4h12.047
	c0-6.092-1.826-10.523-8.289-10.523c-5.416,0-8.088,4.162-8.088,9.203c0,5.721,3.352,9.038,9.102,9.038
	c2.438,0,4.332-0.476,5.99-1.39V155.113 M275.511,149.359c0.205-2.334,1.49-4.094,4.027-4.094c2.539,0,3.555,1.893,3.689,4.094
	H275.511z"/>
<path fill="#333333" d="M302.415,146.111c-0.812-0.373-1.693-0.645-3.08-0.645c-2.809,0-4.602,2.234-4.602,5.516
	c0,3.215,1.523,5.686,4.702,5.686c1.286,0,2.708-0.475,3.485-0.811l0.203,3.754c-1.318,0.406-2.674,0.579-4.533,0.579
	c-5.719,0-8.596-3.894-8.596-9.208c0-5.041,2.979-9.033,8.426-9.033c1.828,0,3.146,0.203,4.4,0.574L302.415,146.111"/>
<path fill="#333333" d="M306.136,134.402h4.533v10.32h0.068c1.152-1.691,3.115-2.773,5.484-2.773c4.127,0,5.92,2.91,5.92,6.834
	v10.998h-4.533v-9.307c0-2.131-0.035-5.008-2.943-5.008c-3.283,0-3.996,3.556-3.996,5.787v8.527h-4.533V134.402"/>
<path fill="#333333" d="M326.811,142.355h4.3v2.367h0.066c1.42-1.996,3.35-2.773,5.72-2.773c4.128,0,5.921,2.91,5.921,6.834v10.998
	h-4.535v-9.307c0-2.131-0.033-5.008-2.943-5.008c-3.281,0-3.992,3.556-3.992,5.787v8.527h-4.536V142.355"/>
<path fill="#333333" d="M346.37,151.185c0,5.009,3.35,9.006,9.104,9.006c5.785,0,9.135-3.997,9.135-9.006
	c0-5.751-3.959-9.235-9.135-9.235C350.329,141.949,346.37,145.434,346.37,151.185 M351.108,150.647c0-2.606,1.42-5.181,4.365-5.181
	c2.979,0,4.398,2.506,4.398,5.181c0,2.907-0.914,6.021-4.398,6.021C352.023,156.668,351.108,153.522,351.108,150.647z"/>
<rect x="368.265" y="134.402" fill="#333333" width="4.533" height="25.379"/>
<path fill="#333333" d="M376.454,151.185c0,5.009,3.348,9.006,9.102,9.006c5.787,0,9.137-3.997,9.137-9.006
	c0-5.751-3.959-9.235-9.137-9.235C380.413,141.949,376.454,145.434,376.454,151.185 M381.192,150.647
	c0-2.606,1.42-5.181,4.363-5.181c2.979,0,4.4,2.506,4.4,5.181c0,2.907-0.914,6.021-4.4,6.021
	C382.104,156.668,381.192,153.522,381.192,150.647z"/>
<path fill="#333333" d="M409.921,142.355v2.367h-0.069c-1.251-1.996-3.044-2.773-5.345-2.773c-5.213,0-7.377,4.838-7.377,9.033
	c0,4.67,1.961,8.799,7.105,8.799c2.538,0,4.568-1.285,5.414-2.773h0.066c0,3.01-0.237,6.768-5.244,6.768
	c-1.422,0-3.689-0.779-5.075-1.523l-0.374,3.857c2.168,0.914,4.23,1.184,6.025,1.184c7.309,0,9.203-4.467,9.203-9.203v-15.734
	H409.921 M405.724,156.262c-2.605,0-3.857-2.909-3.857-5.279c0-2.673,0.982-5.516,4.061-5.516c2.639,0,3.789,2.438,3.789,5.416
	C409.716,153.791,408.565,156.262,405.724,156.262z"/>
<path fill="#333333" d="M419.023,134.842h4.534v4.332h-4.534V134.842z M419.023,142.355h4.534v17.426h-4.534V142.355z"/>
<path fill="#333333" d="M442.304,155.113c-1.691,0.945-3.588,1.76-5.785,1.76c-2.811,0-4.771-1.594-4.975-4.4h12.047
	c0-6.092-1.828-10.523-8.293-10.523c-5.414,0-8.086,4.162-8.086,9.203c0,5.721,3.351,9.038,9.101,9.038
	c2.438,0,4.334-0.476,5.991-1.39V155.113 M431.544,149.359c0.203-2.334,1.488-4.094,4.025-4.094c2.539,0,3.555,1.893,3.688,4.094
	H431.544z"/>
<path d="M138.73,9.5"/>
<path fill="#333333" d="M253.942,188.58c-1.016,0.238-2.111,0.438-3.164,0.438c-4.496,0-7.619-2.248-7.619-6.943
	c0-4.754,2.905-7.42,7.619-7.42c0.914,0,2.129,0.18,3.143,0.578l-0.199,2.346c-1.053-0.596-2.008-0.736-3.004-0.736
	c-2.862,0-4.653,2.189-4.653,5.035c0,2.822,1.75,4.951,4.714,4.951c1.094,0,2.387-0.238,3.043-0.576L253.942,188.58"/>
<path fill="#333333" d="M256.288,183.727c0,2.943,1.969,5.291,5.352,5.291c3.4,0,5.371-2.348,5.371-5.291
	c0-3.383-2.328-5.432-5.371-5.432C258.616,178.295,256.288,180.344,256.288,183.727 M259.073,183.408
	c0-1.531,0.836-3.045,2.566-3.045c1.75,0,2.586,1.473,2.586,3.045c0,1.711-0.538,3.541-2.586,3.541
	C259.61,186.949,259.073,185.098,259.073,183.408z"/>
<path fill="#333333" d="M270.253,178.533h2.486v1.434h0.039c0.836-1.254,2.049-1.672,3.045-1.672c1.432,0,2.445,0.537,3.023,1.811
	c0.617-1.232,1.949-1.811,3.203-1.811c2.525,0,3.242,1.73,3.242,4.019v6.466h-2.666v-6.107c0-0.955,0-2.309-1.531-2.309
	c-1.771,0-1.989,2.107-1.989,3.443v4.973h-2.665v-6.107c0-0.955,0-2.309-1.533-2.309c-1.77,0-1.99,2.107-1.99,3.443v4.973h-2.664
	V178.533"/>
<path fill="#333333" d="M289.171,192.955h2.666v-5.352h0.039c0.935,1.135,1.871,1.414,3.004,1.414c3.203,0,4.357-2.586,4.357-5.391
	c0-2.824-1.154-5.332-4.297-5.332c-1.574,0-2.588,0.697-3.184,1.691h-0.041v-1.453h-2.545V192.955 M294.243,180.363
	c1.73,0,2.207,1.891,2.207,3.264c0,1.412-0.496,3.322-2.246,3.322c-1.771,0-2.348-1.871-2.348-3.322
	C291.856,182.195,292.532,180.363,294.243,180.363z"/>
<path fill="#333333" d="M302.579,174.117h2.666v2.547h-2.666V174.117z M302.579,178.533h2.666v10.246h-2.666V178.533z"/>
<path fill="#333333" d="M317.458,186.033c-0.994,0.557-2.107,1.035-3.4,1.035c-1.652,0-2.807-0.936-2.926-2.586h7.084
	c0-3.582-1.076-6.188-4.875-6.188c-3.184,0-4.754,2.447-4.754,5.412c0,3.361,1.971,5.311,5.353,5.311
	c1.431,0,2.544-0.279,3.519-0.814V186.033 M313.042,174.236h-2.725l2.725,2.906h1.65L313.042,174.236z M311.132,182.652
	c0.119-1.373,0.875-2.408,2.367-2.408s2.09,1.115,2.168,2.408H311.132z"/>
<path fill="#333333" d="M328.358,178.533v1.393h-0.039c-0.736-1.174-1.789-1.631-3.143-1.631c-3.062,0-4.336,2.844-4.336,5.312
	c0,2.744,1.152,5.172,4.178,5.172c1.492,0,2.686-0.756,3.182-1.631h0.041c0,1.771-0.141,3.979-3.084,3.979
	c-0.836,0-2.17-0.459-2.982-0.896l-0.221,2.27c1.271,0.535,2.486,0.695,3.541,0.695c4.297,0,5.41-2.625,5.41-5.412v-9.25H328.358
	 M325.894,186.711c-1.533,0-2.27-1.713-2.27-3.104c0-1.572,0.578-3.244,2.389-3.244c1.552,0,2.229,1.434,2.229,3.186
	C328.241,185.258,327.564,186.711,325.894,186.711z"/>
<path fill="#333333" d="M334.845,178.533h2.525v1.393h0.041c0.834-1.174,1.971-1.631,3.362-1.631c2.427,0,3.479,1.711,3.479,4.019
	v6.466h-2.664v-5.471c0-1.254-0.021-2.945-1.73-2.945c-1.932,0-2.348,2.09-2.348,3.402v5.014h-2.666V178.533"/>
<path fill="#333333" d="M356.407,186.033c-0.992,0.557-2.107,1.035-3.4,1.035c-1.65,0-2.805-0.936-2.926-2.586h7.084
	c0-3.582-1.076-6.188-4.875-6.188c-3.182,0-4.754,2.447-4.754,5.412c0,3.361,1.969,5.311,5.352,5.311
	c1.432,0,2.547-0.279,3.52-0.814V186.033 M350.081,182.652c0.121-1.373,0.877-2.408,2.367-2.408c1.492,0,2.092,1.115,2.17,2.408
	H350.081z"/>
<path fill="#333333" d="M14.06,188.779h4.853c1.75,0,4.893-0.518,4.893-4.02c0-1.711-1.293-2.984-3.182-3.162v-0.039
	c1.65-0.299,2.766-1.453,2.766-3.105c0-3.041-2.686-3.561-4.477-3.561H14.06V188.779 M16.843,177.082h1.074
	c1.273,0,2.686,0.119,2.686,1.731c0,1.431-1.452,1.688-2.627,1.688h-1.133V177.082z M16.843,182.572h1.314
	c1.391,0,2.866,0.279,2.866,2.09c0,1.61-1.575,1.928-2.866,1.928h-1.314V182.572z"/>
<path fill="#333333" d="M35.384,186.033c-0.994,0.557-2.11,1.035-3.403,1.035c-1.65,0-2.804-0.936-2.923-2.586h7.08
	c0-3.582-1.073-6.188-4.871-6.188c-3.184,0-4.756,2.447-4.756,5.412c0,3.361,1.969,5.311,5.351,5.311
	c1.432,0,2.547-0.279,3.522-0.814V186.033 M29.058,182.652c0.119-1.373,0.875-2.408,2.367-2.408c1.492,0,2.088,1.115,2.168,2.408
	H29.058z"/>
<rect x="39.481" y="173.857" fill="#333333" width="2.664" height="14.922"/>
<path fill="#333333" d="M47.12,180.484h-1.969v-1.951h1.969V177.1c0-2.049,1.154-3.479,3.264-3.479c0.676,0,1.431,0.098,1.947,0.219
	l-0.217,2.209c-0.24-0.141-0.578-0.358-1.152-0.358c-0.897,0-1.176,0.774-1.176,1.569v1.273h2.328v1.951h-2.328v8.295H47.12V180.484
	"/>
<path fill="#333333" d="M54.421,183.727c0,2.943,1.971,5.291,5.352,5.291c3.402,0,5.371-2.348,5.371-5.291
	c0-3.383-2.329-5.432-5.371-5.432C56.747,178.295,54.421,180.344,54.421,183.727 M57.206,183.408c0-1.531,0.836-3.045,2.567-3.045
	c1.75,0,2.583,1.473,2.583,3.045c0,1.711-0.535,3.541-2.583,3.541C57.743,186.949,57.206,185.098,57.206,183.408z"/>
<path fill="#333333" d="M68.485,178.533h2.368v2.328h0.039c0.121-0.955,1.214-2.566,2.806-2.566c0.258,0,0.535,0,0.815,0.078v2.687
	c-0.239-0.138-0.717-0.218-1.194-0.218c-2.168,0-2.168,2.707-2.168,4.178v3.76h-2.666V178.533"/>
<path fill="#333333" d="M78.231,180.484h-1.968v-1.951h1.968v-2.049l2.667-0.855v2.904h2.367v1.951h-2.367v4.773
	c0,0.875,0.24,1.691,1.253,1.691c0.477,0,0.936-0.1,1.213-0.279l0.08,2.109c-0.558,0.159-1.173,0.238-1.968,0.238
	c-2.09,0-3.245-1.293-3.245-3.322V180.484"/>
<rect x="85.614" y="182.332" fill="#333333" width="5.23" height="2.19"/>
<polyline fill="#333333" points="94.345,174.893 98.802,174.893 102.105,185.416 102.144,185.416 105.444,174.893 109.901,174.893 
	109.901,188.779 107.235,188.779 107.235,177.32 107.196,177.32 103.458,188.779 100.79,188.779 97.052,177.32 97.011,177.359 
	97.011,188.779 94.345,188.779 94.345,174.893 "/>
<path fill="#333333" d="M113.423,183.727c0,2.943,1.969,5.291,5.351,5.291c3.401,0,5.372-2.348,5.372-5.291
	c0-3.383-2.329-5.432-5.372-5.432C115.749,178.295,113.423,180.344,113.423,183.727 M116.208,183.408
	c0-1.531,0.834-3.045,2.566-3.045c1.75,0,2.586,1.473,2.586,3.045c0,1.711-0.537,3.541-2.586,3.541
	C116.745,186.949,116.208,185.098,116.208,183.408z"/>
<path fill="#333333" d="M127.427,178.533h2.525v1.393h0.041c0.836-1.174,1.971-1.631,3.362-1.631c2.427,0,3.482,1.711,3.482,4.019
	v6.466h-2.666v-5.471c0-1.254-0.022-2.945-1.732-2.945c-1.928,0-2.346,2.09-2.346,3.402v5.014h-2.666V178.533"/>
<path fill="#333333" d="M141.649,180.484h-1.968v-1.951h1.968v-2.049l2.668-0.855v2.904h2.368v1.951h-2.368v4.773
	c0,0.875,0.239,1.691,1.252,1.691c0.477,0,0.936-0.1,1.213-0.279l0.08,2.109c-0.556,0.159-1.173,0.238-1.97,0.238
	c-2.088,0-3.243-1.293-3.243-3.322V180.484"/>
<path fill="#333333" d="M149.706,188.779h2.588v-1.254h0.039c0.775,1.094,2.01,1.492,3.143,1.492c3.142,0,4.297-2.586,4.297-5.391
	c0-2.824-1.155-5.332-4.297-5.332c-1.393,0-2.328,0.578-3.063,1.551h-0.039v-5.988h-2.668V188.779 M152.392,183.627
	c0-1.432,0.677-3.264,2.388-3.264c1.731,0,2.207,1.891,2.207,3.264c0,1.412-0.498,3.322-2.246,3.322
	C152.97,186.949,152.392,185.078,152.392,183.627z"/>
<path fill="#333333" d="M171.271,188.203c-0.975,0.535-2.088,0.814-3.522,0.814c-3.381,0-5.35-1.949-5.35-5.311
	c0-2.965,1.571-5.412,4.752-5.412c3.801,0,4.875,2.605,4.875,6.188h-7.082c0.12,1.65,1.274,2.586,2.924,2.586
	c1.293,0,2.408-0.479,3.403-1.035V188.203 M169.48,182.652c-0.081-1.293-0.676-2.408-2.168-2.408c-1.493,0-2.248,1.035-2.368,2.408
	H169.48z M167.392,174.236h2.724l-2.724,2.906h-1.651L167.392,174.236z"/>
<rect x="175.368" y="173.857" fill="#333333" width="2.666" height="14.922"/>
<path fill="#333333" d="M182.093,188.779h2.664v-10.246h-2.664V188.779z M182.093,176.664h2.664v-2.547h-2.664V176.664z"/>
<path fill="#333333" d="M189.294,181.359c0.895-0.678,2.029-1.115,3.164-1.115c1.57,0,2.307,0.559,2.307,2.209h-1.473
	c-1.113,0-2.426,0.098-3.439,0.596c-1.018,0.5-1.752,1.393-1.752,2.926c0,1.947,1.769,3.043,3.58,3.043
	c1.213,0,2.547-0.637,3.162-1.77h0.041c0.019,0.317,0.019,0.992,0.119,1.531h2.348c-0.061-0.797-0.1-1.512-0.12-2.289
	c-0.021-0.756-0.039-1.529-0.039-2.564v-1.314c0-3.023-1.295-4.316-4.418-4.316c-1.134,0-2.525,0.299-3.56,0.775L189.294,181.359
	 M190.646,185.815c0-1.571,1.771-1.771,2.964-1.771h1.155c0,0.793-0.119,1.531-0.559,2.109c-0.416,0.557-1.053,0.914-1.867,0.914
	C191.382,187.068,190.646,186.69,190.646,185.815z"/>
<path fill="#333333" d="M201.069,178.533h2.37v2.328h0.037c0.121-0.955,1.214-2.566,2.806-2.566c0.258,0,0.537,0,0.817,0.078v2.687
	c-0.241-0.138-0.717-0.218-1.196-0.218c-2.168,0-2.168,2.707-2.168,4.178v3.76h-2.666V178.533"/>
<path fill="#333333" d="M216.411,188.779h2.586v-14.922h-2.666v5.869h-0.039c-0.795-0.975-1.732-1.432-3.064-1.432
	c-3.143,0-4.297,2.508-4.297,5.332c0,2.805,1.154,5.391,4.297,5.391c1.253,0,2.349-0.398,3.142-1.393h0.041V188.779
	 M211.716,183.627c0-1.373,0.478-3.264,2.209-3.264c1.711,0,2.386,1.832,2.386,3.264c0,1.451-0.576,3.322-2.347,3.322
	C212.214,186.949,211.716,185.039,211.716,183.627z"/>
<polyline fill="#333333" points="383.552,177.082 379.573,177.082 379.573,174.893 390.315,174.893 390.315,177.082 
	386.337,177.082 386.337,188.779 383.552,188.779 383.552,177.082 "/>
<path fill="#333333" d="M391.274,178.533h2.367v2.328h0.041c0.119-0.955,1.214-2.566,2.803-2.566c0.26,0,0.538,0,0.816,0.078v2.687
	c-0.237-0.138-0.717-0.218-1.193-0.218c-2.168,0-2.168,2.707-2.168,4.178v3.76h-2.666V178.533"/>
<path fill="#333333" d="M399.136,183.727c0,2.943,1.968,5.291,5.352,5.291c3.4,0,5.371-2.348,5.371-5.291
	c0-3.383-2.33-5.432-5.371-5.432C401.462,178.295,399.136,180.344,399.136,183.727 M401.921,183.408
	c0-1.531,0.834-3.045,2.566-3.045c1.75,0,2.586,1.473,2.586,3.045c0,1.711-0.537,3.541-2.586,3.541
	C402.458,186.949,401.921,185.098,401.921,183.408z"/>
<path fill="#333333" d="M417.397,186.014h0.04l2.466-7.48h2.707l-3.842,10.166c-0.855,2.268-1.471,4.496-4.256,4.496
	c-0.637,0-1.273-0.1-1.891-0.279l0.18-1.969c0.338,0.119,0.717,0.18,1.373,0.18c1.074,0,1.729-0.736,1.729-1.83l-3.916-10.764h2.943
	L417.397,186.014"/>
<path fill="#333333" d="M433.61,186.033c-0.996,0.557-2.109,1.035-3.402,1.035c-1.652,0-2.805-0.936-2.924-2.586h7.082
	c0-3.582-1.074-6.188-4.875-6.188c-3.182,0-4.754,2.447-4.754,5.412c0,3.361,1.971,5.311,5.352,5.311
	c1.433,0,2.547-0.279,3.521-0.814V186.033 M427.284,182.652c0.119-1.373,0.875-2.408,2.365-2.408c1.494,0,2.09,1.115,2.17,2.408
	H427.284z"/>
<path fill="#333333" d="M443.735,180.682c-0.816-0.277-1.414-0.438-2.389-0.438c-0.715,0-1.57,0.258-1.57,1.133
	c0,1.633,4.635,0.6,4.635,4.299c0,2.386-2.129,3.342-4.297,3.342c-1.014,0-2.049-0.178-3.023-0.438l0.158-2.188
	c0.836,0.417,1.713,0.676,2.627,0.676c0.676,0,1.75-0.259,1.75-1.253c0-2.009-4.635-0.638-4.635-4.338
	c0-2.208,1.93-3.183,4.02-3.183c1.252,0,2.068,0.199,2.904,0.379L443.735,180.682"/>
<line fill="none" stroke="#333333" stroke-width="1.207" x1="14.036" y1="170.297" x2="443.919" y2="170.297"/>
<path fill="#004E86" d="M338.194,100.49v13.23h105.57V75.781C443.765,75.781,367.282,107.598,338.194,100.49"/>
<path fill="#004E86" d="M368.339,71.041c-4.438,1.957-9.055,1.231-10.315-1.627c-1.261-2.857,1.312-6.762,5.749-8.721
	c4.436-1.957,9.055-1.226,10.316,1.629C375.349,65.182,372.774,69.084,368.339,71.041 M379.604,49.625
	c-22.878,9.486-39.341,22.203-36.771,28.4c2.57,6.198,23.199,3.532,46.078-5.959c22.879-9.486,39.342-22.203,36.773-28.4
	C423.112,37.469,402.483,40.135,379.604,49.625z"/>
<path fill="#004E86" d="M383.624,43.156c24.289-9.853,46.953-14.841,60.141-13.984V10.779H338.53v57.202
	C348.837,59.785,364.833,50.779,383.624,43.156"/>
<path fill="#004E86" d="M338.53,91.453v6.528c12.396,0.576,42.234-2.485,105.234-28.475V52.203
	c-10.283,8.303-26.502,17.484-45.605,25.235C374.181,87.164,351.788,92.15,338.53,91.453"/>
<path fill="#B2D1C6" d="M327.429,88.398c0.695,1.366,8.107,13.526,46.654,2.1c0,0,36.133-8.56,69.682-31.461v-6.834
	c-10.34,8.303-26.646,17.484-45.855,25.235C365.044,90.697,335.138,95.148,327.429,88.398"/>
<path fill="#FFD500" d="M178.943,75.426v38.406h102.98V50.34c-33.552,5.773-51.104,13.763-81.506,29.579L178.943,75.426"/>
<path fill="#FFD500" d="M281.923,10.852h-102.98v45.17c34.2-12.411,70.623-20.277,102.98-22.82V10.852"/>
<path fill="#595959" d="M281.923,33.202c-32.357,2.543-68.78,10.409-102.98,22.82c-6.499,2.359-12.926,4.862-19.219,7.543
	l40.693,9.878c32.916-17.123,53.371-24.913,92.775-30.988V32.5C289.506,32.651,285.732,32.902,281.923,33.202"/>
</svg>
