<?xml version="1.0" encoding="utf-8"?>
<!-- Generator: Adobe Illustrator 15.1.0, SVG Export Plug-In . SVG Version: 6.00 Build 0)  -->
<!DOCTYPE svg PUBLIC "-//W3C//DTD SVG 1.1//EN" "http://www.w3.org/Graphics/SVG/1.1/DTD/svg11.dtd">
<svg version="1.1" id="Calque_1" xmlns="http://www.w3.org/2000/svg" xmlns:xlink="http://www.w3.org/1999/xlink" x="0px" y="0px"
	 width="86.773px" height="86.773px" viewBox="0 0 86.773 86.773" enable-background="new 0 0 86.773 86.773" xml:space="preserve">
<path display="none" d="M43.387,0C19.425,0,0,19.425,0,43.387c0,23.962,19.425,43.387,43.388,43.387
	c23.962,0,43.387-19.425,43.387-43.387C86.774,19.425,67.349,0,43.387,0z M40.88,46.981l-8.34,8.375V45.131l-0.096,0.064
	L21.693,32.54h-7.231L32.54,14.462v7.231l12.651,10.751l-0.062,0.095h10.223l-8.595,8.573l20.176,25.811L40.88,46.981z"/>
<path display="none" d="M43.387,0C19.424,0,0,19.425,0,43.387c0,23.962,19.424,43.387,43.388,43.387
	c23.961,0,43.387-19.425,43.387-43.387C86.774,19.425,67.348,0,43.387,0z M22.35,72.24c-4.357,0-7.888-3.53-7.888-7.888
	c0-4.354,3.529-7.885,7.888-7.885c4.35,0,7.893,3.53,7.893,7.885C30.238,68.713,26.699,72.24,22.35,72.24z M42.133,72.314v-0.003
	c0-7.438-2.885-14.441-8.108-19.695c-5.219-5.247-12.129-8.139-19.562-8.139V33.094c21.064,0,39.058,18.151,39.058,39.221
	L42.133,72.314L42.133,72.314z M62.248,72.314v-0.003c0-26.479-21.764-48.021-47.785-48.021v-11.38
	c32.216,0,59.168,26.647,59.168,59.402L62.248,72.314L62.248,72.314z"/>
<path display="none" d="M43.387,0C19.425,0,0,19.425,0,43.387c0,23.962,19.425,43.387,43.388,43.387
	c23.962,0,43.387-19.425,43.387-43.387C86.774,19.425,67.349,0,43.387,0z M28.925,68.696h-0.47H18.078V32.54h10.847V68.696z
	 M23.502,27.625c-3.65,0-6.609-2.956-6.609-6.609c0-3.651,2.959-6.606,6.609-6.606s6.609,2.956,6.609,6.606
	C30.111,24.67,27.152,27.625,23.502,27.625z M68.696,68.696H57.85V49.559c0-4.517-1.926-7.596-5.964-7.596
	c-3.087,0-3.707,2.076-4.517,4.082c-0.297,0.718-0.367,1.721-0.367,2.723v19.928H36.156c0,0,0.148-33.003,0-36.156h10.847v6.158
	c0-2.284,2.561-6.271,11.072-6.271c8.51,0,10.621,0.269,10.621,12.225C68.696,56.61,68.696,68.696,68.696,68.696z"/>
<path display="none" d="M43.387,0C19.425,0,0,19.425,0,43.387c0,23.962,19.425,43.387,43.388,43.387
	c23.962,0,43.387-19.425,43.387-43.387C86.774,19.425,67.349,0,43.387,0z M36.155,57.849h-7.231V47.002h7.231V57.849z
	 M47.002,61.465h-7.23v-3.615h7.23V61.465z M57.849,57.849h-7.231V47.002h7.231V57.849z M72.311,47.002
	c0,6.666-3.651,12.429-9.019,15.561c1.101-1.269,1.787-2.902,1.787-4.713v-7.231c0-3.99-3.24-7.23-7.23-7.23H28.924
	c-3.991,0-7.23,3.24-7.23,7.23v7.231c0,1.811,0.687,3.445,1.787,4.713c-5.367-3.132-9.019-8.895-9.019-15.561v-3.616
	c0-4.131,1.284-7.803,3.616-10.847V18.078l14.462,7.224l21.693,0.008l14.462-7.231L68.92,32.54
	c2.614,3.136,3.392,6.444,3.392,10.848V47.002z"/>
<path display="none" d="M43.387,0C19.424,0,0,19.425,0,43.387c0,23.962,19.424,43.387,43.388,43.387
	c23.961,0,43.387-19.425,43.387-43.387C86.774,19.425,67.348,0,43.387,0z M69.213,32.208c0.021,0.551,0.035,1.116,0.035,1.677
	c0,17.132-13.038,36.88-36.878,36.88c-7.321,0-14.134-2.146-19.868-5.826c1.019,0.12,2.047,0.184,3.093,0.184
	c6.069,0,11.659-2.069,16.097-5.547c-5.675-0.099-10.456-3.849-12.108-8.996c0.791,0.155,1.604,0.222,2.439,0.222
	c1.183,0,2.324-0.162,3.414-0.451c-5.935-1.188-10.398-6.427-10.398-12.711c0-0.061,0-0.104,0-0.159
	c1.746,0.968,3.744,1.557,5.871,1.613c-3.475-2.322-5.768-6.288-5.768-10.782c0-2.376,0.642-4.604,1.754-6.515
	c6.393,7.838,15.94,13,26.719,13.541c-0.224-0.954-0.335-1.938-0.335-2.959c0-7.152,5.804-12.955,12.962-12.955
	c3.727,0,7.097,1.571,9.461,4.093c2.949-0.583,5.723-1.66,8.23-3.149c-0.971,3.033-3.024,5.568-5.699,7.171
	c2.625-0.304,5.119-1.003,7.444-2.038C73.938,28.098,71.742,30.375,69.213,32.208z"/>
<g display="none">
	<path display="inline" d="M48.781,42.814c-2.73-1.44-5.815-2.158-9.246-2.158c-0.852,0-1.72,0.047-2.597,0.135
		c-2.966,0.294-5.649,1.041-8.058,2.244c-2.407,1.203-4.261,2.688-5.55,4.45c-1.118,1.554-1.673,3.153-1.673,4.798
		c0,0.26,0.018,0.522,0.048,0.789c0.292,2.964,2.123,5.324,5.503,7.085c2.695,1.44,5.766,2.156,9.2,2.156
		c0.851,0,1.732-0.045,2.64-0.133c4.492-0.44,8.234-1.864,11.229-4.271c2.703-2.201,4.049-4.622,4.049-7.264
		c0-0.263-0.013-0.529-0.043-0.787C53.991,46.92,52.155,44.575,48.781,42.814z M44.816,54.704c-0.909,2.083-2.513,3.613-4.8,4.579
		c-1.294,0.557-2.584,0.836-3.873,0.836c-0.998,0-1.982-0.154-2.949-0.48c-2.143-0.682-3.624-1.958-4.445-3.838
		c-0.383-0.851-0.572-1.711-0.572-2.597c0-1.027,0.264-2.053,0.791-3.083c0.911-1.876,2.435-3.282,4.579-4.224
		c1.319-0.589,2.656-0.877,4.002-0.877c0.797,0,1.592,0.104,2.378,0.308c2.235,0.591,3.83,1.791,4.805,3.615
		c0.499,0.938,0.748,1.903,0.748,2.899C45.479,52.784,45.251,53.734,44.816,54.704z"/>
	<path display="inline" d="M43.387,0C19.424,0,0,19.425,0,43.387c0,23.962,19.424,43.387,43.388,43.387
		c23.961,0,43.387-19.425,43.387-43.387C86.774,19.425,67.348,0,43.387,0z M61.812,55.297c-1.204,1.805-2.842,3.457-4.909,4.953
		c-2.064,1.496-4.683,2.729-7.838,3.697C45.91,64.919,42.558,65.4,39.007,65.4c-3.844,0-7.477-0.563-10.895-1.694
		c-3.422-1.135-6.26-2.817-8.517-5.065c-2.267-2.244-3.393-4.806-3.393-7.684c0-4.725,2.695-9.814,8.101-15.274
		c3.431-3.405,6.896-5.782,10.387-7.133c1.646-0.675,3.073-1.012,4.272-1.012c1.319,0,2.377,0.4,3.164,1.188
		c0.771,0.768,1.147,1.82,1.147,3.171c0,0.911-0.176,1.967-0.528,3.166c-0.116,0.415-0.073,0.673,0.133,0.773
		c0.206,0.104,0.438,0.11,0.705,0.021l0.438-0.176c2.817-1.174,5.312-1.761,7.481-1.761c2.172,0,3.729,0.617,4.665,1.85
		c0.438,0.645,0.667,1.408,0.667,2.289c0,0.909-0.236,1.952-0.705,3.125c-0.207,0.292-0.24,0.544-0.111,0.748
		c0.129,0.205,0.249,0.338,0.353,0.399c0.104,0.057,0.313,0.131,0.637,0.219c1.818,0.558,3.37,1.469,4.664,2.73
		c1.294,1.258,1.943,2.831,1.943,4.71C63.617,51.724,63.016,53.491,61.812,55.297z M58.694,33.483
		c-0.646-0.764-1.44-1.145-2.377-1.145c-0.297,0-0.589,0.03-0.882,0.083c-0.143,0.032-0.279,0.047-0.396,0.047
		c-0.322,0-0.632-0.101-0.924-0.307c-0.422-0.267-0.688-0.634-0.804-1.103c-0.026-0.146-0.043-0.296-0.043-0.44
		c0-0.294,0.086-0.602,0.266-0.924c0.259-0.415,0.646-0.679,1.146-0.793c0.559-0.116,1.1-0.176,1.629-0.176
		c1.965,0,3.653,0.779,5.061,2.337c0.852,0.965,1.41,2.064,1.672,3.302c0.09,0.499,0.139,0.979,0.139,1.449
		c0,0.705-0.12,1.412-0.354,2.112c-0.146,0.474-0.438,0.81-0.877,1.018c-0.267,0.144-0.524,0.219-0.791,0.219
		c-0.207,0-0.4-0.028-0.572-0.088c-0.473-0.148-0.824-0.44-1.058-0.881c-0.116-0.262-0.176-0.524-0.176-0.789
		c0-0.205,0.029-0.4,0.09-0.574c0.116-0.413,0.177-0.791,0.177-1.146C59.619,34.863,59.31,34.128,58.694,33.483z M69.864,40.174
		v0.043c-0.173,0.529-0.512,0.925-1.011,1.189c-0.322,0.146-0.646,0.224-0.968,0.224c-0.206,0-0.426-0.035-0.661-0.088
		c-0.556-0.176-0.955-0.514-1.188-1.012c-0.15-0.323-0.223-0.632-0.223-0.924c0-0.237,0.028-0.456,0.09-0.665v-0.043
		c0.322-1,0.486-2.025,0.486-3.083c0-0.675-0.062-1.377-0.178-2.113c-0.383-1.816-1.204-3.418-2.468-4.798
		c-1.26-1.378-2.76-2.348-4.488-2.906c-1.026-0.292-2.055-0.437-3.082-0.437c-0.7,0-1.424,0.068-2.153,0.219
		c-0.146,0.028-0.297,0.043-0.443,0.043c-0.408,0-0.791-0.116-1.143-0.348c-0.475-0.331-0.767-0.771-0.883-1.329
		c-0.029-0.145-0.048-0.292-0.048-0.44c0-0.38,0.121-0.748,0.354-1.101c0.296-0.47,0.718-0.778,1.275-0.924
		c0.997-0.204,1.995-0.309,2.992-0.309c1.496,0,2.962,0.219,4.402,0.66c2.434,0.793,4.536,2.158,6.294,4.095
		c1.759,1.938,2.902,4.18,3.436,6.737c0.201,1.028,0.311,2.025,0.311,2.995C70.569,37.356,70.337,38.794,69.864,40.174z"/>
	<path display="inline" d="M39.093,50.121c-0.267-0.088-0.551-0.075-0.859,0.026c-0.311,0.104-0.537,0.288-0.685,0.552
		c-0.09,0.176-0.133,0.351-0.133,0.525v0.262h0.004c0.092,0.265,0.279,0.456,0.572,0.576c0.146,0.056,0.283,0.09,0.421,0.09
		c0.129,0,0.271-0.034,0.413-0.09c0.322-0.12,0.559-0.312,0.705-0.576c0.15-0.262,0.176-0.524,0.09-0.787
		C39.531,50.435,39.354,50.243,39.093,50.121z"/>
	<path display="inline" d="M35.657,51.569c-0.382-0.143-0.77-0.219-1.147-0.219c-0.353,0-0.723,0.054-1.101,0.176
		c-0.791,0.265-1.396,0.732-1.806,1.408c-0.322,0.469-0.486,0.958-0.486,1.453c0.009,0.21,0.039,0.399,0.095,0.577
		c0.178,0.733,0.619,1.247,1.324,1.539c0.383,0.177,0.778,0.266,1.191,0.266c0.348,0,0.699-0.062,1.053-0.178
		c0.821-0.264,1.453-0.748,1.892-1.452c0.293-0.469,0.443-0.938,0.443-1.41c0-0.202-0.048-0.424-0.138-0.658
		C36.801,52.367,36.358,51.864,35.657,51.569z"/>
</g>
<g display="none">
	<path display="inline" d="M43.387,0C19.426,0,0,19.425,0,43.387c0,23.962,19.426,43.387,43.388,43.387
		c23.963,0,43.387-19.425,43.387-43.387C86.774,19.425,67.35,0,43.387,0z M53.104,48.584c0.297,0.394,0.78,0.579,1.473,0.579
		c1.592,0,3.256-1.112,4.947-3.309c1.735-2.261,2.619-5.324,2.619-9.105c0-5.618-2.34-9.537-7.156-11.982
		c-3.041-1.562-6.516-2.346-10.32-2.346c-7.01,0-12.715,2.164-16.953,6.434c-3.805,3.853-5.735,8.534-5.735,13.915
		c0,5.964,2.252,10.759,6.696,14.235c3.97,3.104,8.886,4.676,14.617,4.676c3.931,0,7.656-0.73,11.074-2.179
		c1.859-0.767,3.812-1.872,5.814-3.28l1.377-0.98l3.106,4.77l-0.524,0.41c-3.08,2.384-6.455,4.224-10.043,5.465
		c-3.591,1.25-7.365,1.887-11.222,1.887c-9.024,0-16.121-2.86-21.104-8.499c-4.135-4.674-6.229-10.292-6.229-16.689
		c0-7.164,2.619-13.326,7.771-18.304c5.401-5.247,12.403-7.909,20.811-7.909c6.854,0,12.619,1.829,17.14,5.435
		c4.809,3.838,7.247,9,7.247,15.342c0,4.987-1.545,9.335-4.59,12.919c-3.071,3.619-6.647,5.455-10.623,5.455
		c-2.157,0-3.854-0.64-5.049-1.887c-0.812-0.847-1.35-1.732-1.604-2.646c-0.517,0.71-1.058,1.331-1.625,1.854
		c-1.935,1.763-4.297,2.651-7.008,2.651c-2.783,0-5.128-1.014-6.978-3.019c-1.836-1.979-2.77-4.753-2.77-8.26
		c0-4,1.377-7.8,4.086-11.283c2.758-3.542,6.198-5.335,10.231-5.335c2.431,0,4.357,0.694,5.728,2.064
		c0.459,0.47,0.856,1.285,1.196,1.79l0.777-2.521h7.551L53.48,43.633c-0.248,0.864-0.439,1.466-0.576,2.021
		c0,0-0.289,1.221-0.289,1.585C52.621,47.733,52.783,48.157,53.104,48.584z"/>
	<g display="inline">
		<ellipse transform="matrix(0.4695 -0.8829 0.8829 0.4695 -14.7464 57.7363)" cx="40.672" cy="41.139" rx="8.001" ry="5.498"/>
	</g>
</g>
<g>
	<path fill="#FFFFFF" d="M54.041,23.226c-1.093-1.693-2.5-3.061-4.221-4.1c-1.721-1.037-3.812-1.557-6.271-1.557
		s-4.562,0.506-6.311,1.517c-1.75,1.012-3.196,2.335-4.344,3.976c-1.147,1.639-1.981,3.511-2.5,5.613
		c-0.521,2.104-0.779,4.248-0.779,6.435c0,2.131,0.273,4.207,0.82,6.229c0.545,2.021,1.393,3.812,2.541,5.368
		c1.146,1.558,2.594,2.814,4.344,3.771c1.748,0.957,3.824,1.435,6.229,1.435c2.24,0,4.207-0.478,5.901-1.435
		c1.693-0.955,3.114-2.213,4.262-3.771s2.009-3.347,2.582-5.368c0.574-2.021,0.861-4.098,0.861-6.229
		c0-2.076-0.246-4.152-0.738-6.229C55.926,26.805,55.133,24.919,54.041,23.226z"/>
	<path fill="#FFFFFF" d="M43.387,0C19.426,0,0,19.426,0,43.387C0,67.35,19.426,86.773,43.387,86.773
		c23.963,0,43.387-19.424,43.387-43.388C86.773,19.426,67.35,0,43.387,0z M62.318,53.302c0,3.115-0.342,5.929-1.024,8.442
		c-0.684,2.512-1.762,4.644-3.236,6.394c-1.476,1.747-3.401,3.086-5.778,4.016c-2.377,0.929-5.286,1.394-8.729,1.394
		c-2.131,0-4.208-0.246-6.229-0.737c-2.022-0.491-3.839-1.258-5.45-2.295c-1.612-1.038-2.951-2.363-4.016-3.976
		c-1.065-1.612-1.681-3.538-1.844-5.777h5.162c0.273,1.585,0.807,2.909,1.599,3.976c0.792,1.064,1.748,1.926,2.869,2.581
		c1.118,0.656,2.362,1.134,3.729,1.435c1.365,0.301,2.758,0.451,4.18,0.451c4.808,0,8.278-1.367,10.409-4.099
		c2.131-2.732,3.196-6.666,3.196-11.802v-5.736h-0.164c-1.203,2.622-2.964,4.727-5.286,6.311c-2.323,1.585-5.041,2.377-8.155,2.377
		c-3.388,0-6.283-0.56-8.688-1.681c-2.405-1.119-4.385-2.663-5.942-4.63c-1.557-1.968-2.69-4.274-3.4-6.926
		c-0.711-2.649-1.065-5.478-1.065-8.482c0-2.896,0.422-5.641,1.271-8.236c0.847-2.595,2.075-4.861,3.688-6.803
		c1.611-1.938,3.606-3.469,5.983-4.59c2.377-1.119,5.094-1.68,8.154-1.68c1.584,0,3.073,0.219,4.468,0.654
		c1.393,0.438,2.664,1.054,3.811,1.846c1.147,0.792,2.171,1.708,3.073,2.745c0.9,1.039,1.598,2.131,2.09,3.277h0.164v-7.294h5.163
		V53.302z"/>
</g>
</svg>
