<?xml version="1.0" encoding="utf-8"?>
<!-- Generator: Adobe Illustrator 15.1.0, SVG Export Plug-In . SVG Version: 6.00 Build 0)  -->
<!DOCTYPE svg PUBLIC "-//W3C//DTD SVG 1.1//EN" "http://www.w3.org/Graphics/SVG/1.1/DTD/svg11.dtd">
<svg version="1.1" id="Calque_1" xmlns="http://www.w3.org/2000/svg" xmlns:xlink="http://www.w3.org/1999/xlink" x="0px" y="0px"
	 width="86.773px" height="86.773px" viewBox="0 0 86.773 86.773" enable-background="new 0 0 86.773 86.773" xml:space="preserve">
<g id="Calque_1_1_" display="none">
	<path display="inline" d="M43.387,0C19.425,0,0,19.426,0,43.387C0,67.35,19.425,86.773,43.387,86.773
		c23.962,0,43.387-19.423,43.387-43.386C86.774,19.426,67.349,0,43.387,0z M40.88,46.981l-8.34,8.375V45.131l-0.097,0.064
		l-10.75-12.654h-7.23l18.078-18.078v7.23l12.65,10.752l-0.062,0.096h10.223l-8.595,8.572l20.176,25.811L40.88,46.981z"/>
	<path display="inline" d="M43.387,0C19.424,0,0,19.425,0,43.387c0,23.962,19.424,43.387,43.388,43.387
		c23.961,0,43.387-19.425,43.387-43.387C86.774,19.425,67.348,0,43.387,0z M22.35,72.24c-4.356,0-7.888-3.53-7.888-7.888
		c0-4.354,3.529-7.886,7.888-7.886c4.351,0,7.894,3.53,7.894,7.886C30.238,68.713,26.699,72.24,22.35,72.24z M42.133,72.314v-0.003
		c0-7.438-2.885-14.441-8.108-19.695c-5.219-5.247-12.129-8.139-19.562-8.139V33.094c21.063,0,39.058,18.151,39.058,39.222
		L42.133,72.314L42.133,72.314z M62.248,72.314v-0.003c0-26.479-21.765-48.021-47.785-48.021V12.91
		c32.216,0,59.168,26.647,59.168,59.402L62.248,72.314L62.248,72.314z"/>
	<path display="inline" d="M43.387,0C19.425,0,0,19.425,0,43.387c0,23.962,19.425,43.387,43.388,43.387
		c23.962,0,43.387-19.425,43.387-43.387C86.774,19.425,67.349,0,43.387,0z M28.925,68.696h-0.47H18.079V32.54h10.847L28.925,68.696
		L28.925,68.696z M23.502,27.625c-3.65,0-6.609-2.956-6.609-6.608c0-3.651,2.959-6.606,6.609-6.606c3.649,0,6.608,2.956,6.608,6.606
		C30.112,24.67,27.153,27.625,23.502,27.625z M68.697,68.696H57.85V49.559c0-4.518-1.926-7.597-5.964-7.597
		c-3.087,0-3.707,2.076-4.517,4.082c-0.297,0.719-0.367,1.722-0.367,2.724v19.928H36.157c0,0,0.147-33.003,0-36.156h10.847v6.158
		c0-2.284,2.561-6.271,11.072-6.271c8.51,0,10.62,0.27,10.62,12.226C68.697,56.61,68.697,68.696,68.697,68.696z"/>
	<path display="inline" d="M43.387,0C19.425,0,0,19.425,0,43.387c0,23.962,19.425,43.387,43.388,43.387
		c23.962,0,43.387-19.425,43.387-43.387C86.774,19.425,67.349,0,43.387,0z M36.155,57.849h-7.23V47.002h7.23V57.849z M47.002,61.465
		h-7.23V57.85h7.23V61.465z M57.849,57.849h-7.23V47.002h7.23V57.849z M72.311,47.002c0,6.666-3.65,12.43-9.019,15.562
		c1.101-1.27,1.787-2.902,1.787-4.713v-7.231c0-3.99-3.24-7.229-7.23-7.229H28.924c-3.991,0-7.23,3.239-7.23,7.229v7.231
		c0,1.811,0.688,3.444,1.787,4.713c-5.367-3.132-9.019-8.896-9.019-15.562v-3.616c0-4.131,1.284-7.803,3.616-10.847V18.078
		l14.462,7.224l21.692,0.009l14.462-7.231L68.92,32.54c2.614,3.136,3.392,6.444,3.392,10.849V47.002z"/>
	<path display="inline" d="M43.387,0C19.424,0,0,19.425,0,43.387c0,23.962,19.424,43.387,43.388,43.387
		c23.961,0,43.387-19.425,43.387-43.387C86.774,19.425,67.348,0,43.387,0z M69.213,32.208c0.021,0.551,0.035,1.116,0.035,1.677
		c0,17.133-13.038,36.881-36.878,36.881c-7.321,0-14.135-2.146-19.868-5.826c1.019,0.12,2.047,0.184,3.093,0.184
		c6.069,0,11.659-2.068,16.097-5.547c-5.675-0.099-10.456-3.849-12.107-8.996c0.791,0.155,1.604,0.222,2.438,0.222
		c1.184,0,2.324-0.161,3.414-0.45c-5.935-1.188-10.397-6.428-10.397-12.711c0-0.062,0-0.104,0-0.159
		c1.746,0.968,3.744,1.557,5.871,1.612c-3.476-2.321-5.769-6.287-5.769-10.781c0-2.376,0.643-4.604,1.754-6.516
		c6.394,7.838,15.94,13,26.719,13.541c-0.224-0.954-0.335-1.938-0.335-2.959c0-7.151,5.805-12.955,12.963-12.955
		c3.727,0,7.097,1.571,9.461,4.094c2.948-0.583,5.723-1.66,8.229-3.149c-0.971,3.033-3.023,5.568-5.699,7.171
		c2.625-0.304,5.119-1.003,7.445-2.038C73.938,28.098,71.742,30.375,69.213,32.208z"/>
	<g display="inline">
		<path d="M48.781,42.814c-2.73-1.44-5.815-2.158-9.246-2.158c-0.853,0-1.721,0.047-2.598,0.135
			c-2.966,0.294-5.648,1.041-8.058,2.244c-2.408,1.203-4.261,2.688-5.55,4.45c-1.118,1.554-1.673,3.153-1.673,4.798
			c0,0.26,0.018,0.522,0.048,0.789c0.292,2.964,2.123,5.324,5.503,7.085c2.694,1.44,5.766,2.156,9.2,2.156
			c0.851,0,1.731-0.045,2.64-0.133c4.492-0.44,8.234-1.864,11.229-4.271c2.703-2.201,4.05-4.622,4.05-7.264
			c0-0.264-0.014-0.529-0.043-0.787C53.991,46.92,52.155,44.575,48.781,42.814z M44.816,54.704c-0.908,2.083-2.513,3.613-4.8,4.579
			c-1.294,0.557-2.584,0.836-3.873,0.836c-0.998,0-1.981-0.154-2.949-0.479c-2.143-0.683-3.624-1.958-4.444-3.839
			c-0.383-0.851-0.571-1.711-0.571-2.597c0-1.027,0.263-2.053,0.79-3.083c0.911-1.876,2.435-3.282,4.579-4.224
			c1.319-0.589,2.656-0.877,4.002-0.877c0.797,0,1.592,0.104,2.379,0.308c2.234,0.591,3.829,1.791,4.804,3.615
			c0.499,0.938,0.748,1.903,0.748,2.898C45.479,52.784,45.251,53.734,44.816,54.704z"/>
		<path d="M43.387,0C19.424,0,0,19.425,0,43.387c0,23.962,19.424,43.387,43.388,43.387c23.961,0,43.387-19.425,43.387-43.387
			C86.774,19.425,67.348,0,43.387,0z M61.812,55.297c-1.204,1.806-2.842,3.457-4.909,4.953c-2.063,1.496-4.683,2.729-7.838,3.697
			C45.91,64.919,42.558,65.4,39.007,65.4c-3.844,0-7.478-0.563-10.896-1.694c-3.422-1.135-6.26-2.816-8.518-5.064
			c-2.266-2.244-3.392-4.807-3.392-7.685c0-4.725,2.694-9.813,8.1-15.273c3.432-3.405,6.896-5.782,10.388-7.134
			c1.646-0.675,3.073-1.012,4.272-1.012c1.319,0,2.377,0.4,3.164,1.188c0.771,0.768,1.146,1.819,1.146,3.171
			c0,0.911-0.176,1.967-0.527,3.166c-0.116,0.415-0.073,0.673,0.133,0.772c0.206,0.104,0.438,0.11,0.705,0.021l0.438-0.176
			c2.817-1.175,5.312-1.762,7.481-1.762c2.172,0,3.729,0.617,4.665,1.851c0.438,0.645,0.667,1.407,0.667,2.289
			c0,0.908-0.236,1.951-0.705,3.125c-0.207,0.292-0.24,0.544-0.111,0.748c0.129,0.205,0.249,0.338,0.354,0.398
			c0.104,0.058,0.312,0.131,0.637,0.219c1.818,0.559,3.37,1.47,4.664,2.73c1.294,1.258,1.943,2.831,1.943,4.71
			C63.617,51.724,63.016,53.491,61.812,55.297z M58.694,33.483c-0.646-0.765-1.439-1.146-2.377-1.146
			c-0.297,0-0.589,0.03-0.882,0.083c-0.143,0.032-0.278,0.047-0.396,0.047c-0.322,0-0.632-0.101-0.924-0.307
			c-0.423-0.267-0.688-0.634-0.805-1.103c-0.025-0.146-0.043-0.296-0.043-0.44c0-0.294,0.086-0.602,0.267-0.924
			c0.259-0.415,0.646-0.679,1.146-0.793c0.559-0.116,1.1-0.176,1.629-0.176c1.965,0,3.653,0.778,5.062,2.337
			c0.852,0.965,1.409,2.063,1.672,3.302c0.09,0.499,0.139,0.979,0.139,1.449c0,0.705-0.12,1.412-0.354,2.111
			c-0.146,0.475-0.438,0.811-0.877,1.019c-0.268,0.144-0.524,0.219-0.791,0.219c-0.207,0-0.4-0.028-0.572-0.088
			c-0.474-0.148-0.824-0.44-1.059-0.881c-0.115-0.262-0.176-0.524-0.176-0.789c0-0.205,0.029-0.4,0.09-0.574
			c0.116-0.413,0.178-0.791,0.178-1.146C59.619,34.863,59.31,34.128,58.694,33.483z M69.865,40.174v0.043
			c-0.174,0.529-0.513,0.926-1.012,1.189c-0.321,0.146-0.646,0.224-0.968,0.224c-0.206,0-0.426-0.035-0.661-0.088
			c-0.556-0.176-0.955-0.514-1.188-1.012c-0.15-0.323-0.224-0.632-0.224-0.924c0-0.237,0.028-0.456,0.09-0.665v-0.043
			c0.322-1,0.486-2.025,0.486-3.083c0-0.675-0.062-1.377-0.178-2.113c-0.383-1.816-1.204-3.418-2.468-4.798
			c-1.261-1.378-2.761-2.348-4.488-2.906c-1.026-0.292-2.055-0.437-3.082-0.437c-0.7,0-1.424,0.067-2.153,0.219
			c-0.146,0.028-0.297,0.043-0.442,0.043c-0.408,0-0.791-0.116-1.144-0.348c-0.475-0.331-0.767-0.771-0.883-1.329
			c-0.029-0.146-0.048-0.292-0.048-0.44c0-0.38,0.121-0.748,0.354-1.101c0.296-0.471,0.719-0.778,1.275-0.924
			c0.997-0.204,1.995-0.31,2.992-0.31c1.496,0,2.962,0.219,4.401,0.66c2.435,0.793,4.536,2.158,6.294,4.095
			c1.76,1.938,2.902,4.181,3.437,6.737c0.201,1.028,0.311,2.025,0.311,2.995C70.569,37.356,70.337,38.794,69.865,40.174z"/>
		<path d="M39.093,50.121c-0.267-0.088-0.551-0.075-0.859,0.026c-0.311,0.104-0.537,0.288-0.685,0.552
			c-0.09,0.176-0.133,0.351-0.133,0.525v0.262h0.004c0.092,0.265,0.279,0.456,0.572,0.576c0.146,0.056,0.282,0.09,0.421,0.09
			c0.129,0,0.271-0.034,0.413-0.09c0.321-0.12,0.559-0.312,0.705-0.576c0.149-0.262,0.176-0.524,0.09-0.787
			C39.531,50.435,39.354,50.243,39.093,50.121z"/>
		<path d="M35.657,51.569c-0.383-0.144-0.771-0.219-1.147-0.219c-0.353,0-0.723,0.054-1.101,0.176
			c-0.791,0.265-1.396,0.731-1.807,1.408c-0.321,0.469-0.485,0.958-0.485,1.453c0.009,0.21,0.039,0.398,0.095,0.576
			c0.178,0.733,0.619,1.247,1.324,1.539c0.383,0.178,0.777,0.267,1.19,0.267c0.349,0,0.699-0.062,1.053-0.179
			c0.821-0.264,1.453-0.748,1.893-1.451c0.293-0.47,0.443-0.938,0.443-1.41c0-0.202-0.049-0.424-0.139-0.658
			C36.801,52.367,36.358,51.864,35.657,51.569z"/>
	</g>
	<g display="inline">
		<path d="M43.388,0C19.427,0,0.001,19.425,0.001,43.387c0,23.962,19.426,43.387,43.388,43.387
			c23.963,0,43.387-19.425,43.387-43.387C86.775,19.425,67.351,0,43.388,0z M53.104,48.584c0.297,0.395,0.78,0.579,1.474,0.579
			c1.592,0,3.256-1.112,4.946-3.309c1.735-2.262,2.619-5.324,2.619-9.105c0-5.618-2.34-9.537-7.156-11.981
			c-3.041-1.562-6.516-2.347-10.319-2.347c-7.01,0-12.715,2.164-16.953,6.435c-3.805,3.853-5.735,8.534-5.735,13.915
			c0,5.964,2.252,10.759,6.696,14.234c3.97,3.104,8.886,4.677,14.617,4.677c3.931,0,7.656-0.73,11.074-2.18
			c1.858-0.767,3.812-1.872,5.813-3.279l1.377-0.98l3.106,4.771l-0.524,0.409c-3.08,2.385-6.455,4.225-10.043,5.465
			c-3.591,1.25-7.365,1.888-11.222,1.888c-9.024,0-16.121-2.86-21.104-8.499c-4.135-4.674-6.229-10.292-6.229-16.689
			c0-7.164,2.619-13.326,7.771-18.304c5.401-5.247,12.403-7.909,20.812-7.909c6.854,0,12.619,1.829,17.14,5.436
			c4.809,3.838,7.248,9,7.248,15.342c0,4.986-1.546,9.335-4.591,12.919c-3.071,3.619-6.647,5.455-10.623,5.455
			c-2.157,0-3.854-0.641-5.049-1.888c-0.812-0.847-1.351-1.731-1.604-2.646c-0.517,0.71-1.058,1.331-1.625,1.854
			c-1.935,1.764-4.297,2.651-7.008,2.651c-2.783,0-5.127-1.014-6.978-3.019c-1.836-1.979-2.771-4.753-2.771-8.261
			c0-4,1.377-7.8,4.086-11.282c2.758-3.542,6.198-5.335,10.231-5.335c2.431,0,4.356,0.693,5.728,2.063
			c0.459,0.47,0.856,1.285,1.196,1.79l0.777-2.521h7.551l-4.354,14.7c-0.248,0.864-0.438,1.467-0.576,2.021
			c0,0-0.288,1.221-0.288,1.585C52.622,47.733,52.784,48.157,53.104,48.584z"/>
		<g>
			<ellipse transform="matrix(-0.8829 -0.4695 0.4695 -0.8829 57.2648 96.5612)" cx="40.672" cy="41.141" rx="5.498" ry="8.002"/>
		</g>
	</g>
	<g display="inline">
		<path d="M54.042,23.226c-1.093-1.693-2.5-3.062-4.222-4.101c-1.721-1.037-3.812-1.557-6.271-1.557s-4.562,0.506-6.311,1.517
			c-1.75,1.013-3.196,2.335-4.345,3.977c-1.146,1.639-1.98,3.511-2.5,5.612c-0.521,2.104-0.778,4.248-0.778,6.436
			c0,2.131,0.272,4.207,0.819,6.229c0.545,2.021,1.394,3.812,2.541,5.368c1.146,1.559,2.594,2.814,4.344,3.771
			c1.748,0.957,3.824,1.435,6.229,1.435c2.24,0,4.207-0.478,5.901-1.435c1.692-0.955,3.113-2.213,4.262-3.771
			c1.146-1.558,2.009-3.347,2.582-5.368c0.574-2.021,0.861-4.098,0.861-6.229c0-2.076-0.246-4.152-0.738-6.229
			C55.927,26.805,55.134,24.919,54.042,23.226z"/>
		<path d="M43.388,0C19.427,0,0.001,19.426,0.001,43.387c0,23.963,19.426,43.387,43.388,43.387
			c23.963,0,43.387-19.424,43.387-43.387C86.774,19.426,67.351,0,43.388,0z M62.319,53.302c0,3.115-0.342,5.93-1.023,8.442
			c-0.685,2.512-1.762,4.645-3.236,6.395c-1.476,1.746-3.4,3.086-5.778,4.016c-2.377,0.929-5.285,1.394-8.729,1.394
			c-2.131,0-4.208-0.246-6.229-0.736c-2.021-0.491-3.839-1.259-5.449-2.295c-1.611-1.038-2.951-2.363-4.017-3.977
			c-1.064-1.612-1.681-3.538-1.844-5.776h5.162c0.273,1.585,0.807,2.908,1.599,3.976c0.792,1.063,1.748,1.926,2.869,2.581
			c1.119,0.656,2.362,1.134,3.729,1.435c1.364,0.302,2.758,0.451,4.18,0.451c4.808,0,8.278-1.367,10.409-4.099
			c2.131-2.732,3.196-6.666,3.196-11.802v-5.736h-0.164c-1.203,2.622-2.965,4.727-5.286,6.311c-2.323,1.585-5.041,2.377-8.155,2.377
			c-3.388,0-6.283-0.56-8.688-1.681c-2.404-1.119-4.385-2.663-5.941-4.63c-1.558-1.968-2.69-4.274-3.4-6.926
			c-0.711-2.649-1.064-5.479-1.064-8.482c0-2.896,0.422-5.641,1.271-8.236c0.847-2.595,2.076-4.86,3.688-6.803
			c1.61-1.938,3.605-3.469,5.982-4.59c2.377-1.119,5.095-1.68,8.155-1.68c1.584,0,3.072,0.219,4.467,0.653
			c1.394,0.438,2.664,1.055,3.812,1.847c1.146,0.792,2.171,1.708,3.072,2.745c0.901,1.039,1.599,2.131,2.091,3.276h0.164v-7.294
			h5.162v38.845H62.319z"/>
	</g>
	<path display="inline" fill="#E42127" d="M43.387,0C19.425,0,0,19.426,0,43.385c0,23.965,19.425,43.389,43.388,43.389
		c23.962,0,43.387-19.424,43.387-43.389C86.773,19.426,67.349,0,43.387,0z M40.88,46.982l-8.34,8.375V45.13l-0.097,0.064
		l-10.75-12.653h-7.23L32.54,14.463v7.23l12.65,10.751L45.13,32.54h10.223l-8.595,8.572l20.176,25.811L40.88,46.982z"/>
	<path display="inline" fill="#E42127" d="M43.387,0C19.424,0,0,19.425,0,43.385c0,23.965,19.424,43.389,43.388,43.389
		c23.961,0,43.387-19.424,43.387-43.389C86.773,19.425,67.348,0,43.387,0z M22.35,72.24c-4.356,0-7.888-3.529-7.888-7.887
		c0-4.354,3.529-7.887,7.888-7.887c4.351,0,7.894,3.531,7.894,7.887C30.238,68.712,26.699,72.24,22.35,72.24z M42.133,72.314v-0.002
		c0-7.438-2.885-14.441-8.108-19.695c-5.219-5.248-12.129-8.139-19.562-8.139V33.094c21.063,0,39.058,18.15,39.058,39.221H42.133z
		 M62.248,72.314v-0.002c0-26.479-21.765-48.021-47.785-48.021v-11.38c32.216,0,59.168,26.648,59.168,59.402L62.248,72.314
		L62.248,72.314z"/>
	<path display="inline" fill="#E42127" d="M43.387,0C19.425,0,0,19.425,0,43.385c0,23.965,19.425,43.389,43.388,43.389
		c23.962,0,43.387-19.424,43.387-43.389C86.773,19.425,67.349,0,43.387,0z M28.925,68.696h-0.47H18.078V32.541h10.847V68.696z
		 M23.502,27.625c-3.65,0-6.609-2.956-6.609-6.608c0-3.651,2.959-6.606,6.609-6.606c3.649,0,6.608,2.956,6.608,6.606
		C30.111,24.669,27.152,27.625,23.502,27.625z M68.696,68.696H57.85V49.558c0-4.518-1.926-7.596-5.964-7.596
		c-3.087,0-3.707,2.076-4.517,4.081c-0.297,0.719-0.367,1.722-0.367,2.724v19.929H36.156c0,0,0.147-33.003,0-36.155h10.847v6.157
		c0-2.284,2.561-6.271,11.072-6.271c8.51,0,10.62,0.27,10.62,12.226C68.696,56.61,68.696,68.696,68.696,68.696z"/>
	<path display="inline" fill="#E42127" d="M43.387,0C19.425,0,0,19.425,0,43.385c0,23.965,19.425,43.389,43.388,43.389
		c23.962,0,43.387-19.424,43.387-43.389C86.773,19.425,67.349,0,43.387,0z M36.155,57.849h-7.23V47.002h7.23V57.849z M47.002,61.464
		h-7.23V57.85h7.23V61.464z M57.849,57.849h-7.23V47.002h7.23V57.849z M72.311,47.002c0,6.666-3.65,12.431-9.019,15.562
		c1.101-1.27,1.787-2.902,1.787-4.713v-7.23c0-3.99-3.24-7.23-7.23-7.23H28.924c-3.991,0-7.23,3.24-7.23,7.23v7.23
		c0,1.811,0.688,3.443,1.787,4.713c-5.367-3.131-9.019-8.896-9.019-15.562v-3.616c0-4.131,1.284-7.803,3.616-10.846V18.078
		l14.462,7.224l21.692,0.009l14.462-7.231L68.92,32.54c2.614,3.135,3.392,6.443,3.392,10.846V47.002z"/>
	<path display="inline" fill="#E42127" d="M43.387,0C19.424,0,0,19.425,0,43.385c0,23.965,19.424,43.389,43.388,43.389
		c23.961,0,43.387-19.424,43.387-43.389C86.773,19.425,67.348,0,43.387,0z M69.213,32.208c0.021,0.551,0.035,1.115,0.035,1.677
		c0,17.134-13.038,36.882-36.878,36.882c-7.321,0-14.135-2.146-19.868-5.826c1.019,0.119,2.047,0.184,3.093,0.184
		c6.069,0,11.659-2.067,16.097-5.547c-5.675-0.1-10.456-3.85-12.107-8.996c0.791,0.154,1.604,0.222,2.438,0.222
		c1.184,0,2.324-0.161,3.414-0.45c-5.935-1.188-10.397-6.428-10.397-12.711c0-0.062,0-0.104,0-0.158
		c1.746,0.967,3.744,1.557,5.871,1.611c-3.476-2.321-5.769-6.287-5.769-10.781c0-2.377,0.643-4.604,1.754-6.516
		c6.394,7.838,15.94,13,26.719,13.541c-0.224-0.954-0.335-1.938-0.335-2.959c0-7.151,5.805-12.955,12.963-12.955
		c3.727,0,7.097,1.571,9.461,4.094c2.948-0.582,5.723-1.66,8.229-3.149c-0.971,3.032-3.023,5.567-5.699,7.171
		c2.625-0.303,5.119-1.002,7.445-2.037C73.938,28.098,71.742,30.375,69.213,32.208z"/>
	<g display="inline">
		<path fill="#E42127" d="M48.781,42.814c-2.73-1.439-5.815-2.158-9.246-2.158c-0.853,0-1.721,0.047-2.598,0.136
			c-2.966,0.294-5.648,1.04-8.058,2.244c-2.408,1.204-4.261,2.688-5.55,4.45c-1.118,1.554-1.673,3.152-1.673,4.797
			c0,0.26,0.018,0.523,0.048,0.789c0.292,2.965,2.123,5.324,5.503,7.086c2.694,1.439,5.766,2.155,9.2,2.155
			c0.851,0,1.731-0.045,2.64-0.134c4.492-0.439,8.234-1.863,11.229-4.271c2.703-2.201,4.05-4.622,4.05-7.264
			c0-0.265-0.014-0.528-0.043-0.786C53.991,46.919,52.155,44.575,48.781,42.814z M44.816,54.704c-0.908,2.083-2.513,3.613-4.8,4.579
			c-1.294,0.557-2.584,0.836-3.873,0.836c-0.998,0-1.981-0.154-2.949-0.48c-2.143-0.683-3.624-1.957-4.444-3.838
			c-0.383-0.852-0.571-1.711-0.571-2.598c0-1.027,0.263-2.053,0.79-3.082c0.911-1.877,2.435-3.282,4.579-4.225
			c1.319-0.588,2.656-0.877,4.002-0.877c0.797,0,1.592,0.104,2.379,0.309c2.234,0.59,3.829,1.79,4.804,3.615
			c0.499,0.938,0.748,1.9,0.748,2.897C45.479,52.785,45.251,53.734,44.816,54.704z"/>
		<path fill="#E42127" d="M43.387,0C19.424,0,0,19.425,0,43.385c0,23.965,19.424,43.389,43.388,43.389
			c23.961,0,43.387-19.424,43.387-43.389C86.773,19.425,67.348,0,43.387,0z M61.812,55.296c-1.204,1.807-2.842,3.457-4.909,4.953
			c-2.063,1.496-4.683,2.729-7.838,3.697c-3.154,0.972-6.507,1.453-10.059,1.453c-3.844,0-7.478-0.562-10.896-1.693
			c-3.422-1.135-6.26-2.816-8.518-5.064c-2.266-2.244-3.392-4.807-3.392-7.686c0-4.725,2.694-9.812,8.1-15.273
			c3.432-3.404,6.896-5.781,10.388-7.134c1.646-0.675,3.073-1.013,4.272-1.013c1.319,0,2.377,0.4,3.164,1.189
			c0.771,0.768,1.146,1.818,1.146,3.17c0,0.912-0.176,1.967-0.527,3.166c-0.116,0.416-0.073,0.674,0.133,0.772
			c0.206,0.104,0.438,0.11,0.705,0.021l0.438-0.178c2.817-1.174,5.312-1.761,7.481-1.761c2.172,0,3.729,0.617,4.665,1.851
			c0.438,0.646,0.667,1.405,0.667,2.289c0,0.907-0.236,1.95-0.705,3.126c-0.207,0.292-0.24,0.543-0.111,0.748
			c0.129,0.202,0.249,0.338,0.354,0.397c0.104,0.056,0.312,0.132,0.637,0.22c1.818,0.559,3.37,1.47,4.664,2.729
			c1.294,1.258,1.943,2.831,1.943,4.71C63.617,51.724,63.016,53.492,61.812,55.296z M58.694,33.483
			c-0.646-0.765-1.439-1.146-2.377-1.146c-0.297,0-0.589,0.029-0.882,0.084c-0.143,0.031-0.278,0.047-0.396,0.047
			c-0.322,0-0.632-0.102-0.924-0.307c-0.423-0.268-0.688-0.635-0.805-1.104c-0.025-0.146-0.043-0.298-0.043-0.44
			c0-0.294,0.086-0.603,0.267-0.925c0.259-0.414,0.646-0.679,1.146-0.793c0.559-0.115,1.1-0.176,1.629-0.176
			c1.965,0,3.653,0.777,5.062,2.336c0.852,0.965,1.409,2.064,1.672,3.303c0.09,0.498,0.139,0.979,0.139,1.448
			c0,0.705-0.12,1.412-0.354,2.11c-0.146,0.476-0.438,0.811-0.877,1.02c-0.268,0.145-0.524,0.219-0.791,0.219
			c-0.207,0-0.4-0.027-0.572-0.088c-0.474-0.148-0.824-0.44-1.059-0.881c-0.115-0.264-0.176-0.525-0.176-0.789
			c0-0.205,0.029-0.4,0.09-0.574c0.116-0.412,0.178-0.791,0.178-1.146C59.619,34.863,59.31,34.128,58.694,33.483z M69.865,40.174
			v0.043c-0.174,0.528-0.513,0.927-1.012,1.188c-0.321,0.146-0.646,0.225-0.968,0.225c-0.206,0-0.426-0.035-0.661-0.089
			c-0.556-0.177-0.955-0.514-1.188-1.013c-0.15-0.322-0.224-0.631-0.224-0.924c0-0.236,0.028-0.456,0.09-0.664v-0.043
			c0.322-1,0.486-2.025,0.486-3.083c0-0.675-0.062-1.378-0.178-2.112c-0.383-1.816-1.204-3.418-2.468-4.799
			c-1.261-1.377-2.761-2.348-4.488-2.906c-1.026-0.292-2.055-0.436-3.082-0.436c-0.7,0-1.424,0.066-2.153,0.219
			c-0.146,0.027-0.297,0.043-0.442,0.043c-0.408,0-0.791-0.115-1.144-0.348c-0.475-0.332-0.767-0.771-0.883-1.329
			c-0.029-0.146-0.048-0.292-0.048-0.44c0-0.381,0.121-0.748,0.354-1.101c0.296-0.471,0.719-0.778,1.275-0.924
			c0.997-0.204,1.995-0.31,2.992-0.31c1.496,0,2.962,0.219,4.401,0.66c2.435,0.793,4.536,2.159,6.294,4.094
			c1.76,1.938,2.902,4.182,3.437,6.737c0.201,1.028,0.311,2.023,0.311,2.995C70.569,37.357,70.337,38.794,69.865,40.174z"/>
		<path fill="#E42127" d="M39.093,50.121c-0.267-0.088-0.551-0.075-0.859,0.025c-0.311,0.104-0.537,0.289-0.685,0.553
			c-0.09,0.176-0.133,0.351-0.133,0.525v0.262h0.004c0.092,0.264,0.279,0.455,0.572,0.576c0.146,0.056,0.282,0.09,0.421,0.09
			c0.129,0,0.271-0.034,0.413-0.09c0.321-0.121,0.559-0.312,0.705-0.576c0.149-0.262,0.176-0.525,0.09-0.787
			C39.531,50.435,39.354,50.244,39.093,50.121z"/>
		<path fill="#E42127" d="M35.657,51.57c-0.383-0.145-0.771-0.22-1.147-0.22c-0.353,0-0.723,0.054-1.101,0.177
			c-0.791,0.264-1.396,0.73-1.807,1.408c-0.321,0.469-0.485,0.958-0.485,1.453c0.009,0.21,0.039,0.397,0.095,0.576
			c0.178,0.732,0.619,1.246,1.324,1.539c0.383,0.178,0.777,0.266,1.19,0.266c0.349,0,0.699-0.062,1.053-0.178
			c0.821-0.265,1.453-0.748,1.893-1.451c0.293-0.471,0.443-0.938,0.443-1.41c0-0.202-0.049-0.424-0.139-0.658
			C36.801,52.367,36.358,51.864,35.657,51.57z"/>
	</g>
	<g display="inline">
		<path fill="#E42127" d="M43.387,0C19.426,0,0,19.425,0,43.387c0,23.962,19.426,43.387,43.388,43.387
			c23.963,0,43.387-19.425,43.387-43.387C86.774,19.425,67.35,0,43.387,0z M53.104,48.584c0.297,0.395,0.78,0.579,1.474,0.579
			c1.592,0,3.256-1.112,4.946-3.309c1.735-2.262,2.619-5.324,2.619-9.105c0-5.618-2.34-9.537-7.156-11.981
			c-3.041-1.562-6.516-2.347-10.319-2.347c-7.01,0-12.715,2.164-16.953,6.435c-3.805,3.853-5.735,8.534-5.735,13.915
			c0,5.964,2.252,10.759,6.696,14.234c3.97,3.104,8.886,4.677,14.617,4.677c3.931,0,7.656-0.73,11.074-2.18
			c1.858-0.767,3.812-1.872,5.813-3.279l1.377-0.98l3.106,4.771l-0.524,0.409c-3.08,2.385-6.455,4.225-10.043,5.465
			c-3.591,1.25-7.365,1.888-11.222,1.888c-9.024,0-16.121-2.86-21.104-8.499c-4.135-4.674-6.229-10.292-6.229-16.689
			c0-7.164,2.619-13.326,7.771-18.304c5.401-5.247,12.403-7.909,20.812-7.909c6.854,0,12.619,1.829,17.14,5.436
			c4.809,3.838,7.248,9,7.248,15.342c0,4.986-1.546,9.335-4.591,12.919c-3.071,3.619-6.647,5.455-10.623,5.455
			c-2.157,0-3.854-0.641-5.049-1.888c-0.812-0.847-1.351-1.731-1.604-2.646c-0.517,0.71-1.058,1.331-1.625,1.854
			c-1.935,1.764-4.297,2.651-7.008,2.651c-2.783,0-5.127-1.014-6.978-3.019c-1.836-1.979-2.771-4.753-2.771-8.261
			c0-4,1.377-7.8,4.086-11.282c2.758-3.542,6.198-5.335,10.231-5.335c2.431,0,4.356,0.693,5.728,2.063
			c0.459,0.47,0.856,1.285,1.196,1.79l0.777-2.521h7.551l-4.354,14.7c-0.248,0.864-0.438,1.467-0.576,2.021
			c0,0-0.288,1.221-0.288,1.585C52.621,47.733,52.783,48.157,53.104,48.584z"/>
		<g>
			
				<ellipse transform="matrix(-0.8829 -0.4696 0.4696 -0.8829 57.2583 96.5503)" fill="#E42127" cx="40.668" cy="41.135" rx="5.497" ry="8.001"/>
		</g>
	</g>
	<g display="inline">
		<path fill="#E42127" d="M54.041,23.226c-1.095-1.693-2.5-3.062-4.222-4.101c-1.722-1.037-3.812-1.557-6.271-1.557
			c-2.459,0-4.562,0.506-6.312,1.517c-1.75,1.013-3.196,2.335-4.344,3.977c-1.147,1.639-1.98,3.511-2.5,5.612
			c-0.521,2.104-0.778,4.248-0.778,6.436c0,2.131,0.272,4.207,0.819,6.229c0.545,2.021,1.394,3.812,2.541,5.368
			c1.146,1.559,2.594,2.814,4.344,3.771c1.748,0.957,3.823,1.435,6.229,1.435c2.239,0,4.206-0.478,5.9-1.435
			c1.692-0.955,3.113-2.213,4.262-3.771c1.146-1.558,2.008-3.347,2.582-5.368c0.573-2.021,0.859-4.098,0.859-6.229
			c0-2.076-0.245-4.152-0.736-6.229C55.926,26.805,55.133,24.919,54.041,23.226z"/>
		<path fill="#E42127" d="M43.387,0C19.426,0,0,19.426,0,43.387C0,67.35,19.426,86.773,43.387,86.773
			c23.963,0,43.387-19.424,43.387-43.389C86.773,19.426,67.35,0,43.387,0z M62.318,53.302c0,3.115-0.342,5.93-1.023,8.442
			c-0.686,2.512-1.763,4.645-3.236,6.395c-1.476,1.746-3.4,3.086-5.777,4.016c-2.377,0.929-5.286,1.394-8.729,1.394
			c-2.131,0-4.209-0.246-6.229-0.736c-2.021-0.491-3.84-1.259-5.45-2.295c-1.61-1.038-2.95-2.363-4.017-3.977
			c-1.064-1.612-1.681-3.538-1.844-5.776h5.162c0.271,1.585,0.807,2.908,1.6,3.976c0.791,1.063,1.748,1.926,2.868,2.581
			c1.119,0.656,2.361,1.134,3.729,1.435c1.364,0.302,2.758,0.451,4.18,0.451c4.808,0,8.277-1.367,10.408-4.099
			c2.131-2.732,3.195-6.666,3.195-11.802v-5.736H56.99c-1.202,2.622-2.965,4.727-5.286,6.311c-2.323,1.585-5.041,2.377-8.154,2.377
			c-3.389,0-6.283-0.56-8.688-1.681c-2.404-1.119-4.385-2.663-5.941-4.63c-1.559-1.968-2.69-4.274-3.4-6.926
			c-0.711-2.649-1.063-5.479-1.063-8.482c0-2.896,0.422-5.641,1.271-8.236c0.847-2.595,2.076-4.86,3.688-6.803
			c1.61-1.938,3.606-3.469,5.982-4.59c2.377-1.119,5.096-1.68,8.154-1.68c1.585,0,3.072,0.219,4.468,0.653
			c1.394,0.438,2.663,1.055,3.812,1.847c1.146,0.792,2.172,1.708,3.072,2.745c0.901,1.039,1.6,2.131,2.091,3.276h0.164v-7.294h5.162
			L62.318,53.302L62.318,53.302z"/>
	</g>
	<g display="inline">
		<path d="M43.387,0C19.426,0,0,19.425,0,43.387c0,23.962,19.426,43.387,43.388,43.387c23.963,0,43.386-19.425,43.386-43.387
			C86.773,19.425,67.35,0,43.387,0z M53.104,48.584c0.297,0.395,0.78,0.579,1.474,0.579c1.592,0,3.256-1.112,4.946-3.309
			c1.735-2.262,2.619-5.324,2.619-9.105c0-5.618-2.34-9.537-7.156-11.981c-3.041-1.562-6.516-2.347-10.319-2.347
			c-7.01,0-12.715,2.164-16.953,6.435c-3.805,3.853-5.735,8.534-5.735,13.915c0,5.964,2.252,10.759,6.696,14.234
			c3.97,3.104,8.886,4.677,14.617,4.677c3.931,0,7.656-0.73,11.074-2.18c1.858-0.767,3.812-1.872,5.813-3.279l1.377-0.98
			l3.106,4.771l-0.524,0.409c-3.08,2.385-6.455,4.225-10.043,5.465c-3.591,1.25-7.365,1.888-11.222,1.888
			c-9.024,0-16.121-2.86-21.104-8.499c-4.135-4.674-6.229-10.292-6.229-16.689c0-7.164,2.619-13.326,7.771-18.304
			c5.401-5.247,12.403-7.909,20.812-7.909c6.854,0,12.619,1.829,17.14,5.436c4.809,3.838,7.248,9,7.248,15.342
			c0,4.986-1.546,9.335-4.591,12.919c-3.071,3.619-6.647,5.455-10.623,5.455c-2.157,0-3.854-0.641-5.049-1.888
			c-0.812-0.847-1.351-1.731-1.604-2.646c-0.517,0.71-1.058,1.331-1.625,1.854c-1.935,1.764-4.297,2.651-7.008,2.651
			c-2.783,0-5.127-1.014-6.978-3.019c-1.836-1.979-2.771-4.753-2.771-8.261c0-4,1.377-7.8,4.086-11.282
			c2.758-3.542,6.198-5.335,10.231-5.335c2.431,0,4.356,0.693,5.728,2.063c0.459,0.47,0.856,1.285,1.196,1.79l0.777-2.521h7.551
			l-4.354,14.7c-0.248,0.864-0.438,1.467-0.576,2.021c0,0-0.288,1.221-0.288,1.585C52.622,47.733,52.784,48.157,53.104,48.584z"/>
		<g>
			<ellipse transform="matrix(-0.8829 -0.4695 0.4695 -0.8829 57.275 96.5607)" cx="40.677" cy="41.139" rx="5.499" ry="8.001"/>
		</g>
	</g>
	<g display="inline">
		<path d="M54.041,23.226c-1.095-1.693-2.5-3.062-4.222-4.101c-1.722-1.037-3.812-1.557-6.271-1.557
			c-2.459,0-4.562,0.506-6.312,1.517c-1.75,1.013-3.196,2.335-4.344,3.977c-1.147,1.639-1.98,3.511-2.5,5.612
			c-0.521,2.104-0.778,4.248-0.778,6.436c0,2.131,0.272,4.207,0.819,6.229c0.545,2.021,1.394,3.812,2.541,5.368
			c1.146,1.559,2.594,2.814,4.344,3.771c1.748,0.957,3.823,1.435,6.229,1.435c2.239,0,4.206-0.478,5.9-1.435
			c1.692-0.955,3.113-2.213,4.262-3.771c1.146-1.558,2.008-3.347,2.582-5.368c0.573-2.021,0.859-4.098,0.859-6.229
			c0-2.076-0.245-4.152-0.736-6.229C55.926,26.805,55.133,24.919,54.041,23.226z"/>
		<path d="M43.387,0C19.426,0,0,19.426,0,43.387C0,67.35,19.426,86.773,43.387,86.773c23.963,0,43.387-19.424,43.387-43.389
			C86.773,19.426,67.35,0,43.387,0z M62.318,53.302c0,3.115-0.342,5.93-1.023,8.442c-0.686,2.512-1.763,4.645-3.236,6.395
			c-1.476,1.746-3.4,3.086-5.777,4.016c-2.377,0.929-5.286,1.394-8.729,1.394c-2.131,0-4.209-0.246-6.229-0.736
			c-2.021-0.491-3.84-1.259-5.45-2.295c-1.61-1.038-2.95-2.363-4.017-3.977c-1.064-1.612-1.681-3.538-1.844-5.776h5.162
			c0.271,1.585,0.807,2.908,1.6,3.976c0.791,1.063,1.748,1.926,2.868,2.581c1.119,0.656,2.361,1.134,3.729,1.435
			c1.364,0.302,2.758,0.451,4.18,0.451c4.808,0,8.277-1.367,10.408-4.099c2.131-2.732,3.195-6.666,3.195-11.802v-5.736H56.99
			c-1.202,2.622-2.965,4.727-5.286,6.311c-2.323,1.585-5.041,2.377-8.154,2.377c-3.389,0-6.283-0.56-8.688-1.681
			c-2.404-1.119-4.385-2.663-5.941-4.63c-1.559-1.968-2.69-4.274-3.4-6.926c-0.711-2.649-1.063-5.479-1.063-8.482
			c0-2.896,0.422-5.641,1.271-8.236c0.847-2.595,2.076-4.86,3.688-6.803c1.61-1.938,3.606-3.469,5.982-4.59
			c2.377-1.119,5.096-1.68,8.154-1.68c1.585,0,3.072,0.219,4.468,0.653c1.394,0.438,2.663,1.055,3.812,1.847
			c1.146,0.792,2.172,1.708,3.072,2.745c0.901,1.039,1.6,2.131,2.091,3.276h0.164v-7.294h5.162L62.318,53.302L62.318,53.302z"/>
	</g>
	<g display="inline">
		<path fill="#E42127" d="M43.387,0C19.426,0,0,19.424,0,43.387c0,23.961,19.426,43.387,43.388,43.387
			c23.963,0,43.387-19.426,43.387-43.387C86.773,19.424,67.35,0,43.387,0z M53.104,48.584c0.297,0.395,0.78,0.578,1.474,0.578
			c1.592,0,3.256-1.111,4.946-3.309c1.735-2.262,2.619-5.324,2.619-9.105c0-5.617-2.34-9.537-7.156-11.98
			c-3.041-1.562-6.516-2.348-10.319-2.348c-7.01,0-12.715,2.164-16.953,6.436c-3.805,3.852-5.735,8.533-5.735,13.914
			c0,5.965,2.252,10.76,6.696,14.234c3.97,3.104,8.886,4.678,14.617,4.678c3.931,0,7.656-0.73,11.074-2.18
			c1.858-0.768,3.812-1.873,5.813-3.279l1.377-0.98l3.106,4.771l-0.524,0.409c-3.08,2.385-6.455,4.225-10.043,5.466
			c-3.591,1.25-7.365,1.886-11.222,1.886c-9.024,0-16.121-2.859-21.104-8.498c-4.135-4.674-6.229-10.293-6.229-16.689
			c0-7.164,2.619-13.326,7.771-18.305c5.401-5.246,12.403-7.908,20.812-7.908c6.854,0,12.619,1.828,17.14,5.436
			c4.809,3.838,7.248,9,7.248,15.342c0,4.987-1.546,9.334-4.591,12.918c-3.071,3.619-6.647,5.455-10.623,5.455
			c-2.157,0-3.854-0.641-5.049-1.886c-0.812-0.849-1.351-1.733-1.604-2.647c-0.517,0.711-1.058,1.332-1.625,1.854
			c-1.935,1.764-4.297,2.652-7.008,2.652c-2.783,0-5.127-1.014-6.978-3.02c-1.836-1.979-2.771-4.752-2.771-8.26
			c0-4,1.377-7.801,4.086-11.283c2.758-3.541,6.198-5.334,10.231-5.334c2.431,0,4.356,0.693,5.728,2.062
			c0.459,0.471,0.856,1.285,1.196,1.791l0.777-2.521h7.551l-4.354,14.7c-0.248,0.863-0.438,1.467-0.576,2.021
			c0,0-0.288,1.221-0.288,1.584C52.621,47.732,52.783,48.156,53.104,48.584z"/>
		<g>
			<path fill="#E42127" d="M45.527,43.716c-2.074,3.902-5.93,5.91-8.61,4.484c-2.682-1.426-3.173-5.744-1.099-9.646
				c2.073-3.899,5.929-5.906,8.608-4.48C47.107,35.5,47.601,39.817,45.527,43.716z"/>
		</g>
	</g>
	<g display="inline">
		<path fill="#E42127" d="M54.041,23.225c-1.095-1.693-2.5-3.061-4.222-4.1c-1.722-1.037-3.812-1.557-6.271-1.557
			c-2.459,0-4.562,0.506-6.312,1.516c-1.75,1.014-3.196,2.336-4.344,3.977c-1.147,1.639-1.98,3.512-2.5,5.613
			c-0.521,2.104-0.778,4.248-0.778,6.436c0,2.131,0.272,4.207,0.819,6.229c0.545,2.021,1.394,3.812,2.541,5.367
			c1.146,1.559,2.594,2.814,4.344,3.771c1.748,0.957,3.823,1.436,6.229,1.436c2.239,0,4.206-0.479,5.9-1.436
			c1.692-0.955,3.113-2.213,4.262-3.771c1.147-1.557,2.008-3.346,2.582-5.367c0.573-2.021,0.859-4.098,0.859-6.229
			c0-2.076-0.245-4.152-0.736-6.23C55.926,26.805,55.133,24.918,54.041,23.225z"/>
		<path fill="#E42127" d="M43.387,0C19.426,0,0,19.426,0,43.387C0,67.35,19.426,86.773,43.387,86.773
			c23.963,0,43.387-19.424,43.387-43.389C86.773,19.426,67.35,0,43.387,0z M62.318,53.302c0,3.115-0.342,5.93-1.023,8.441
			c-0.686,2.512-1.763,4.644-3.236,6.394c-1.476,1.747-3.4,3.087-5.777,4.017s-5.286,1.395-8.729,1.395
			c-2.131,0-4.209-0.246-6.229-0.736c-2.021-0.492-3.84-1.26-5.45-2.295c-1.61-1.039-2.95-2.363-4.017-3.977
			c-1.064-1.613-1.681-3.539-1.844-5.779h5.162c0.271,1.588,0.807,2.91,1.6,3.979c0.791,1.062,1.748,1.926,2.868,2.58
			c1.119,0.656,2.361,1.135,3.729,1.436c1.364,0.3,2.758,0.451,4.18,0.451c4.808,0,8.277-1.367,10.408-4.1
			c2.131-2.733,3.195-6.666,3.195-11.801v-5.736H56.99c-1.202,2.621-2.965,4.727-5.286,6.311c-2.323,1.584-5.041,2.377-8.154,2.377
			c-3.389,0-6.283-0.561-8.688-1.682c-2.404-1.119-4.385-2.662-5.941-4.629c-1.559-1.969-2.69-4.275-3.4-6.926
			c-0.711-2.65-1.063-5.479-1.063-8.482c0-2.896,0.422-5.641,1.271-8.236c0.847-2.596,2.076-4.861,3.688-6.803
			c1.611-1.938,3.606-3.469,5.982-4.59c2.377-1.119,5.096-1.68,8.154-1.68c1.585,0,3.072,0.219,4.468,0.652
			c1.394,0.439,2.663,1.055,3.812,1.848c1.146,0.791,2.172,1.707,3.072,2.744c0.901,1.037,1.6,2.131,2.091,3.277h0.164v-7.295h5.162
			L62.318,53.302L62.318,53.302z"/>
	</g>
	<path display="inline" d="M43.391,0C19.431,0,0,19.427,0,43.396c0,19.17,12.433,35.435,29.679,41.173
		c2.169,0.396,2.962-0.941,2.962-2.091c0-1.031-0.038-3.761-0.06-7.381C20.51,77.719,17.963,69.28,17.963,69.28
		c-1.975-5.013-4.817-6.348-4.817-6.348c-3.939-2.692,0.297-2.639,0.297-2.639c4.354,0.309,6.646,4.473,6.646,4.473
		c3.871,6.631,10.156,4.717,12.629,3.604c0.395-2.805,1.517-4.717,2.756-5.802c-9.636-1.095-19.767-4.818-19.767-21.447
		c0-4.737,1.69-8.609,4.467-11.644c-0.446-1.1-1.937-5.512,0.426-11.484c0,0,3.645-1.167,11.935,4.449
		c3.461-0.963,7.173-1.444,10.862-1.461c3.686,0.017,7.396,0.499,10.863,1.461c8.285-5.615,11.922-4.449,11.922-4.449
		c2.366,5.974,0.878,10.386,0.432,11.484c2.781,3.032,4.461,6.905,4.461,11.644c0,16.67-10.146,20.339-19.812,21.413
		c1.559,1.34,2.945,3.988,2.945,8.036c0,5.801-0.054,10.479-0.054,11.904c0,1.158,0.781,2.51,2.982,2.086
		c17.229-5.749,29.65-22.003,29.65-41.168C86.788,19.427,67.357,0,43.391,0z"/>
</g>
<g id="Calque_2">
	<path fill="#FFFFFF" d="M43.387-1C19.425-1,0,18.426,0,42.387C0,66.35,19.425,85.773,43.387,85.773
		c23.962,0,43.387-19.423,43.387-43.386C86.774,18.426,67.349-1,43.387-1z M39.258,13.329c0.127-0.664,0.779-1.331,1.577-1.485
		l2.479,0.228l-1.228,15.367l-2.659-0.492c-0.875-0.115-1.162-1.04-1.12-1.66L39.258,13.329z M30.686,66.864
		c-0.69-0.431-1.062-1.286-0.943-1.951l3.376-11.511c0.182-0.593,0.78-1.354,1.641-1.15l2.657,0.49L33.08,67.535L30.686,66.864z
		 M55.931,43.071l-0.003,0.006c-1.741,9.452-6.464,18.948-9.588,23.581c-1.269,0.708-3.466,1.21-5.641,1.442
		c-2.024,0.196-4.083,0.13-5.403-0.093l4.371-14.908c0.626,0.065,1.054,0.062,1.918-0.02c1.256-0.12,1.7-0.264,2.402-2.202
		c0.419-1.277,1.574-4.992,2.468-9.549l0.01,0.003l0.002-0.005l-0.011-0.002c0.791-4.575,1.036-8.456,1.103-9.8
		c0.036-2.062-0.327-2.354-1.458-2.915c-0.778-0.383-1.178-0.542-1.786-0.7l1.235-15.49c1.313,0.266,3.261,0.938,5.08,1.841
		c1.948,0.994,3.823,2.248,4.757,3.36C56.652,23.064,57.673,33.618,55.931,43.071z"/>
</g>
</svg>
