<?xml version="1.0" encoding="utf-8"?>
<!-- Generator: Adobe Illustrator 15.1.0, SVG Export Plug-In . SVG Version: 6.00 Build 0)  -->
<!DOCTYPE svg PUBLIC "-//W3C//DTD SVG 1.1//EN" "http://www.w3.org/Graphics/SVG/1.1/DTD/svg11.dtd">
<svg version="1.1" id="Calque_1" xmlns="http://www.w3.org/2000/svg" xmlns:xlink="http://www.w3.org/1999/xlink" x="0px" y="0px"
	 width="694.188px" height="173.548px" viewBox="0 0 694.188 173.548" enable-background="new 0 0 694.188 173.548"
	 xml:space="preserve">
<path d="M477.254,0c-23.962,0-43.387,19.426-43.387,43.387c0,23.963,19.425,43.387,43.387,43.387s43.387-19.424,43.387-43.387
	C520.641,19.426,501.216,0,477.254,0z M474.747,46.981l-8.34,8.375V45.131l-0.096,0.064l-10.751-12.654h-7.231l18.078-18.078v7.23
	l12.651,10.752l-0.061,0.096h10.222l-8.594,8.572l20.175,25.811L474.747,46.981z"/>
<path d="M390.48,0c-23.963,0-43.387,19.425-43.387,43.387s19.424,43.387,43.387,43.387c23.961,0,43.387-19.425,43.387-43.387
	S414.441,0,390.48,0z M369.443,72.24c-4.357,0-7.887-3.53-7.887-7.888c0-4.354,3.529-7.884,7.887-7.884
	c4.35,0,7.893,3.53,7.893,7.884C377.332,68.713,373.793,72.24,369.443,72.24z M389.227,72.314v-0.003
	c0-7.437-2.885-14.441-8.109-19.695c-5.219-5.247-12.129-8.139-19.561-8.139V33.095c21.064,0,39.057,18.151,39.057,39.22H389.227z
	 M409.342,72.314v-0.003c0-26.478-21.764-48.02-47.785-48.02v-11.38c32.215,0,59.168,26.647,59.168,59.402H409.342z"/>
<path d="M303.707,0c-23.962,0-43.387,19.425-43.387,43.387s19.425,43.387,43.387,43.387s43.387-19.425,43.387-43.387
	S327.669,0,303.707,0z M289.245,68.696h-0.47h-10.377V32.54h10.847V68.696z M283.822,27.625c-3.651,0-6.61-2.956-6.61-6.61
	c0-3.651,2.959-6.606,6.61-6.606c3.65,0,6.609,2.956,6.609,6.606C290.432,24.67,287.473,27.625,283.822,27.625z M329.017,68.696
	H318.17V49.559c0-4.516-1.925-7.595-5.964-7.595c-3.086,0-3.707,2.076-4.516,4.082c-0.297,0.717-0.367,1.72-0.367,2.722v19.928
	h-10.847c0,0,0.148-33.003,0-36.156h10.847v6.158c0-2.284,2.56-6.271,11.072-6.271c8.51,0,10.621,0.268,10.621,12.224
	C329.017,56.61,329.017,68.696,329.017,68.696z"/>
<path d="M43.387,0C19.425,0,0,19.425,0,43.387s19.425,43.387,43.387,43.387s43.387-19.425,43.387-43.387S67.349,0,43.387,0z
	 M36.155,57.849h-7.231V47.002h7.231V57.849z M47.002,61.465h-7.231v-3.616h7.231V61.465z M57.849,57.849h-7.231V47.002h7.231
	V57.849z M72.311,47.002c0,6.666-3.651,12.428-9.018,15.56c1.1-1.268,1.787-2.902,1.787-4.713v-7.231c0-3.99-3.24-7.231-7.231-7.231
	H28.924c-3.992,0-7.231,3.241-7.231,7.231v7.231c0,1.811,0.687,3.446,1.787,4.713c-5.367-3.132-9.018-8.894-9.018-15.56v-3.616
	c0-4.131,1.284-7.803,3.616-10.847V18.078l14.462,7.224l21.693,0.007l14.462-7.231L68.92,32.54
	c2.614,3.136,3.391,6.444,3.391,10.847V47.002z"/>
<path d="M130.16,0c-23.963,0-43.387,19.425-43.387,43.387s19.424,43.387,43.387,43.387c23.961,0,43.387-19.425,43.387-43.387
	S154.121,0,130.16,0z M155.986,32.208c0.021,0.551,0.035,1.116,0.035,1.677c0,17.131-13.038,36.879-36.878,36.879
	c-7.321,0-14.134-2.146-19.868-5.826c1.018,0.12,2.047,0.184,3.092,0.184c6.07,0,11.66-2.069,16.097-5.547
	c-5.675-0.099-10.456-3.849-12.108-8.996c0.791,0.155,1.604,0.222,2.439,0.222c1.183,0,2.324-0.163,3.414-0.452
	c-5.934-1.187-10.398-6.426-10.398-12.711c0-0.06,0-0.103,0-0.159c1.746,0.968,3.744,1.557,5.871,1.614
	c-3.475-2.323-5.768-6.289-5.768-10.783c0-2.376,0.642-4.604,1.754-6.514c6.393,7.838,15.941,13,26.719,13.541
	c-0.224-0.954-0.335-1.938-0.335-2.959c0-7.153,5.804-12.955,12.962-12.955c3.727,0,7.097,1.571,9.461,4.092
	c2.949-0.583,5.723-1.66,8.23-3.149c-0.97,3.033-3.024,5.568-5.699,7.171c2.625-0.304,5.119-1.003,7.445-2.038
	C160.711,28.098,158.516,30.375,155.986,32.208z"/>
<g>
	<path d="M222.328,42.814c-2.73-1.44-5.815-2.158-9.246-2.158c-0.852,0-1.72,0.047-2.597,0.135
		c-2.966,0.294-5.649,1.041-8.057,2.244s-4.261,2.687-5.55,4.45c-1.118,1.554-1.673,3.153-1.673,4.798
		c0,0.26,0.018,0.522,0.048,0.789c0.292,2.964,2.123,5.324,5.503,7.085c2.695,1.44,5.765,2.156,9.2,2.156
		c0.851,0,1.732-0.045,2.64-0.133c4.492-0.44,8.234-1.864,11.228-4.271c2.703-2.201,4.049-4.622,4.049-7.264
		c0-0.262-0.013-0.529-0.043-0.787C227.538,46.92,225.702,44.575,222.328,42.814z M218.363,54.704
		c-0.909,2.083-2.513,3.613-4.8,4.579c-1.294,0.557-2.584,0.836-3.873,0.836c-0.998,0-1.982-0.154-2.949-0.481
		c-2.142-0.681-3.624-1.958-4.445-3.837c-0.383-0.851-0.572-1.711-0.572-2.597c0-1.027,0.263-2.053,0.791-3.083
		c0.911-1.876,2.434-3.282,4.579-4.224c1.319-0.589,2.656-0.877,4.002-0.877c0.796,0,1.591,0.104,2.378,0.308
		c2.235,0.591,3.83,1.791,4.804,3.615c0.499,0.939,0.748,1.903,0.748,2.9C219.025,52.784,218.798,53.734,218.363,54.704z"/>
	<path d="M216.934,0c-23.963,0-43.387,19.425-43.387,43.387s19.424,43.387,43.387,43.387c23.961,0,43.387-19.425,43.387-43.387
		S240.895,0,216.934,0z M235.358,55.297c-1.204,1.804-2.842,3.457-4.909,4.953c-2.064,1.496-4.683,2.728-7.838,3.697
		c-3.155,0.972-6.507,1.453-10.058,1.453c-3.844,0-7.477-0.563-10.895-1.694c-3.422-1.135-6.26-2.818-8.517-5.066
		c-2.266-2.244-3.392-4.805-3.392-7.683c0-4.725,2.695-9.815,8.1-15.275c3.431-3.405,6.896-5.782,10.387-7.132
		c1.646-0.675,3.073-1.012,4.273-1.012c1.319,0,2.377,0.4,3.164,1.188c0.77,0.768,1.147,1.821,1.147,3.171
		c0,0.911-0.176,1.967-0.528,3.166c-0.116,0.415-0.073,0.673,0.133,0.774c0.206,0.104,0.438,0.11,0.705,0.021l0.438-0.176
		c2.818-1.173,5.312-1.76,7.482-1.76c2.172,0,3.728,0.617,4.665,1.849c0.438,0.645,0.667,1.408,0.667,2.289
		c0,0.91-0.237,1.952-0.705,3.125c-0.207,0.292-0.241,0.544-0.112,0.748c0.129,0.205,0.249,0.338,0.353,0.4
		c0.104,0.056,0.313,0.131,0.637,0.219c1.818,0.557,3.37,1.468,4.664,2.73c1.294,1.258,1.943,2.831,1.943,4.71
		C237.164,51.724,236.562,53.491,235.358,55.297z M232.241,33.483c-0.645-0.763-1.44-1.144-2.377-1.144
		c-0.297,0-0.589,0.03-0.882,0.083c-0.142,0.032-0.279,0.047-0.396,0.047c-0.322,0-0.632-0.101-0.924-0.307
		c-0.422-0.267-0.688-0.634-0.804-1.103c-0.026-0.146-0.043-0.296-0.043-0.44c0-0.294,0.086-0.602,0.266-0.924
		c0.259-0.415,0.646-0.679,1.145-0.793c0.559-0.116,1.1-0.176,1.629-0.176c1.965,0,3.654,0.78,5.061,2.337
		c0.851,0.965,1.41,2.065,1.672,3.302c0.09,0.499,0.138,0.98,0.138,1.449c0,0.705-0.12,1.412-0.353,2.113
		c-0.146,0.473-0.438,0.809-0.877,1.017c-0.267,0.144-0.524,0.219-0.791,0.219c-0.207,0-0.4-0.028-0.572-0.088
		c-0.473-0.148-0.825-0.44-1.058-0.881c-0.116-0.262-0.176-0.524-0.176-0.789c0-0.205,0.03-0.4,0.09-0.574
		c0.116-0.413,0.177-0.791,0.177-1.146C233.166,34.863,232.856,34.128,232.241,33.483z M243.411,40.174v0.043
		c-0.173,0.529-0.512,0.924-1.011,1.189c-0.322,0.146-0.645,0.224-0.967,0.224c-0.207,0-0.426-0.035-0.662-0.088
		c-0.555-0.176-0.955-0.514-1.188-1.012c-0.15-0.323-0.223-0.632-0.223-0.924c0-0.237,0.029-0.456,0.09-0.665v-0.043
		c0.322-1,0.486-2.025,0.486-3.083c0-0.675-0.061-1.377-0.177-2.113c-0.383-1.816-1.204-3.418-2.468-4.798
		c-1.26-1.378-2.76-2.348-4.488-2.906c-1.027-0.292-2.055-0.437-3.082-0.437c-0.701,0-1.424,0.069-2.154,0.219
		c-0.146,0.028-0.297,0.043-0.443,0.043c-0.408,0-0.791-0.116-1.143-0.348c-0.474-0.331-0.766-0.771-0.882-1.329
		c-0.03-0.144-0.048-0.292-0.048-0.44c0-0.38,0.121-0.748,0.354-1.101c0.296-0.469,0.718-0.778,1.276-0.924
		c0.997-0.204,1.995-0.308,2.992-0.308c1.496,0,2.962,0.219,4.402,0.66c2.434,0.793,4.536,2.158,6.294,4.095
		c1.759,1.937,2.902,4.179,3.436,6.737c0.201,1.028,0.31,2.025,0.31,2.995C244.116,37.356,243.884,38.794,243.411,40.174z"/>
	<path d="M212.64,50.121c-0.267-0.088-0.551-0.075-0.86,0.026c-0.31,0.105-0.537,0.288-0.684,0.552
		c-0.09,0.176-0.133,0.351-0.133,0.525v0.262h0.004c0.091,0.265,0.279,0.456,0.572,0.576c0.146,0.056,0.283,0.09,0.421,0.09
		c0.129,0,0.271-0.034,0.413-0.09c0.322-0.12,0.559-0.312,0.705-0.576c0.15-0.262,0.176-0.524,0.09-0.787
		C213.078,50.435,212.901,50.243,212.64,50.121z"/>
	<path d="M209.204,51.569c-0.382-0.142-0.77-0.219-1.147-0.219c-0.353,0-0.723,0.054-1.101,0.176
		c-0.791,0.265-1.397,0.733-1.806,1.408c-0.322,0.469-0.486,0.958-0.486,1.453c0.009,0.21,0.039,0.4,0.095,0.578
		c0.177,0.733,0.619,1.247,1.324,1.539c0.383,0.176,0.778,0.265,1.191,0.265c0.348,0,0.7-0.061,1.053-0.177
		c0.821-0.264,1.453-0.748,1.892-1.453c0.293-0.468,0.443-0.937,0.443-1.41c0-0.202-0.048-0.424-0.138-0.658
		C210.348,52.367,209.905,51.864,209.204,51.569z"/>
</g>
<g>
	<path d="M564.027,0c-23.961,0-43.387,19.425-43.387,43.387s19.426,43.387,43.387,43.387c23.963,0,43.387-19.425,43.387-43.387
		S587.99,0,564.027,0z M573.744,48.584c0.297,0.393,0.781,0.579,1.473,0.579c1.592,0,3.256-1.112,4.947-3.309
		c1.736-2.26,2.619-5.324,2.619-9.105c0-5.618-2.34-9.537-7.156-11.983c-3.041-1.561-6.516-2.345-10.32-2.345
		c-7.01,0-12.715,2.164-16.953,6.433c-3.805,3.853-5.736,8.534-5.736,13.915c0,5.964,2.252,10.759,6.697,14.236
		c3.969,3.104,8.885,4.675,14.617,4.675c3.93,0,7.656-0.73,11.074-2.178c1.859-0.767,3.812-1.872,5.814-3.281l1.377-0.98l3.107,4.77
		l-0.525,0.41c-3.08,2.383-6.455,4.223-10.043,5.465c-3.59,1.25-7.365,1.886-11.221,1.886c-9.025,0-16.121-2.86-21.104-8.499
		c-4.135-4.674-6.229-10.292-6.229-16.689c0-7.164,2.619-13.326,7.771-18.304c5.402-5.247,12.404-7.909,20.811-7.909
		c6.854,0,12.619,1.829,17.139,5.434c4.809,3.838,7.248,9,7.248,15.342c0,4.988-1.545,9.335-4.59,12.919
		c-3.072,3.619-6.648,5.455-10.623,5.455c-2.158,0-3.855-0.639-5.049-1.886c-0.812-0.847-1.35-1.733-1.604-2.647
		c-0.516,0.71-1.057,1.331-1.625,1.854c-1.934,1.762-4.297,2.651-7.008,2.651c-2.783,0-5.127-1.014-6.977-3.019
		c-1.836-1.978-2.77-4.753-2.77-8.259c0-4,1.377-7.8,4.086-11.284c2.758-3.542,6.199-5.335,10.232-5.335
		c2.43,0,4.357,0.695,5.727,2.065c0.459,0.47,0.857,1.285,1.197,1.79l0.777-2.521h7.551l-4.355,14.703
		c-0.248,0.864-0.439,1.465-0.576,2.02c0,0-0.289,1.221-0.289,1.585C573.262,47.734,573.424,48.158,573.744,48.584z"/>
	<g>
		<ellipse transform="matrix(0.883 0.4695 -0.4695 0.883 85.0096 -258.6958)" cx="561.313" cy="41.137" rx="5.498" ry="8.001"/>
	</g>
</g>
<g>
	<path d="M661.455,23.226c-1.093-1.693-2.5-3.06-4.221-4.099c-1.721-1.037-3.811-1.557-6.27-1.557s-4.562,0.506-6.311,1.517
		c-1.75,1.011-3.196,2.335-4.344,3.975c-1.147,1.639-1.981,3.511-2.5,5.614c-0.52,2.104-0.779,4.248-0.779,6.434
		c0,2.131,0.273,4.207,0.82,6.229c0.545,2.021,1.393,3.811,2.541,5.368c1.147,1.557,2.594,2.814,4.344,3.77
		c1.748,0.957,3.824,1.435,6.229,1.435c2.24,0,4.207-0.478,5.901-1.435c1.693-0.955,3.114-2.213,4.262-3.77
		c1.147-1.558,2.008-3.347,2.582-5.368s0.861-4.098,0.861-6.229c0-2.076-0.246-4.152-0.738-6.229
		C663.34,26.805,662.547,24.919,661.455,23.226z"/>
	<path d="M650.801,0c-23.961,0-43.387,19.426-43.387,43.387c0,23.963,19.426,43.387,43.387,43.387
		c23.963,0,43.387-19.424,43.387-43.387C694.188,19.426,674.764,0,650.801,0z M669.732,53.303c0,3.115-0.342,5.928-1.024,8.442
		c-0.684,2.512-1.762,4.643-3.237,6.393c-1.475,1.748-3.401,3.086-5.778,4.016c-2.377,0.929-5.286,1.394-8.729,1.394
		c-2.131,0-4.208-0.246-6.229-0.738c-2.022-0.491-3.839-1.257-5.45-2.295c-1.612-1.038-2.951-2.363-4.016-3.975
		c-1.065-1.612-1.68-3.538-1.844-5.778h5.163c0.273,1.585,0.806,2.91,1.598,3.976c0.792,1.065,1.748,1.926,2.869,2.581
		c1.119,0.656,2.363,1.134,3.729,1.435c1.365,0.3,2.758,0.451,4.18,0.451c4.807,0,8.278-1.367,10.409-4.099
		c2.131-2.732,3.196-6.666,3.196-11.802v-5.736h-0.164c-1.203,2.622-2.964,4.727-5.286,6.311c-2.323,1.585-5.041,2.377-8.155,2.377
		c-3.388,0-6.284-0.56-8.688-1.681c-2.405-1.119-4.385-2.663-5.942-4.63c-1.557-1.968-2.691-4.274-3.401-6.926
		c-0.711-2.649-1.065-5.477-1.065-8.482c0-2.896,0.422-5.641,1.27-8.236c0.847-2.595,2.076-4.862,3.688-6.803
		c1.611-1.938,3.606-3.469,5.983-4.59c2.377-1.119,5.094-1.68,8.155-1.68c1.584,0,3.073,0.219,4.467,0.655
		c1.393,0.438,2.664,1.053,3.811,1.845c1.147,0.792,2.171,1.708,3.073,2.745c0.901,1.039,1.598,2.131,2.09,3.278h0.164v-7.294h5.163
		V53.303z"/>
</g>
<path fill="#E42127" d="M477.254,86.774c-23.962,0-43.387,19.426-43.387,43.386c0,23.963,19.425,43.387,43.387,43.387
	s43.387-19.424,43.387-43.387C520.641,106.2,501.216,86.774,477.254,86.774z M474.747,133.756l-8.34,8.375v-10.227l-0.096,0.064
	l-10.751-12.654h-7.231l18.078-18.078v7.23l12.651,10.751l-0.061,0.096h10.222l-8.594,8.572l20.175,25.811L474.747,133.756z"/>
<path fill="#E42127" d="M390.48,86.774c-23.963,0-43.387,19.425-43.387,43.386c0,23.963,19.424,43.387,43.387,43.387
	c23.961,0,43.387-19.424,43.387-43.387C433.867,106.199,414.441,86.774,390.48,86.774z M369.443,159.014
	c-4.357,0-7.887-3.529-7.887-7.887c0-4.354,3.529-7.885,7.887-7.885c4.35,0,7.893,3.531,7.893,7.885
	C377.332,155.486,373.793,159.014,369.443,159.014z M389.227,159.088v-0.002c0-7.438-2.885-14.441-8.109-19.695
	c-5.219-5.248-12.129-8.139-19.561-8.139v-11.383c21.064,0,39.057,18.15,39.057,39.219H389.227z M409.342,159.088v-0.002
	c0-26.479-21.764-48.02-47.785-48.02v-11.38c32.215,0,59.168,26.648,59.168,59.402H409.342z"/>
<path fill="#E42127" d="M303.707,86.774c-23.962,0-43.387,19.425-43.387,43.386c0,23.963,19.425,43.387,43.387,43.387
	s43.387-19.424,43.387-43.387C347.094,106.199,327.669,86.774,303.707,86.774z M289.245,155.47h-0.47h-10.377v-36.155h10.847V155.47
	z M283.822,114.399c-3.651,0-6.61-2.956-6.61-6.61c0-3.651,2.959-6.606,6.61-6.606c3.65,0,6.609,2.956,6.609,6.606
	C290.432,111.443,287.473,114.399,283.822,114.399z M329.017,155.47H318.17v-19.138c0-4.516-1.925-7.594-5.964-7.594
	c-3.086,0-3.707,2.076-4.516,4.081c-0.297,0.717-0.367,1.72-0.367,2.722v19.929h-10.847c0,0,0.148-33.003,0-36.155h10.847v6.157
	c0-2.284,2.56-6.271,11.072-6.271c8.51,0,10.621,0.268,10.621,12.224C329.017,143.384,329.017,155.47,329.017,155.47z"/>
<path fill="#E42127" d="M43.387,86.774C19.425,86.774,0,106.199,0,130.16c0,23.963,19.425,43.387,43.387,43.387
	s43.387-19.424,43.387-43.387C86.773,106.199,67.349,86.774,43.387,86.774z M36.155,144.623h-7.231v-10.847h7.231V144.623z
	 M47.002,148.238h-7.231v-3.615h7.231V148.238z M57.849,144.623h-7.231v-10.847h7.231V144.623z M72.311,133.776
	c0,6.666-3.651,12.429-9.018,15.56c1.1-1.268,1.787-2.902,1.787-4.713v-7.23c0-3.99-3.24-7.232-7.231-7.232H28.924
	c-3.992,0-7.231,3.242-7.231,7.232v7.23c0,1.811,0.687,3.445,1.787,4.713c-5.367-3.131-9.018-8.894-9.018-15.56v-3.616
	c0-4.131,1.284-7.803,3.616-10.846v-14.462l14.462,7.224l21.693,0.007l14.462-7.231l0.225,14.462
	c2.614,3.135,3.391,6.443,3.391,10.846V133.776z"/>
<path fill="#E42127" d="M130.16,86.774c-23.963,0-43.387,19.425-43.387,43.386c0,23.963,19.424,43.387,43.387,43.387
	c23.961,0,43.387-19.424,43.387-43.387C173.547,106.199,154.121,86.774,130.16,86.774z M155.986,118.982
	c0.021,0.551,0.035,1.115,0.035,1.677c0,17.132-13.038,36.88-36.878,36.88c-7.321,0-14.134-2.146-19.868-5.826
	c1.018,0.119,2.047,0.184,3.092,0.184c6.07,0,11.66-2.069,16.097-5.547c-5.675-0.1-10.456-3.85-12.108-8.996
	c0.791,0.154,1.604,0.222,2.439,0.222c1.183,0,2.324-0.163,3.414-0.452c-5.934-1.186-10.398-6.426-10.398-12.711
	c0-0.06,0-0.102,0-0.158c1.746,0.967,3.744,1.557,5.871,1.613c-3.475-2.323-5.768-6.289-5.768-10.783
	c0-2.377,0.642-4.604,1.754-6.514c6.393,7.838,15.941,13,26.719,13.541c-0.224-0.954-0.335-1.938-0.335-2.959
	c0-7.153,5.804-12.955,12.962-12.955c3.727,0,7.097,1.571,9.461,4.092c2.949-0.582,5.723-1.66,8.23-3.149
	c-0.97,3.032-3.024,5.567-5.699,7.171c2.625-0.303,5.119-1.002,7.445-2.037C160.711,114.872,158.516,117.149,155.986,118.982z"/>
<g>
	<path fill="#E42127" d="M222.328,129.588c-2.73-1.439-5.815-2.158-9.246-2.158c-0.852,0-1.72,0.047-2.597,0.136
		c-2.966,0.294-5.649,1.04-8.057,2.244s-4.261,2.687-5.55,4.45c-1.118,1.554-1.673,3.152-1.673,4.797
		c0,0.26,0.018,0.523,0.048,0.789c0.292,2.965,2.123,5.324,5.503,7.086c2.695,1.439,5.765,2.155,9.2,2.155
		c0.851,0,1.732-0.045,2.64-0.134c4.492-0.439,8.234-1.863,11.228-4.271c2.703-2.201,4.049-4.622,4.049-7.264
		c0-0.263-0.013-0.528-0.043-0.786C227.538,133.693,225.702,131.349,222.328,129.588z M218.363,141.478
		c-0.909,2.083-2.513,3.613-4.8,4.579c-1.294,0.557-2.584,0.836-3.873,0.836c-0.998,0-1.982-0.154-2.949-0.482
		c-2.142-0.681-3.624-1.957-4.445-3.836c-0.383-0.852-0.572-1.711-0.572-2.598c0-1.027,0.263-2.053,0.791-3.082
		c0.911-1.877,2.434-3.282,4.579-4.225c1.319-0.588,2.656-0.877,4.002-0.877c0.796,0,1.591,0.104,2.378,0.309
		c2.235,0.59,3.83,1.79,4.804,3.615c0.499,0.939,0.748,1.902,0.748,2.899C219.025,139.559,218.798,140.508,218.363,141.478z"/>
	<path fill="#E42127" d="M216.934,86.774c-23.963,0-43.387,19.425-43.387,43.386c0,23.963,19.424,43.387,43.387,43.387
		c23.961,0,43.387-19.424,43.387-43.387C260.32,106.199,240.895,86.774,216.934,86.774z M235.358,142.07
		c-1.204,1.805-2.842,3.457-4.909,4.953c-2.064,1.496-4.683,2.729-7.838,3.697c-3.155,0.972-6.507,1.453-10.058,1.453
		c-3.844,0-7.477-0.562-10.895-1.693c-3.422-1.135-6.26-2.818-8.517-5.066c-2.266-2.244-3.392-4.805-3.392-7.684
		c0-4.725,2.695-9.814,8.1-15.275c3.431-3.404,6.896-5.781,10.387-7.132c1.646-0.675,3.073-1.013,4.273-1.013
		c1.319,0,2.377,0.4,3.164,1.189c0.77,0.768,1.147,1.82,1.147,3.17c0,0.912-0.176,1.967-0.528,3.166
		c-0.116,0.416-0.073,0.674,0.133,0.774c0.206,0.104,0.438,0.11,0.705,0.021l0.438-0.177c2.818-1.173,5.312-1.76,7.482-1.76
		c2.172,0,3.728,0.617,4.665,1.849c0.438,0.646,0.667,1.407,0.667,2.289c0,0.909-0.237,1.952-0.705,3.126
		c-0.207,0.292-0.241,0.543-0.112,0.748c0.129,0.204,0.249,0.338,0.353,0.399c0.104,0.056,0.313,0.132,0.637,0.22
		c1.818,0.557,3.37,1.468,4.664,2.729c1.294,1.258,1.943,2.831,1.943,4.71C237.164,138.498,236.562,140.266,235.358,142.07z
		 M232.241,120.257c-0.645-0.763-1.44-1.144-2.377-1.144c-0.297,0-0.589,0.029-0.882,0.084c-0.142,0.031-0.279,0.047-0.396,0.047
		c-0.322,0-0.632-0.102-0.924-0.307c-0.422-0.268-0.688-0.635-0.804-1.104c-0.026-0.146-0.043-0.297-0.043-0.44
		c0-0.294,0.086-0.603,0.266-0.925c0.259-0.414,0.646-0.679,1.145-0.793c0.559-0.115,1.1-0.176,1.629-0.176
		c1.965,0,3.654,0.779,5.061,2.336c0.851,0.965,1.41,2.066,1.672,3.303c0.09,0.498,0.138,0.979,0.138,1.448
		c0,0.705-0.12,1.412-0.353,2.112c-0.146,0.474-0.438,0.809-0.877,1.018c-0.267,0.145-0.524,0.219-0.791,0.219
		c-0.207,0-0.4-0.027-0.572-0.088c-0.473-0.148-0.825-0.44-1.058-0.881c-0.116-0.263-0.176-0.525-0.176-0.789
		c0-0.205,0.03-0.4,0.09-0.574c0.116-0.412,0.177-0.791,0.177-1.146C233.166,121.637,232.856,120.902,232.241,120.257z
		 M243.411,126.948v0.043c-0.173,0.528-0.512,0.925-1.011,1.188c-0.322,0.146-0.645,0.225-0.967,0.225
		c-0.207,0-0.426-0.035-0.662-0.089c-0.555-0.177-0.955-0.514-1.188-1.013c-0.15-0.322-0.223-0.631-0.223-0.924
		c0-0.236,0.029-0.456,0.09-0.664v-0.043c0.322-1,0.486-2.025,0.486-3.083c0-0.675-0.061-1.378-0.177-2.112
		c-0.383-1.816-1.204-3.418-2.468-4.799c-1.26-1.377-2.76-2.348-4.488-2.906c-1.027-0.292-2.055-0.436-3.082-0.436
		c-0.701,0-1.424,0.068-2.154,0.219c-0.146,0.027-0.297,0.043-0.443,0.043c-0.408,0-0.791-0.115-1.143-0.348
		c-0.474-0.332-0.766-0.771-0.882-1.329c-0.03-0.144-0.048-0.292-0.048-0.44c0-0.381,0.121-0.748,0.354-1.101
		c0.296-0.469,0.718-0.778,1.276-0.924c0.997-0.204,1.995-0.308,2.992-0.308c1.496,0,2.962,0.219,4.402,0.66
		c2.434,0.793,4.536,2.159,6.294,4.094c1.759,1.938,2.902,4.18,3.436,6.737c0.201,1.028,0.31,2.024,0.31,2.995
		C244.116,124.131,243.884,125.568,243.411,126.948z"/>
	<path fill="#E42127" d="M212.64,136.895c-0.267-0.088-0.551-0.075-0.86,0.025c-0.31,0.105-0.537,0.289-0.684,0.553
		c-0.09,0.176-0.133,0.351-0.133,0.525v0.262h0.004c0.091,0.264,0.279,0.455,0.572,0.576c0.146,0.056,0.283,0.09,0.421,0.09
		c0.129,0,0.271-0.034,0.413-0.09c0.322-0.121,0.559-0.312,0.705-0.576c0.15-0.262,0.176-0.525,0.09-0.787
		C213.078,137.209,212.901,137.018,212.64,136.895z"/>
	<path fill="#E42127" d="M209.204,138.344c-0.382-0.143-0.77-0.22-1.147-0.22c-0.353,0-0.723,0.054-1.101,0.177
		c-0.791,0.264-1.397,0.732-1.806,1.408c-0.322,0.469-0.486,0.958-0.486,1.453c0.009,0.21,0.039,0.399,0.095,0.578
		c0.177,0.732,0.619,1.246,1.324,1.539c0.383,0.176,0.778,0.264,1.191,0.264c0.348,0,0.7-0.061,1.053-0.176
		c0.821-0.265,1.453-0.748,1.892-1.453c0.293-0.469,0.443-0.938,0.443-1.41c0-0.202-0.048-0.424-0.138-0.658
		C210.348,139.141,209.905,138.638,209.204,138.344z"/>
</g>
<g>
	<path fill="#E42127" d="M564.027,86.774c-23.961,0-43.387,19.425-43.387,43.387s19.426,43.387,43.387,43.387
		c23.963,0,43.387-19.425,43.387-43.387S587.99,86.774,564.027,86.774z M573.744,135.358c0.297,0.393,0.781,0.579,1.473,0.579
		c1.592,0,3.256-1.112,4.947-3.309c1.736-2.26,2.619-5.324,2.619-9.105c0-5.618-2.34-9.537-7.156-11.983
		c-3.041-1.561-6.516-2.345-10.32-2.345c-7.01,0-12.715,2.164-16.953,6.433c-3.805,3.853-5.736,8.534-5.736,13.915
		c0,5.964,2.252,10.759,6.697,14.236c3.969,3.104,8.885,4.675,14.617,4.675c3.93,0,7.656-0.73,11.074-2.178
		c1.859-0.767,3.812-1.872,5.814-3.281l1.377-0.98l3.107,4.77l-0.525,0.41c-3.08,2.383-6.455,4.223-10.043,5.465
		c-3.59,1.25-7.365,1.886-11.221,1.886c-9.025,0-16.121-2.86-21.104-8.499c-4.135-4.674-6.229-10.292-6.229-16.689
		c0-7.164,2.619-13.326,7.771-18.304c5.402-5.247,12.404-7.909,20.811-7.909c6.854,0,12.619,1.829,17.139,5.434
		c4.809,3.838,7.248,9,7.248,15.342c0,4.988-1.545,9.335-4.59,12.919c-3.072,3.619-6.648,5.455-10.623,5.455
		c-2.158,0-3.855-0.639-5.049-1.886c-0.812-0.847-1.35-1.733-1.604-2.647c-0.516,0.71-1.057,1.331-1.625,1.854
		c-1.934,1.762-4.297,2.651-7.008,2.651c-2.783,0-5.127-1.014-6.977-3.019c-1.836-1.978-2.77-4.753-2.77-8.259
		c0-4,1.377-7.8,4.086-11.284c2.758-3.542,6.199-5.335,10.232-5.335c2.43,0,4.357,0.695,5.727,2.065
		c0.459,0.47,0.857,1.285,1.197,1.79l0.777-2.521h7.551l-4.355,14.703c-0.248,0.864-0.439,1.465-0.576,2.02
		c0,0-0.289,1.221-0.289,1.585C573.262,134.508,573.424,134.932,573.744,135.358z"/>
	<g>
		
			<ellipse transform="matrix(0.8829 0.4695 -0.4695 0.8829 125.7606 -248.5566)" fill="#E42127" cx="561.313" cy="127.91" rx="5.498" ry="8.001"/>
	</g>
</g>
<g>
	<path fill="#E42127" d="M661.455,110c-1.094-1.693-2.5-3.06-4.221-4.099c-1.722-1.037-3.812-1.557-6.27-1.557
		c-2.459,0-4.562,0.506-6.311,1.517c-1.75,1.011-3.197,2.335-4.344,3.975c-1.148,1.639-1.981,3.511-2.5,5.614
		c-0.52,2.104-0.779,4.248-0.779,6.434c0,2.131,0.273,4.207,0.82,6.229c0.545,2.021,1.393,3.811,2.541,5.368
		c1.146,1.557,2.594,2.814,4.344,3.77c1.748,0.957,3.823,1.435,6.229,1.435c2.239,0,4.206-0.478,5.9-1.435
		c1.693-0.955,3.114-2.213,4.262-3.77c1.147-1.558,2.008-3.347,2.582-5.368c0.573-2.021,0.86-4.098,0.86-6.229
		c0-2.076-0.246-4.152-0.737-6.229C663.34,113.579,662.547,111.693,661.455,110z"/>
	<path fill="#E42127" d="M650.801,86.774c-23.961,0-43.387,19.426-43.387,43.387c0,23.963,19.426,43.387,43.387,43.387
		c23.963,0,43.387-19.424,43.387-43.387C694.188,106.2,674.764,86.774,650.801,86.774z M669.732,140.077
		c0,3.115-0.342,5.928-1.024,8.442c-0.685,2.512-1.763,4.643-3.237,6.393c-1.475,1.748-3.401,3.086-5.777,4.016
		c-2.377,0.929-5.287,1.394-8.729,1.394c-2.131,0-4.209-0.246-6.229-0.738c-2.022-0.491-3.84-1.257-5.451-2.295
		s-2.95-2.363-4.016-3.975c-1.065-1.612-1.68-3.538-1.844-5.778h5.163c0.272,1.585,0.806,2.91,1.599,3.976
		c0.791,1.065,1.748,1.926,2.868,2.581c1.119,0.656,2.362,1.134,3.729,1.435c1.365,0.3,2.758,0.451,4.18,0.451
		c4.807,0,8.277-1.367,10.408-4.099c2.131-2.732,3.196-6.666,3.196-11.802v-5.736h-0.164c-1.202,2.622-2.964,4.727-5.286,6.311
		c-2.323,1.585-5.041,2.377-8.154,2.377c-3.389,0-6.284-0.56-8.688-1.681c-2.405-1.119-4.385-2.663-5.942-4.63
		c-1.558-1.968-2.691-4.274-3.401-6.926c-0.711-2.649-1.064-5.477-1.064-8.482c0-2.896,0.422-5.641,1.27-8.236
		c0.847-2.595,2.076-4.862,3.688-6.803c1.611-1.938,3.607-3.469,5.983-4.59c2.377-1.119,5.095-1.68,8.155-1.68
		c1.584,0,3.072,0.219,4.467,0.655c1.393,0.438,2.663,1.053,3.811,1.845c1.146,0.792,2.172,1.708,3.073,2.745
		c0.901,1.039,1.599,2.131,2.09,3.278h0.164v-7.294h5.163V140.077z"/>
</g>
</svg>
