<?xml version="1.0" encoding="utf-8"?>
<!-- Generator: Adobe Illustrator 15.1.0, SVG Export Plug-In . SVG Version: 6.00 Build 0)  -->
<!DOCTYPE svg PUBLIC "-//W3C//DTD SVG 1.1//EN" "http://www.w3.org/Graphics/SVG/1.1/DTD/svg11.dtd">
<svg version="1.1" id="Calque_1" xmlns="http://www.w3.org/2000/svg" xmlns:xlink="http://www.w3.org/1999/xlink" x="0px" y="0px"
	 width="86.773px" height="86.773px" viewBox="0 0 86.773 86.773" enable-background="new 0 0 86.773 86.773" xml:space="preserve">
<path display="none" d="M43.387,0C19.425,0,0,19.426,0,43.387C0,67.35,19.425,86.773,43.387,86.773S86.774,67.35,86.774,43.387
	C86.774,19.426,67.349,0,43.387,0z M40.88,46.981l-8.34,8.375V45.131l-0.097,0.064l-10.75-12.654h-7.23l18.078-18.078v7.23
	l12.65,10.752l-0.061,0.096h10.222l-8.594,8.572l20.175,25.811L40.88,46.981z"/>
<path display="none" d="M43.387,0C19.424,0,0,19.425,0,43.387c0,23.962,19.424,43.387,43.387,43.387
	c23.961,0,43.387-19.425,43.387-43.387C86.774,19.425,67.348,0,43.387,0z M22.35,72.24c-4.356,0-7.887-3.53-7.887-7.888
	c0-4.354,3.529-7.885,7.887-7.885c4.351,0,7.894,3.53,7.894,7.885C30.238,68.713,26.699,72.24,22.35,72.24z M42.133,72.314v-0.003
	c0-7.438-2.885-14.441-8.109-19.695c-5.219-5.247-12.129-8.139-19.561-8.139V33.094c21.063,0,39.057,18.151,39.057,39.221
	L42.133,72.314L42.133,72.314z M62.248,72.314v-0.003c0-26.479-21.765-48.021-47.785-48.021v-11.38
	c32.215,0,59.168,26.647,59.168,59.402L62.248,72.314L62.248,72.314z"/>
<path display="none" d="M43.387,0C19.425,0,0,19.425,0,43.387c0,23.962,19.425,43.387,43.387,43.387s43.387-19.425,43.387-43.387
	C86.774,19.425,67.349,0,43.387,0z M28.925,68.696h-0.47H18.079V32.54h10.847L28.925,68.696L28.925,68.696z M23.502,27.625
	c-3.651,0-6.61-2.956-6.61-6.609c0-3.651,2.959-6.606,6.61-6.606c3.649,0,6.608,2.956,6.608,6.606
	C30.112,24.67,27.153,27.625,23.502,27.625z M68.697,68.696H57.85V49.559c0-4.517-1.925-7.596-5.964-7.596
	c-3.086,0-3.707,2.076-4.516,4.082c-0.297,0.718-0.367,1.721-0.367,2.723v19.928H36.157c0,0,0.147-33.003,0-36.156h10.847v6.158
	c0-2.284,2.56-6.271,11.072-6.271c8.51,0,10.62,0.269,10.62,12.225C68.697,56.61,68.697,68.696,68.697,68.696z"/>
<path display="none" d="M43.387,0C19.425,0,0,19.425,0,43.387c0,23.962,19.425,43.387,43.387,43.387s43.387-19.425,43.387-43.387
	C86.774,19.425,67.349,0,43.387,0z M36.155,57.849h-7.23V47.002h7.23V57.849z M47.002,61.465h-7.231v-3.615h7.231V61.465z
	 M57.849,57.849h-7.23V47.002h7.23V57.849z M72.311,47.002c0,6.666-3.65,12.429-9.018,15.561c1.1-1.269,1.787-2.902,1.787-4.713
	v-7.231c0-3.99-3.24-7.23-7.231-7.23H28.924c-3.992,0-7.231,3.24-7.231,7.23v7.231c0,1.811,0.688,3.445,1.787,4.713
	c-5.367-3.132-9.018-8.895-9.018-15.561v-3.616c0-4.131,1.284-7.803,3.616-10.847V18.078l14.462,7.224l21.692,0.008l14.462-7.231
	L68.92,32.54c2.614,3.136,3.391,6.444,3.391,10.848V47.002z"/>
<path display="none" d="M43.387,0C19.424,0,0,19.425,0,43.387c0,23.962,19.424,43.387,43.387,43.387
	c23.961,0,43.387-19.425,43.387-43.387C86.774,19.425,67.348,0,43.387,0z M69.213,32.208c0.021,0.551,0.035,1.116,0.035,1.677
	c0,17.132-13.038,36.88-36.878,36.88c-7.321,0-14.135-2.146-19.868-5.826c1.018,0.12,2.047,0.184,3.092,0.184
	c6.07,0,11.66-2.069,16.097-5.547c-5.675-0.099-10.456-3.849-12.107-8.996c0.791,0.155,1.604,0.222,2.438,0.222
	c1.184,0,2.324-0.162,3.414-0.451c-5.934-1.188-10.397-6.427-10.397-12.711c0-0.061,0-0.104,0-0.159
	c1.746,0.968,3.744,1.557,5.871,1.613c-3.476-2.322-5.769-6.288-5.769-10.782c0-2.376,0.643-4.604,1.754-6.515
	c6.394,7.838,15.941,13,26.719,13.541c-0.224-0.954-0.335-1.938-0.335-2.959c0-7.152,5.805-12.955,12.963-12.955
	c3.727,0,7.097,1.571,9.461,4.093c2.948-0.583,5.723-1.66,8.229-3.149c-0.97,3.033-3.023,5.568-5.699,7.171
	c2.625-0.304,5.119-1.003,7.445-2.038C73.938,28.098,71.742,30.375,69.213,32.208z"/>
<g display="none">
	<path display="inline" d="M48.781,42.814c-2.73-1.44-5.815-2.158-9.246-2.158c-0.853,0-1.721,0.047-2.598,0.135
		c-2.966,0.294-5.648,1.041-8.057,2.244s-4.261,2.688-5.55,4.45c-1.118,1.554-1.673,3.153-1.673,4.798
		c0,0.26,0.018,0.522,0.048,0.789c0.292,2.964,2.123,5.324,5.503,7.085c2.694,1.44,5.765,2.156,9.2,2.156
		c0.851,0,1.731-0.045,2.64-0.133c4.492-0.44,8.234-1.864,11.228-4.271c2.703-2.201,4.05-4.622,4.05-7.264
		c0-0.263-0.014-0.529-0.043-0.787C53.991,46.92,52.155,44.575,48.781,42.814z M44.816,54.704c-0.908,2.083-2.513,3.613-4.8,4.579
		c-1.294,0.557-2.584,0.836-3.873,0.836c-0.998,0-1.981-0.154-2.949-0.48c-2.142-0.682-3.624-1.958-4.444-3.838
		c-0.383-0.851-0.572-1.711-0.572-2.597c0-1.027,0.263-2.053,0.791-3.083c0.911-1.876,2.434-3.282,4.579-4.224
		c1.319-0.589,2.656-0.877,4.002-0.877c0.796,0,1.591,0.104,2.378,0.308c2.235,0.591,3.83,1.791,4.804,3.615
		c0.499,0.938,0.748,1.903,0.748,2.899C45.479,52.784,45.251,53.734,44.816,54.704z"/>
	<path display="inline" d="M43.387,0C19.424,0,0,19.425,0,43.387c0,23.962,19.424,43.387,43.387,43.387
		c23.961,0,43.387-19.425,43.387-43.387C86.774,19.425,67.348,0,43.387,0z M61.812,55.297c-1.204,1.805-2.842,3.457-4.909,4.953
		c-2.063,1.496-4.683,2.729-7.838,3.697C45.91,64.919,42.558,65.4,39.007,65.4c-3.844,0-7.478-0.563-10.896-1.694
		c-3.422-1.135-6.26-2.817-8.517-5.065c-2.266-2.244-3.392-4.806-3.392-7.684c0-4.725,2.694-9.814,8.1-15.274
		c3.431-3.405,6.896-5.782,10.387-7.133c1.646-0.675,3.073-1.012,4.273-1.012c1.319,0,2.377,0.4,3.164,1.188
		c0.77,0.768,1.146,1.82,1.146,3.171c0,0.911-0.176,1.967-0.527,3.166c-0.116,0.415-0.073,0.673,0.133,0.773
		c0.206,0.104,0.438,0.11,0.705,0.021l0.438-0.176c2.818-1.174,5.312-1.761,7.482-1.761c2.172,0,3.728,0.617,4.665,1.85
		c0.438,0.645,0.667,1.408,0.667,2.289c0,0.909-0.237,1.952-0.705,3.125c-0.207,0.292-0.241,0.544-0.112,0.748
		c0.129,0.205,0.249,0.338,0.354,0.399c0.104,0.057,0.312,0.131,0.637,0.219c1.818,0.558,3.37,1.469,4.664,2.73
		c1.294,1.258,1.943,2.831,1.943,4.71C63.617,51.724,63.016,53.491,61.812,55.297z M58.694,33.483
		c-0.645-0.764-1.439-1.145-2.377-1.145c-0.297,0-0.589,0.03-0.882,0.083c-0.142,0.032-0.278,0.047-0.396,0.047
		c-0.322,0-0.632-0.101-0.924-0.307c-0.423-0.267-0.688-0.634-0.805-1.103c-0.025-0.146-0.043-0.296-0.043-0.44
		c0-0.294,0.086-0.602,0.267-0.924c0.259-0.415,0.646-0.679,1.145-0.793c0.559-0.116,1.1-0.176,1.629-0.176
		c1.965,0,3.654,0.779,5.062,2.337c0.851,0.965,1.409,2.064,1.672,3.302c0.09,0.499,0.138,0.979,0.138,1.449
		c0,0.705-0.12,1.412-0.353,2.112c-0.146,0.474-0.438,0.81-0.877,1.018c-0.268,0.144-0.524,0.219-0.791,0.219
		c-0.207,0-0.4-0.028-0.572-0.088c-0.474-0.148-0.825-0.44-1.059-0.881c-0.115-0.262-0.176-0.524-0.176-0.789
		c0-0.205,0.03-0.4,0.09-0.574c0.116-0.413,0.178-0.791,0.178-1.146C59.619,34.863,59.31,34.128,58.694,33.483z M69.865,40.174
		v0.043c-0.174,0.529-0.513,0.925-1.012,1.189c-0.321,0.146-0.645,0.224-0.967,0.224c-0.207,0-0.426-0.035-0.662-0.088
		c-0.555-0.176-0.955-0.514-1.188-1.012c-0.15-0.323-0.224-0.632-0.224-0.924c0-0.237,0.029-0.456,0.09-0.665v-0.043
		c0.322-1,0.486-2.025,0.486-3.083c0-0.675-0.061-1.377-0.177-2.113c-0.383-1.816-1.204-3.418-2.468-4.798
		c-1.261-1.378-2.761-2.348-4.488-2.906c-1.027-0.292-2.055-0.437-3.082-0.437c-0.701,0-1.424,0.068-2.154,0.219
		c-0.146,0.028-0.297,0.043-0.442,0.043c-0.408,0-0.791-0.116-1.144-0.348c-0.474-0.331-0.766-0.771-0.882-1.329
		c-0.03-0.145-0.048-0.292-0.048-0.44c0-0.38,0.121-0.748,0.354-1.101c0.296-0.47,0.719-0.778,1.276-0.924
		c0.997-0.204,1.995-0.309,2.992-0.309c1.496,0,2.962,0.219,4.401,0.66c2.435,0.793,4.536,2.158,6.294,4.095
		c1.76,1.938,2.902,4.18,3.437,6.737c0.201,1.028,0.31,2.025,0.31,2.995C70.569,37.356,70.337,38.794,69.865,40.174z"/>
	<path display="inline" d="M39.093,50.121c-0.267-0.088-0.551-0.075-0.86,0.026c-0.31,0.104-0.537,0.288-0.684,0.552
		c-0.09,0.176-0.133,0.351-0.133,0.525v0.262h0.004c0.091,0.265,0.279,0.456,0.572,0.576c0.146,0.056,0.282,0.09,0.421,0.09
		c0.129,0,0.271-0.034,0.413-0.09c0.321-0.12,0.559-0.312,0.705-0.576c0.149-0.262,0.176-0.524,0.09-0.787
		C39.531,50.435,39.354,50.243,39.093,50.121z"/>
	<path display="inline" d="M35.657,51.569c-0.383-0.143-0.771-0.219-1.147-0.219c-0.353,0-0.723,0.054-1.101,0.176
		c-0.791,0.265-1.397,0.732-1.807,1.408c-0.321,0.469-0.485,0.958-0.485,1.453c0.009,0.21,0.039,0.399,0.095,0.577
		c0.177,0.733,0.619,1.247,1.324,1.539c0.383,0.177,0.777,0.266,1.19,0.266c0.349,0,0.7-0.062,1.053-0.178
		c0.821-0.264,1.453-0.748,1.893-1.452c0.293-0.469,0.443-0.938,0.443-1.41c0-0.202-0.049-0.424-0.139-0.658
		C36.801,52.367,36.358,51.864,35.657,51.569z"/>
</g>
<g display="none">
	<path display="inline" d="M43.388,0C19.427,0,0.001,19.425,0.001,43.387c0,23.962,19.426,43.387,43.387,43.387
		c23.963,0,43.387-19.425,43.387-43.387C86.775,19.425,67.351,0,43.388,0z M53.104,48.584c0.297,0.394,0.781,0.579,1.474,0.579
		c1.592,0,3.256-1.112,4.946-3.309c1.736-2.261,2.619-5.324,2.619-9.105c0-5.618-2.34-9.537-7.156-11.982
		c-3.041-1.562-6.516-2.346-10.319-2.346c-7.01,0-12.715,2.164-16.953,6.434c-3.805,3.853-5.736,8.534-5.736,13.915
		c0,5.964,2.252,10.759,6.697,14.235c3.969,3.104,8.885,4.676,14.617,4.676c3.93,0,7.656-0.73,11.074-2.179
		c1.858-0.767,3.812-1.872,5.813-3.28l1.377-0.98l3.107,4.77l-0.525,0.41c-3.08,2.384-6.455,4.224-10.043,5.465
		c-3.59,1.25-7.365,1.887-11.221,1.887c-9.025,0-16.121-2.86-21.104-8.499c-4.135-4.674-6.229-10.292-6.229-16.689
		c0-7.164,2.619-13.326,7.771-18.304c5.402-5.247,12.404-7.909,20.812-7.909c6.854,0,12.619,1.829,17.139,5.435
		c4.809,3.838,7.248,9,7.248,15.342c0,4.987-1.545,9.335-4.59,12.919c-3.072,3.619-6.648,5.455-10.623,5.455
		c-2.158,0-3.855-0.64-5.049-1.887c-0.812-0.847-1.351-1.732-1.604-2.646c-0.516,0.71-1.057,1.331-1.625,1.854
		c-1.934,1.763-4.297,2.651-7.008,2.651c-2.783,0-5.127-1.014-6.977-3.019c-1.836-1.979-2.771-4.753-2.771-8.26
		c0-4,1.377-7.8,4.086-11.283c2.758-3.542,6.199-5.335,10.232-5.335c2.43,0,4.356,0.694,5.727,2.064
		c0.459,0.47,0.857,1.285,1.197,1.79l0.777-2.521h7.551L53.48,43.633c-0.248,0.864-0.438,1.466-0.576,2.021
		c0,0-0.288,1.221-0.288,1.585C52.622,47.733,52.784,48.157,53.104,48.584z"/>
	<g display="inline">
		<ellipse transform="matrix(0.4695 -0.8829 0.8829 0.4695 -14.7468 57.736)" cx="40.673" cy="41.14" rx="8.002" ry="5.498"/>
	</g>
</g>
<g display="none">
	<path display="inline" d="M54.042,23.226c-1.093-1.693-2.5-3.061-4.222-4.1c-1.721-1.037-3.811-1.557-6.27-1.557
		s-4.562,0.506-6.311,1.517c-1.75,1.012-3.196,2.335-4.345,3.976c-1.146,1.639-1.98,3.511-2.5,5.613
		c-0.52,2.104-0.778,4.248-0.778,6.435c0,2.131,0.272,4.207,0.819,6.229c0.545,2.021,1.394,3.812,2.541,5.368
		c1.147,1.558,2.594,2.814,4.344,3.771c1.748,0.957,3.824,1.435,6.229,1.435c2.24,0,4.207-0.478,5.901-1.435
		c1.692-0.955,3.113-2.213,4.262-3.771c1.146-1.558,2.008-3.347,2.582-5.368c0.574-2.021,0.861-4.098,0.861-6.229
		c0-2.076-0.246-4.152-0.738-6.229C55.927,26.805,55.134,24.919,54.042,23.226z"/>
	<path display="inline" d="M43.388,0C19.427,0,0.001,19.426,0.001,43.387c0,23.963,19.426,43.387,43.387,43.387
		c23.963,0,43.387-19.424,43.387-43.387C86.774,19.426,67.351,0,43.388,0z M62.319,53.302c0,3.115-0.342,5.929-1.023,8.442
		c-0.685,2.512-1.762,4.644-3.237,6.394c-1.475,1.747-3.4,3.086-5.778,4.016c-2.377,0.929-5.285,1.394-8.729,1.394
		c-2.131,0-4.208-0.246-6.229-0.737s-3.839-1.258-5.449-2.295c-1.612-1.038-2.951-2.363-4.017-3.976
		c-1.064-1.612-1.68-3.538-1.844-5.777h5.163c0.273,1.585,0.806,2.909,1.598,3.976c0.792,1.064,1.748,1.926,2.869,2.581
		c1.119,0.656,2.363,1.134,3.729,1.435c1.364,0.301,2.758,0.451,4.18,0.451c4.807,0,8.278-1.367,10.409-4.099
		c2.131-2.732,3.196-6.666,3.196-11.802v-5.736h-0.164c-1.203,2.622-2.965,4.727-5.286,6.311c-2.323,1.585-5.041,2.377-8.155,2.377
		c-3.388,0-6.284-0.56-8.688-1.681c-2.404-1.119-4.385-2.663-5.941-4.63c-1.558-1.968-2.691-4.274-3.401-6.926
		c-0.711-2.649-1.064-5.478-1.064-8.482c0-2.896,0.422-5.641,1.27-8.236c0.847-2.595,2.076-4.861,3.688-6.803
		c1.61-1.938,3.605-3.469,5.982-4.59c2.377-1.119,5.095-1.68,8.155-1.68c1.584,0,3.073,0.219,4.467,0.654
		c1.394,0.438,2.664,1.054,3.812,1.846c1.146,0.792,2.171,1.708,3.072,2.745c0.901,1.039,1.599,2.131,2.091,3.277h0.164v-7.294
		h5.162V53.302z"/>
</g>
<path display="none" fill="#E42127" d="M43.387,0C19.425,0,0,19.426,0,43.385c0,23.964,19.425,43.388,43.387,43.388
	s43.387-19.424,43.387-43.388C86.773,19.426,67.349,0,43.387,0z M40.88,46.982l-8.34,8.375V45.13l-0.097,0.064L21.693,32.541h-7.23
	L32.54,14.463v7.23l12.65,10.751L45.13,32.54h10.222l-8.594,8.572l20.175,25.811L40.88,46.982z"/>
<path display="none" fill="#E42127" d="M43.387,0C19.424,0,0,19.425,0,43.385c0,23.964,19.424,43.388,43.387,43.388
	c23.961,0,43.387-19.424,43.387-43.388C86.773,19.425,67.348,0,43.387,0z M22.35,72.24c-4.356,0-7.887-3.529-7.887-7.887
	c0-4.354,3.529-7.886,7.887-7.886c4.351,0,7.894,3.531,7.894,7.886C30.238,68.712,26.699,72.24,22.35,72.24z M42.133,72.314v-0.002
	c0-7.438-2.885-14.441-8.109-19.695c-5.219-5.248-12.129-8.139-19.561-8.139V33.094c21.063,0,39.057,18.15,39.057,39.22H42.133z
	 M62.248,72.314v-0.002c0-26.479-21.765-48.021-47.785-48.021v-11.38c32.215,0,59.168,26.648,59.168,59.402H62.248z"/>
<path display="none" fill="#E42127" d="M43.387,0C19.425,0,0,19.425,0,43.385c0,23.964,19.425,43.388,43.387,43.388
	s43.387-19.424,43.387-43.388C86.773,19.425,67.349,0,43.387,0z M28.925,68.696h-0.47H18.078V32.541h10.847V68.696z M23.502,27.625
	c-3.651,0-6.61-2.956-6.61-6.609c0-3.651,2.959-6.606,6.61-6.606c3.649,0,6.608,2.956,6.608,6.606
	C30.111,24.669,27.152,27.625,23.502,27.625z M68.696,68.696H57.85V49.558c0-4.517-1.925-7.595-5.964-7.595
	c-3.086,0-3.707,2.076-4.516,4.081c-0.297,0.718-0.367,1.721-0.367,2.723v19.929H36.156c0,0,0.147-33.003,0-36.155h10.847v6.157
	c0-2.284,2.56-6.271,11.072-6.271c8.51,0,10.62,0.269,10.62,12.225C68.696,56.61,68.696,68.696,68.696,68.696z"/>
<path display="none" fill="#E42127" d="M43.387,0C19.425,0,0,19.425,0,43.385c0,23.964,19.425,43.388,43.387,43.388
	s43.387-19.424,43.387-43.388C86.773,19.425,67.349,0,43.387,0z M36.155,57.849h-7.23V47.002h7.23V57.849z M47.002,61.464h-7.231
	v-3.614h7.231V61.464z M57.849,57.849h-7.23V47.002h7.23V57.849z M72.311,47.002c0,6.666-3.65,12.43-9.018,15.561
	c1.1-1.269,1.787-2.902,1.787-4.713v-7.23c0-3.99-3.24-7.231-7.231-7.231H28.924c-3.992,0-7.231,3.241-7.231,7.231v7.23
	c0,1.811,0.688,3.444,1.787,4.713c-5.367-3.131-9.018-8.895-9.018-15.561v-3.616c0-4.131,1.284-7.803,3.616-10.846V18.078
	l14.462,7.224l21.692,0.008l14.462-7.231L68.92,32.54c2.614,3.135,3.391,6.443,3.391,10.846V47.002z"/>
<path display="none" fill="#E42127" d="M43.387,0C19.424,0,0,19.425,0,43.385c0,23.964,19.424,43.388,43.387,43.388
	c23.961,0,43.387-19.424,43.387-43.388C86.773,19.425,67.348,0,43.387,0z M69.213,32.208c0.021,0.551,0.035,1.115,0.035,1.677
	c0,17.133-13.038,36.881-36.878,36.881c-7.321,0-14.135-2.146-19.868-5.826c1.018,0.119,2.047,0.184,3.092,0.184
	c6.07,0,11.66-2.068,16.097-5.547c-5.675-0.1-10.456-3.85-12.107-8.996c0.791,0.154,1.604,0.222,2.438,0.222
	c1.184,0,2.324-0.162,3.414-0.451c-5.934-1.187-10.397-6.427-10.397-12.711c0-0.061,0-0.103,0-0.158
	c1.746,0.967,3.744,1.557,5.871,1.612c-3.476-2.322-5.769-6.288-5.769-10.782c0-2.377,0.643-4.604,1.754-6.515
	c6.394,7.838,15.941,13,26.719,13.541c-0.224-0.954-0.335-1.938-0.335-2.959c0-7.152,5.805-12.955,12.963-12.955
	c3.727,0,7.097,1.571,9.461,4.093c2.948-0.582,5.723-1.66,8.229-3.149c-0.97,3.032-3.023,5.567-5.699,7.171
	c2.625-0.303,5.119-1.002,7.445-2.037C73.938,28.098,71.742,30.375,69.213,32.208z"/>
<g display="none">
	<path display="inline" fill="#E42127" d="M48.781,42.814c-2.73-1.439-5.815-2.158-9.246-2.158c-0.853,0-1.721,0.047-2.598,0.136
		c-2.966,0.294-5.648,1.04-8.057,2.244s-4.261,2.688-5.55,4.45c-1.118,1.554-1.673,3.152-1.673,4.797
		c0,0.26,0.018,0.523,0.048,0.789c0.292,2.965,2.123,5.324,5.503,7.086c2.694,1.439,5.765,2.155,9.2,2.155
		c0.851,0,1.731-0.045,2.64-0.134c4.492-0.439,8.234-1.863,11.228-4.271c2.703-2.201,4.05-4.622,4.05-7.264
		c0-0.264-0.014-0.528-0.043-0.786C53.991,46.919,52.155,44.575,48.781,42.814z M44.816,54.704c-0.908,2.083-2.513,3.613-4.8,4.579
		c-1.294,0.557-2.584,0.836-3.873,0.836c-0.998,0-1.981-0.154-2.949-0.481c-2.142-0.682-3.624-1.957-4.444-3.837
		c-0.383-0.852-0.572-1.711-0.572-2.598c0-1.027,0.263-2.053,0.791-3.082c0.911-1.877,2.434-3.282,4.579-4.225
		c1.319-0.588,2.656-0.877,4.002-0.877c0.796,0,1.591,0.104,2.378,0.309c2.235,0.59,3.83,1.79,4.804,3.615
		c0.499,0.938,0.748,1.901,0.748,2.898C45.479,52.785,45.251,53.734,44.816,54.704z"/>
	<path display="inline" fill="#E42127" d="M43.387,0C19.424,0,0,19.425,0,43.385c0,23.964,19.424,43.388,43.387,43.388
		c23.961,0,43.387-19.424,43.387-43.388C86.773,19.425,67.348,0,43.387,0z M61.812,55.296c-1.204,1.806-2.842,3.457-4.909,4.953
		c-2.063,1.496-4.683,2.729-7.838,3.697c-3.154,0.972-6.507,1.453-10.058,1.453c-3.844,0-7.478-0.562-10.896-1.693
		c-3.422-1.135-6.26-2.817-8.517-5.065c-2.266-2.244-3.392-4.806-3.392-7.685c0-4.725,2.694-9.813,8.1-15.274
		c3.431-3.404,6.896-5.781,10.387-7.133c1.646-0.675,3.073-1.013,4.273-1.013c1.319,0,2.377,0.4,3.164,1.189
		c0.77,0.768,1.146,1.819,1.146,3.17c0,0.912-0.176,1.967-0.527,3.166c-0.116,0.416-0.073,0.674,0.133,0.773
		c0.206,0.104,0.438,0.11,0.705,0.021l0.438-0.177c2.818-1.174,5.312-1.761,7.482-1.761c2.172,0,3.728,0.617,4.665,1.85
		c0.438,0.646,0.667,1.406,0.667,2.289c0,0.908-0.237,1.951-0.705,3.126c-0.207,0.292-0.241,0.543-0.112,0.748
		c0.129,0.203,0.249,0.338,0.354,0.398c0.104,0.056,0.312,0.132,0.637,0.22c1.818,0.558,3.37,1.469,4.664,2.729
		c1.294,1.258,1.943,2.831,1.943,4.71C63.617,51.724,63.016,53.492,61.812,55.296z M58.694,33.483
		c-0.645-0.764-1.439-1.145-2.377-1.145c-0.297,0-0.589,0.029-0.882,0.084c-0.142,0.031-0.278,0.047-0.396,0.047
		c-0.322,0-0.632-0.102-0.924-0.307c-0.423-0.268-0.688-0.635-0.805-1.104c-0.025-0.146-0.043-0.297-0.043-0.44
		c0-0.294,0.086-0.603,0.267-0.925c0.259-0.414,0.646-0.679,1.145-0.793c0.559-0.115,1.1-0.176,1.629-0.176
		c1.965,0,3.654,0.778,5.062,2.336c0.851,0.965,1.409,2.065,1.672,3.303c0.09,0.498,0.138,0.979,0.138,1.448
		c0,0.705-0.12,1.412-0.353,2.111c-0.146,0.475-0.438,0.81-0.877,1.019c-0.268,0.145-0.524,0.219-0.791,0.219
		c-0.207,0-0.4-0.027-0.572-0.088c-0.474-0.148-0.825-0.44-1.059-0.881c-0.115-0.263-0.176-0.525-0.176-0.789
		c0-0.205,0.03-0.4,0.09-0.574c0.116-0.412,0.178-0.791,0.178-1.146C59.619,34.863,59.31,34.128,58.694,33.483z M69.865,40.174
		v0.043c-0.174,0.528-0.513,0.926-1.012,1.188c-0.321,0.146-0.645,0.225-0.967,0.225c-0.207,0-0.426-0.035-0.662-0.089
		c-0.555-0.177-0.955-0.514-1.188-1.013c-0.15-0.322-0.224-0.631-0.224-0.924c0-0.236,0.029-0.456,0.09-0.664v-0.043
		c0.322-1,0.486-2.025,0.486-3.083c0-0.675-0.061-1.378-0.177-2.112c-0.383-1.816-1.204-3.418-2.468-4.799
		c-1.261-1.377-2.761-2.348-4.488-2.906c-1.027-0.292-2.055-0.436-3.082-0.436c-0.701,0-1.424,0.067-2.154,0.219
		c-0.146,0.027-0.297,0.043-0.442,0.043c-0.408,0-0.791-0.115-1.144-0.348c-0.474-0.332-0.766-0.771-0.882-1.329
		c-0.03-0.145-0.048-0.292-0.048-0.44c0-0.381,0.121-0.748,0.354-1.101c0.296-0.47,0.719-0.778,1.276-0.924
		c0.997-0.204,1.995-0.309,2.992-0.309c1.496,0,2.962,0.219,4.401,0.66c2.435,0.793,4.536,2.159,6.294,4.094
		c1.76,1.938,2.902,4.181,3.437,6.737c0.201,1.028,0.31,2.024,0.31,2.995C70.569,37.357,70.337,38.794,69.865,40.174z"/>
	<path display="inline" fill="#E42127" d="M39.093,50.121c-0.267-0.088-0.551-0.075-0.86,0.025c-0.31,0.104-0.537,0.289-0.684,0.553
		c-0.09,0.176-0.133,0.351-0.133,0.525v0.262h0.004c0.091,0.264,0.279,0.455,0.572,0.576c0.146,0.056,0.282,0.09,0.421,0.09
		c0.129,0,0.271-0.034,0.413-0.09c0.321-0.121,0.559-0.312,0.705-0.576c0.149-0.262,0.176-0.525,0.09-0.787
		C39.531,50.435,39.354,50.244,39.093,50.121z"/>
	<path display="inline" fill="#E42127" d="M35.657,51.57c-0.383-0.144-0.771-0.22-1.147-0.22c-0.353,0-0.723,0.054-1.101,0.177
		c-0.791,0.264-1.397,0.731-1.807,1.408c-0.321,0.469-0.485,0.958-0.485,1.453c0.009,0.21,0.039,0.398,0.095,0.577
		c0.177,0.732,0.619,1.246,1.324,1.539c0.383,0.177,0.777,0.265,1.19,0.265c0.349,0,0.7-0.062,1.053-0.177
		c0.821-0.265,1.453-0.748,1.893-1.452c0.293-0.47,0.443-0.938,0.443-1.41c0-0.202-0.049-0.424-0.139-0.658
		C36.801,52.367,36.358,51.864,35.657,51.57z"/>
</g>
<g display="none">
	<path display="inline" fill="#E42127" d="M43.387,0C19.426,0,0,19.425,0,43.387c0,23.962,19.426,43.387,43.387,43.387
		c23.963,0,43.387-19.425,43.387-43.387C86.774,19.425,67.35,0,43.387,0z M53.104,48.584c0.297,0.394,0.781,0.579,1.474,0.579
		c1.592,0,3.256-1.112,4.946-3.309c1.736-2.261,2.619-5.324,2.619-9.105c0-5.618-2.34-9.537-7.156-11.982
		c-3.041-1.562-6.516-2.346-10.319-2.346c-7.01,0-12.715,2.164-16.953,6.434c-3.805,3.853-5.736,8.534-5.736,13.915
		c0,5.964,2.252,10.759,6.697,14.235c3.969,3.104,8.885,4.676,14.617,4.676c3.93,0,7.656-0.73,11.074-2.179
		c1.858-0.767,3.812-1.872,5.813-3.28l1.377-0.98l3.107,4.77l-0.525,0.41c-3.08,2.384-6.455,4.224-10.043,5.465
		c-3.59,1.25-7.365,1.887-11.221,1.887c-9.025,0-16.121-2.86-21.104-8.499c-4.135-4.674-6.229-10.292-6.229-16.689
		c0-7.164,2.619-13.326,7.771-18.304c5.402-5.247,12.404-7.909,20.812-7.909c6.854,0,12.619,1.829,17.139,5.435
		c4.809,3.838,7.248,9,7.248,15.342c0,4.987-1.545,9.335-4.59,12.919c-3.072,3.619-6.648,5.455-10.623,5.455
		c-2.158,0-3.855-0.64-5.049-1.887c-0.812-0.847-1.351-1.732-1.604-2.646c-0.516,0.71-1.057,1.331-1.625,1.854
		c-1.934,1.763-4.297,2.651-7.008,2.651c-2.783,0-5.127-1.014-6.977-3.019c-1.836-1.979-2.771-4.753-2.771-8.26
		c0-4,1.377-7.8,4.086-11.283c2.758-3.542,6.199-5.335,10.232-5.335c2.43,0,4.356,0.694,5.727,2.064
		c0.459,0.47,0.857,1.285,1.197,1.79l0.777-2.521h7.551L53.48,43.633c-0.248,0.864-0.438,1.466-0.576,2.021
		c0,0-0.288,1.221-0.288,1.585C52.621,47.733,52.783,48.157,53.104,48.584z"/>
	<g display="inline">
		
			<ellipse transform="matrix(0.4695 -0.8829 0.8829 0.4695 -14.7443 57.7302)" fill="#E42127" cx="40.67" cy="41.135" rx="8.001" ry="5.497"/>
	</g>
</g>
<path fill="#E42127" d="M57.156,35.107c0,2.13-0.289,4.21-0.859,6.23c-0.58,2.02-1.44,3.81-2.58,5.37
	c-1.15,1.56-2.57,2.819-4.271,3.77c-1.689,0.96-3.659,1.44-5.899,1.44c-2.4,0-4.48-0.48-6.23-1.44s-3.19-2.21-4.34-3.77
	c-1.15-1.561-2-3.35-2.54-5.37c-0.55-2.02-0.82-4.1-0.82-6.23c0-2.18,0.26-4.33,0.78-6.43c0.52-2.1,1.35-3.98,2.5-5.61
	c1.15-1.64,2.59-2.97,4.34-3.98c1.75-1.01,3.85-1.52,6.31-1.52s4.55,0.52,6.27,1.56c1.721,1.04,3.13,2.41,4.221,4.1
	c1.1,1.69,1.89,3.58,2.38,5.65C56.906,30.956,57.156,33.036,57.156,35.107z"/>
<path fill="#E42127" d="M43.387-0.004c-23.96,0-43.39,19.43-43.39,43.39s19.43,43.39,43.39,43.39s43.39-19.43,43.39-43.39
	S67.347-0.004,43.387-0.004z M62.317,53.306c0,3.11-0.34,5.92-1.02,8.44c-0.69,2.51-1.771,4.64-3.24,6.39s-3.4,3.09-5.78,4.02
	c-2.37,0.931-5.279,1.391-8.729,1.391c-2.13,0-4.2-0.24-6.23-0.74c-2.02-0.49-3.84-1.25-5.45-2.29s-2.95-2.36-4.01-3.979
	c-1.07-1.61-1.68-3.53-1.85-5.771h5.17c0.27,1.58,0.8,2.91,1.6,3.97c0.79,1.07,1.74,1.931,2.86,2.58c1.12,0.66,2.37,1.141,3.73,1.44
	c1.37,0.3,2.76,0.45,4.18,0.45c4.81,0,8.28-1.37,10.41-4.101c2.13-2.729,3.199-6.67,3.199-11.8v-5.74h-0.17
	c-1.199,2.62-2.96,4.73-5.279,6.311c-2.33,1.59-5.04,2.38-8.16,2.38c-3.39,0-6.28-0.561-8.69-1.68c-2.4-1.12-4.38-2.66-5.94-4.631
	c-1.56-1.97-2.69-4.279-3.4-6.93c-0.71-2.65-1.06-5.47-1.06-8.48c0-2.9,0.42-5.64,1.27-8.24c0.84-2.59,2.07-4.86,3.69-6.8
	c1.61-1.94,3.6-3.47,5.98-4.59c2.38-1.12,5.09-1.68,8.15-1.68c1.59,0,3.08,0.22,4.47,0.66c1.39,0.43,2.66,1.05,3.811,1.84
	c1.149,0.79,2.17,1.71,3.069,2.75c0.91,1.04,1.601,2.13,2.101,3.27h0.159v-7.29h5.16V53.306z"/>
<path fill="#FFFFFF" d="M57.156,14.456v7.29h-0.159c-0.5-1.14-1.19-2.23-2.101-3.27c-0.899-1.04-1.92-1.96-3.069-2.75
	c-1.15-0.79-2.421-1.41-3.811-1.84c-1.39-0.44-2.88-0.66-4.47-0.66c-3.06,0-5.77,0.56-8.15,1.68c-2.38,1.12-4.37,2.65-5.98,4.59
	c-1.62,1.94-2.85,4.21-3.69,6.8c-0.85,2.6-1.27,5.34-1.27,8.24c0,3.01,0.35,5.83,1.06,8.48c0.71,2.65,1.84,4.96,3.4,6.93
	c1.56,1.971,3.54,3.511,5.94,4.631c2.41,1.119,5.3,1.68,8.69,1.68c3.12,0,5.83-0.79,8.16-2.38c2.319-1.58,4.08-3.69,5.279-6.311
	h0.17v5.74c0,5.13-1.069,9.07-3.199,11.8c-2.13,2.73-5.601,4.101-10.41,4.101c-1.42,0-2.81-0.15-4.18-0.45
	c-1.36-0.3-2.61-0.78-3.73-1.44c-1.12-0.649-2.07-1.51-2.86-2.58c-0.8-1.06-1.33-2.39-1.6-3.97h-5.17
	c0.17,2.24,0.78,4.16,1.85,5.771c1.06,1.619,2.4,2.939,4.01,3.979s3.43,1.8,5.45,2.29c2.03,0.5,4.1,0.74,6.23,0.74
	c3.45,0,6.359-0.46,8.729-1.391c2.38-0.93,4.311-2.27,5.78-4.02s2.55-3.88,3.24-6.39c0.68-2.521,1.02-5.33,1.02-8.44v-38.85H57.156z
	 M56.297,41.337c-0.58,2.02-1.44,3.81-2.58,5.37c-1.15,1.56-2.57,2.819-4.271,3.77c-1.689,0.96-3.659,1.44-5.899,1.44
	c-2.4,0-4.48-0.48-6.23-1.44s-3.19-2.21-4.34-3.77c-1.15-1.561-2-3.35-2.54-5.37c-0.55-2.02-0.82-4.1-0.82-6.23
	c0-2.18,0.26-4.33,0.78-6.43c0.52-2.1,1.35-3.98,2.5-5.61c1.15-1.64,2.59-2.97,4.34-3.98c1.75-1.01,3.85-1.52,6.31-1.52
	s4.55,0.52,6.27,1.56c1.721,1.04,3.13,2.41,4.221,4.1c1.1,1.69,1.89,3.58,2.38,5.65c0.489,2.08,0.739,4.16,0.739,6.23
	C57.156,37.237,56.867,39.317,56.297,41.337z"/>
<g display="none">
	<path display="inline" d="M43.387,0C19.426,0,0,19.425,0,43.387c0,23.962,19.426,43.387,43.387,43.387
		c23.963,0,43.386-19.425,43.386-43.387C86.773,19.425,67.35,0,43.387,0z M53.104,48.584c0.297,0.394,0.781,0.579,1.474,0.579
		c1.592,0,3.256-1.112,4.946-3.309c1.736-2.261,2.619-5.324,2.619-9.105c0-5.618-2.34-9.537-7.156-11.982
		c-3.041-1.562-6.516-2.346-10.319-2.346c-7.01,0-12.715,2.164-16.953,6.434c-3.805,3.853-5.736,8.534-5.736,13.915
		c0,5.964,2.252,10.759,6.697,14.235c3.969,3.104,8.885,4.676,14.617,4.676c3.93,0,7.656-0.73,11.074-2.179
		c1.858-0.767,3.812-1.872,5.813-3.28l1.377-0.98l3.107,4.77l-0.525,0.41c-3.08,2.384-6.455,4.224-10.043,5.465
		c-3.59,1.25-7.365,1.887-11.221,1.887c-9.025,0-16.121-2.86-21.104-8.499c-4.135-4.674-6.229-10.292-6.229-16.689
		c0-7.164,2.619-13.326,7.771-18.304c5.402-5.247,12.404-7.909,20.812-7.909c6.854,0,12.619,1.829,17.139,5.435
		c4.809,3.838,7.248,9,7.248,15.342c0,4.987-1.545,9.335-4.59,12.919c-3.072,3.619-6.648,5.455-10.623,5.455
		c-2.158,0-3.855-0.64-5.049-1.887c-0.812-0.847-1.351-1.732-1.604-2.646c-0.516,0.71-1.057,1.331-1.625,1.854
		c-1.934,1.763-4.297,2.651-7.008,2.651c-2.783,0-5.127-1.014-6.977-3.019c-1.836-1.979-2.771-4.753-2.771-8.26
		c0-4,1.377-7.8,4.086-11.283c2.758-3.542,6.199-5.335,10.232-5.335c2.43,0,4.356,0.694,5.727,2.064
		c0.459,0.47,0.857,1.285,1.197,1.79l0.777-2.521h7.551L53.48,43.633c-0.248,0.864-0.438,1.466-0.576,2.021
		c0,0-0.288,1.221-0.288,1.585C52.622,47.733,52.784,48.157,53.104,48.584z"/>
	<g display="inline">
		<ellipse transform="matrix(0.4695 -0.883 0.883 0.4695 -14.7461 57.7386)" cx="40.673" cy="41.14" rx="8.001" ry="5.499"/>
	</g>
</g>
<g display="none">
	<path display="inline" d="M54.041,23.226c-1.095-1.693-2.5-3.061-4.222-4.1c-1.722-1.037-3.812-1.557-6.27-1.557
		c-2.459,0-4.562,0.506-6.312,1.517c-1.75,1.012-3.196,2.335-4.344,3.976c-1.147,1.639-1.98,3.511-2.5,5.613
		c-0.52,2.104-0.778,4.248-0.778,6.435c0,2.131,0.272,4.207,0.819,6.229c0.545,2.021,1.394,3.812,2.541,5.368
		c1.146,1.558,2.594,2.814,4.344,3.771c1.748,0.957,3.823,1.435,6.229,1.435c2.239,0,4.206-0.478,5.9-1.435
		c1.692-0.955,3.113-2.213,4.262-3.771c1.146-1.558,2.008-3.347,2.582-5.368c0.573-2.021,0.859-4.098,0.859-6.229
		c0-2.076-0.245-4.152-0.736-6.229C55.926,26.805,55.133,24.919,54.041,23.226z"/>
	<path display="inline" d="M43.387,0C19.426,0,0,19.426,0,43.387C0,67.35,19.426,86.773,43.387,86.773
		c23.963,0,43.387-19.424,43.387-43.388C86.773,19.426,67.35,0,43.387,0z M62.318,53.302c0,3.115-0.342,5.929-1.023,8.442
		c-0.686,2.512-1.763,4.644-3.237,6.394c-1.475,1.747-3.4,3.086-5.777,4.016c-2.377,0.929-5.286,1.394-8.729,1.394
		c-2.131,0-4.209-0.246-6.229-0.737c-2.021-0.491-3.84-1.258-5.45-2.295c-1.611-1.038-2.95-2.363-4.017-3.976
		c-1.064-1.612-1.68-3.538-1.844-5.777h5.163c0.271,1.585,0.806,2.909,1.599,3.976c0.791,1.064,1.748,1.926,2.868,2.581
		c1.119,0.656,2.362,1.134,3.729,1.435c1.364,0.301,2.758,0.451,4.18,0.451c4.807,0,8.277-1.367,10.408-4.099
		c2.131-2.732,3.195-6.666,3.195-11.802v-5.736H56.99c-1.202,2.622-2.965,4.727-5.286,6.311c-2.323,1.585-5.041,2.377-8.154,2.377
		c-3.389,0-6.284-0.56-8.688-1.681c-2.404-1.119-4.385-2.663-5.941-4.63c-1.559-1.968-2.691-4.274-3.401-6.926
		c-0.711-2.649-1.063-5.478-1.063-8.482c0-2.896,0.422-5.641,1.27-8.236c0.847-2.595,2.076-4.861,3.688-6.803
		c1.61-1.938,3.606-3.469,5.982-4.59c2.377-1.119,5.096-1.68,8.155-1.68c1.584,0,3.072,0.219,4.467,0.654
		c1.394,0.438,2.663,1.054,3.812,1.846c1.146,0.792,2.172,1.708,3.072,2.745c0.901,1.039,1.6,2.131,2.091,3.277h0.164v-7.294h5.162
		L62.318,53.302L62.318,53.302z"/>
</g>
<g display="none">
	<path display="inline" fill="#E42127" d="M43.387,0C19.426,0,0,19.424,0,43.387c0,23.961,19.426,43.387,43.387,43.387
		c23.963,0,43.387-19.426,43.387-43.387C86.773,19.424,67.35,0,43.387,0z M53.104,48.584c0.297,0.394,0.781,0.578,1.474,0.578
		c1.592,0,3.256-1.111,4.946-3.309c1.736-2.261,2.619-5.324,2.619-9.105c0-5.617-2.34-9.537-7.156-11.981
		c-3.041-1.562-6.516-2.347-10.319-2.347c-7.01,0-12.715,2.164-16.953,6.435c-3.805,3.852-5.736,8.533-5.736,13.914
		c0,5.965,2.252,10.76,6.697,14.235c3.969,3.104,8.885,4.677,14.617,4.677c3.93,0,7.656-0.73,11.074-2.179
		c1.858-0.768,3.812-1.873,5.813-3.28l1.377-0.98l3.107,4.77l-0.525,0.41c-3.08,2.384-6.455,4.224-10.043,5.465
		c-3.59,1.25-7.365,1.886-11.221,1.886c-9.025,0-16.121-2.859-21.104-8.498c-4.135-4.674-6.229-10.293-6.229-16.689
		c0-7.164,2.619-13.326,7.771-18.305c5.402-5.246,12.404-7.908,20.812-7.908c6.854,0,12.619,1.828,17.139,5.435
		c4.809,3.838,7.248,9,7.248,15.342c0,4.987-1.545,9.334-4.59,12.918c-3.072,3.619-6.648,5.455-10.623,5.455
		c-2.158,0-3.855-0.64-5.049-1.886c-0.812-0.848-1.351-1.733-1.604-2.647c-0.516,0.711-1.057,1.332-1.625,1.854
		c-1.934,1.763-4.297,2.652-7.008,2.652c-2.783,0-5.127-1.014-6.977-3.02c-1.836-1.978-2.771-4.752-2.771-8.259
		c0-4,1.377-7.801,4.086-11.284c2.758-3.541,6.199-5.334,10.232-5.334c2.43,0,4.356,0.694,5.727,2.063
		c0.459,0.471,0.857,1.285,1.197,1.791l0.777-2.521h7.551L53.48,43.633c-0.248,0.863-0.438,1.466-0.576,2.021
		c0,0-0.288,1.221-0.288,1.584C52.621,47.732,52.783,48.156,53.104,48.584z"/>
	<g display="inline">
		<path fill="#E42127" d="M45.527,43.716c-2.074,3.902-5.93,5.91-8.61,4.484c-2.682-1.426-3.173-5.744-1.099-9.646
			c2.073-3.899,5.929-5.906,8.609-4.48S47.601,39.817,45.527,43.716z"/>
	</g>
</g>
<g display="none">
	<path display="inline" fill="#E42127" d="M54.041,23.225c-1.095-1.693-2.5-3.06-4.222-4.099c-1.722-1.037-3.812-1.557-6.27-1.557
		c-2.459,0-4.562,0.506-6.312,1.516c-1.75,1.013-3.196,2.336-4.344,3.976c-1.147,1.639-1.98,3.512-2.5,5.614
		c-0.52,2.104-0.778,4.248-0.778,6.435c0,2.131,0.272,4.207,0.819,6.229c0.545,2.021,1.394,3.812,2.541,5.367
		c1.146,1.558,2.594,2.814,4.344,3.771c1.748,0.957,3.823,1.436,6.229,1.436c2.239,0,4.206-0.479,5.9-1.436
		c1.692-0.955,3.113-2.213,4.262-3.771c1.147-1.557,2.008-3.346,2.582-5.367c0.573-2.021,0.859-4.098,0.859-6.229
		c0-2.076-0.245-4.152-0.736-6.23C55.926,26.805,55.133,24.918,54.041,23.225z"/>
	<path display="inline" fill="#E42127" d="M43.387,0C19.426,0,0,19.426,0,43.387C0,67.35,19.426,86.773,43.387,86.773
		c23.963,0,43.387-19.424,43.387-43.388C86.773,19.426,67.35,0,43.387,0z M62.318,53.302c0,3.115-0.342,5.929-1.023,8.441
		c-0.686,2.512-1.763,4.644-3.237,6.394c-1.475,1.747-3.4,3.086-5.777,4.016s-5.286,1.395-8.729,1.395
		c-2.131,0-4.209-0.246-6.229-0.737c-2.021-0.492-3.84-1.259-5.45-2.295c-1.611-1.039-2.95-2.363-4.017-3.976
		c-1.064-1.613-1.68-3.539-1.844-5.779h5.163c0.271,1.587,0.806,2.91,1.599,3.978c0.791,1.063,1.748,1.926,2.868,2.58
		c1.119,0.656,2.362,1.135,3.729,1.436c1.364,0.299,2.758,0.451,4.18,0.451c4.807,0,8.277-1.367,10.408-4.1
		c2.131-2.733,3.195-6.666,3.195-11.801v-5.736H56.99c-1.202,2.621-2.965,4.727-5.286,6.311c-2.323,1.584-5.041,2.377-8.154,2.377
		c-3.389,0-6.284-0.561-8.688-1.682c-2.404-1.119-4.385-2.662-5.941-4.629c-1.559-1.969-2.691-4.275-3.401-6.926
		c-0.711-2.65-1.063-5.478-1.063-8.482c0-2.896,0.422-5.641,1.27-8.236c0.847-2.596,2.076-4.862,3.688-6.803
		c1.611-1.939,3.606-3.469,5.982-4.59c2.377-1.119,5.096-1.68,8.155-1.68c1.584,0,3.072,0.219,4.467,0.653
		c1.394,0.439,2.663,1.054,3.812,1.847c1.146,0.791,2.172,1.707,3.072,2.744c0.901,1.038,1.6,2.131,2.091,3.278h0.164v-7.295h5.162
		L62.318,53.302L62.318,53.302z"/>
</g>
<path display="none" d="M43.391,0C19.431,0,0,19.427,0,43.396c0,19.17,12.432,35.435,29.678,41.173
	c2.169,0.397,2.962-0.941,2.962-2.091c0-1.031-0.038-3.76-0.059-7.381C20.51,77.719,17.963,69.28,17.963,69.28
	c-1.975-5.013-4.818-6.348-4.818-6.348c-3.939-2.692,0.297-2.638,0.297-2.638c4.355,0.308,6.647,4.472,6.647,4.472
	c3.871,6.631,10.156,4.717,12.629,3.605c0.394-2.805,1.516-4.717,2.755-5.802c-9.635-1.095-19.766-4.818-19.766-21.447
	c0-4.737,1.69-8.61,4.467-11.644c-0.447-1.099-1.937-5.511,0.425-11.484c0,0,3.645-1.167,11.935,4.449
	c3.461-0.963,7.173-1.444,10.862-1.461c3.686,0.017,7.397,0.499,10.864,1.461c8.285-5.615,11.921-4.449,11.921-4.449
	c2.367,5.974,0.878,10.386,0.432,11.484c2.781,3.033,4.461,6.906,4.461,11.644c0,16.67-10.146,20.339-19.813,21.413
	c1.559,1.34,2.946,3.988,2.946,8.036c0,5.801-0.054,10.48-0.054,11.904c0,1.159,0.781,2.51,2.983,2.086
	c17.229-5.749,29.65-22.003,29.65-41.168C86.788,19.427,67.357,0,43.391,0z"/>
</svg>
