<?xml version="1.0" encoding="utf-8"?>
<!-- Generator: Adobe Illustrator 15.1.0, SVG Export Plug-In . SVG Version: 6.00 Build 0)  -->
<!DOCTYPE svg PUBLIC "-//W3C//DTD SVG 1.1//EN" "http://www.w3.org/Graphics/SVG/1.1/DTD/svg11.dtd">
<svg version="1.1" id="Calque_1" xmlns="http://www.w3.org/2000/svg" xmlns:xlink="http://www.w3.org/1999/xlink" x="0px" y="0px"
	 width="299.965px" height="230.668px" viewBox="0 0 299.965 230.668" enable-background="new 0 0 299.965 230.668"
	 xml:space="preserve">
<g id="github_2_">
	<path d="M112.487,206.227H74.991v-56.244h37.496V206.227z M168.73,224.973h-37.495v-18.746h37.495V224.973z M224.975,206.227
		h-37.496v-56.244h37.496V206.227z M206.227,37.496L206.227,37.496L281.217,0l1.172,74.991
		c13.549,16.258,17.576,33.413,17.576,56.244v18.748c0,34.566-18.93,64.445-46.76,80.686c5.713-6.572,9.264-15.051,9.264-24.441
		v-37.496c0-20.689-16.806-37.496-37.495-37.496H74.991c-20.697,0-37.495,16.806-37.495,37.496v37.496
		c0,9.391,3.561,17.869,9.264,24.441C18.931,214.428,0,184.549,0,149.983v-18.748c0-21.421,6.655-40.462,18.748-56.244V0
		l74.991,37.459L206.227,37.496z"/>
</g>
</svg>
