<?xml version="1.0" encoding="utf-8"?>
<!-- Generator: Adobe Illustrator 15.1.0, SVG Export Plug-In . SVG Version: 6.00 Build 0)  -->
<!DOCTYPE svg PUBLIC "-//W3C//DTD SVG 1.1//EN" "http://www.w3.org/Graphics/SVG/1.1/DTD/svg11.dtd">
<svg version="1.1" id="Calque_1" xmlns="http://www.w3.org/2000/svg" xmlns:xlink="http://www.w3.org/1999/xlink" x="0px" y="0px"
	 width="520.555px" height="84.056px" viewBox="0 0 520.555 84.056" enable-background="new 0 0 520.555 84.056"
	 xml:space="preserve">
<path fill-rule="evenodd" clip-rule="evenodd" fill="#F2F2F2" d="M520.555,79.417c0,1.546,0,3.09,0,4.639
	c-173.521,0-347.033,0-520.555,0c0-4.639,0-9.277,0-13.914c0.967,0,1.932,0,2.899,0c0,0.774,0,1.547,0,2.318
	c0.353,0.033,0.685,0.087,0.58,0.581c0.386,0,0.773,0,1.159,0c0-1.547,0-3.093,0-4.637c1.396,0.234,1.26-1.06,2.897-0.581
	c-0.001-0.581,0.47-0.69,0.581-1.159c0.579,0,1.159,0,1.738,0c0.573-0.229,0.399,0.425,0.58,0.578c0.115,0.097,0.454-0.082,0.58,0
	c0.093,0.061-0.082,0.5,0,0.581c0.093,0.091,0.496-0.097,0.58,0c0.097,0.112-0.083,0.453,0,0.581c0.062,0.092,0.5-0.082,0.58,0
	c0.196,0.194-0.157,0.922,0,1.156c0.125,0.188,0.862-0.03,0.581,0.581c0.58,0,1.159,0,1.739,0c0.581,0.003,0.69-0.469,1.159-0.581
	c0.257,1.096-0.789,3.495,1.159,2.899c0.132-1.026-0.583-2.901,1.16-2.318c0-0.387,0-0.771,0-1.159c0-1.159,0-2.318,0-3.477
	c0.827-0.14,0.977-0.955,1.738-1.162c0.581,0.005,0.69-0.469,1.159-0.578c0.58,0,1.159,0,1.739,0c0.387,0,0.773,0,1.161,0
	c0.031,0.354,0.086,0.685,0.579,0.578c0.123-0.649,0.644-0.902,1.159-1.156c0.033-0.357,0.087-0.688,0.58-0.581
	c0.009-0.193-0.01-0.387,0-0.581c0.019-0.354,0.098-0.685,0.58-0.578c0.439-1.495,1.851-2.015,4.058-1.74
	c-0.432,1.783,1.591,1.116,1.159,2.899c1.182,0.171,1.138,1.569,2.319,1.737c0.395-1.967,3.154-0.881,4.638-1.156
	c0.139,0.825,0.954,0.976,1.159,1.737c0.52,3.49-0.698,8.457,0,11.015c0.014,0.049,0.53-0.041,0.58,0c0.19,0.153-0.145,0.95,0,1.159
	c0.773,0,1.546,0,2.318,0c0.124-0.649,0.645-0.904,1.161-1.159c0.032-0.354,0.086-0.688,0.58-0.581c0-4.829,0-9.659,0-14.492
	c0.965,0.018,1.932-0.023,2.897,0c1.247,0.033,2.773-0.474,2.899,0.581c0.097,3.218-0.127,9.173,0,11.594
	c0.036,0.672,0.366,0.255,0.58,0.58c0.077,0.115-0.097,0.481,0,0.579c0.097,0.097,0.483-0.098,0.58,0
	c0.194,0.193-0.036,0.807,0.58,0.578c0.325-0.833,0.904-1.412,1.74-1.737c0.032-0.354,0.086-0.688,0.58-0.581
	c0-3.09,0-6.183,0-9.272c0.353-0.036,0.687-0.087,0.58-0.581c0.122-0.652,0.643-0.902,1.159-1.159c1.546,0,3.091,0,4.637,0
	c0.171,1.182,1.568,1.136,1.739,2.318c0,2.705,0,5.411,0,8.116c0.354,0.033,0.687,0.086,0.581,0.578c0.58,0,1.159,0,1.739,0
	c-0.197,0.586,0.386,0.387,0.58,0.581c0.197,0.198-0.18,0.939,0,1.159c0.155,0.19,0.95-0.146,1.159,0c0-0.385,0-0.772,0-1.159
	c0.033-0.354,0.086-0.688,0.58-0.581c0.582,0,0.69,0.469,1.16,0.581c0.075,0.132-0.094,0.461,0,0.58
	c0.121,0.153,0.864-0.229,0.58-0.58c0.192,0.007,0.386-0.011,0.58,0c0.53,0.027,0.432,0.54,0.58,0.58
	c0.722,0.188,1.584-0.147,2.318,0c-0.001,0.581,0.47,0.688,0.579,1.157c0.354,0.035,0.687,0.086,0.581,0.58c0.386,0,0.771,0,1.159,0
	c0.007-0.193-0.01-0.387,0-0.58c0.018-0.352,0.097-0.684,0.579-0.578c0.581,0.002,0.69-0.469,1.159-0.579
	c0.033,0.352,0.087,0.686,0.58,0.579c0.354,0.032,0.687,0.086,0.58,0.578c0.967,0,1.932,0,2.899,0
	c0.504,0.851,0.868,1.839,2.318,1.739c0.859-0.3,1.461-0.858,2.32-1.159c0-1.158,0-2.317,0-3.477
	c0.729-0.237,1.185-0.747,1.159-1.74c0-1.353,0-2.705,0-4.058c0.651-0.123,0.903-0.645,1.159-1.159
	c0.033-0.352,0.087-0.686,0.58-0.581c1.153-0.005,0.738-1.579,2.319-1.156c0.033,0.352,0.087,0.685,0.58,0.578
	c0.582-0.003,0.69,0.471,1.159,0.578c0.139,0.831,0.955,0.979,1.159,1.74c0,0.581,0,1.159,0,1.74
	c1.397,0.237,1.261-1.06,2.899-0.581c0.139,0.828,0.954,0.978,1.159,1.74c0.585-0.119,0.385,0.288,0.58,0.578
	c0.173,0.26-0.021,0.76,0.581,0.581c0.353,0.033,0.685,0.087,0.58,0.581c0,1.159,0,2.318,0,3.478c0.34,0.106,0.832-0.141,1.159,0
	c0.155,0.065-0.008,0.904,0.579,0.578c0.354,0.035,0.687,0.086,0.58,0.58c0,0.969,0,1.932,0,2.899
	c1.396,0.237,1.26-1.06,2.898-0.581c0.354,0.033,0.686,0.087,0.58,0.581c0.477,0.296,1.932-0.388,2.318,0
	c0.061,0.062-0.073,0.548,0,0.581c0.327,0.137,0.818-0.107,1.158,0c0.07-0.372-0.09-0.798,0-1.162
	c0.086-0.341,0.048-0.695,0.581-0.578c1.638-0.479,1.502,0.817,2.897,0.578c0.504,0.316,0.492-0.54,0.58-0.578
	c0.939-0.405,1.839,0.477,2.319,0.578c0.432,0.097,2.026-0.29,2.318,0c0.061,0.062-0.073,0.551,0,0.581
	c0.816,0.349,2.045-0.265,2.898,0c0.386,0,0.773,0,1.159,0c0.033-0.354,0.087-0.688,0.58-0.581c0-1.931,0-3.861,0-5.795
	c0.354-0.033,0.686-0.087,0.579-0.581c1.85,0.497,1.793-0.912,2.898-1.159c0.65,0.122,0.902,0.643,1.159,1.159
	c0.582,0.003,0.69-0.469,1.159-0.578c0.354,0.03,0.687,0.087,0.58,0.578c0,2.515,0,5.026,0,7.538c0.478-0.299,1.932,0.385,2.319,0
	c0.061-0.062-0.073-0.551,0-0.581c0.326-0.14,0.818,0.106,1.159,0c0.966,0,1.932,0,2.898,0c0.007-1.151,1.581-0.739,1.159-2.318
	c0.675-0.097,0.629-0.917,0.58-1.739c0-0.385,0-0.772,0-1.159c0.032-0.354,0.086-0.688,0.579-0.581c0.579,0,1.159,0,1.738,0
	c0.033,0.354,0.087,0.688,0.581,0.581c0,0.387,0,0.774,0,1.159c0.386,0,0.771,0,1.159,0c0.075-0.133-0.095-0.462,0-0.579
	c0.122-0.152,0.863,0.228,0.579,0.579c0.998-0.031,1.486,0.445,1.739,1.158c0,0.581,0,1.159,0,1.74
	c-0.002,0.581,0.47,0.69,0.579,1.159c0.58,0,1.16,0,1.74,0c0.353-0.033,0.685-0.087,0.579-0.581
	c-0.197-0.581,0.386-0.387,0.58-0.578c0.097-0.097-0.097-0.484,0-0.581c0.098-0.097,0.478,0.095,0.579,0
	c0.098-0.089-0.096-0.483,0-0.578c0.097-0.097,0.48,0.095,0.58,0c0.099-0.097-0.088-0.474,0-0.581c0.155-0.188,0.949,0.146,1.158,0
	c0.171,1.183,1.569,1.137,1.74,2.318c-0.003,0.581,0.469,0.69,0.58,1.162c0.772,0,1.545,0,2.317,0
	c0.033-0.357,0.087-0.688,0.58-0.581c0-0.581,0-1.159,0-1.74c0-0.965,0-1.931,0-2.896c0.193-0.01,0.387,0.011,0.579,0
	c0.355-0.021,0.687-0.099,0.581-0.58c0.477,0.295,1.933-0.388,2.318,0c0.032,0.032-0.032,0.575,0,0.58
	c0.185,0.016,0.395,0.011,0.579,0c0.536-0.03,0.424-0.54,0.58-0.58c0.503-0.138,1.216,0.027,1.739,0
	c0.351-0.021,0.688,0.127,0.58,0.58c0.075,0.13-0.096,0.464,0,0.579c0.153,0.19,0.95-0.146,1.159,0
	c0.856-0.304,1.461-0.859,2.317-1.159c0.354,0.032,0.687,0.086,0.581,0.58c0.59-0.274,1.783,0.357,2.318,0
	c0.093-0.063-0.082-0.499,0-0.58c0.096-0.097,0.463,0.076,0.579,0c0.088-0.057-0.068-0.494,0-0.581c0.591-0.721,3.022,0.555,3.479,0
	c0.237-0.729,0.748-1.185,1.739-1.159c0.237-0.729,0.747-1.185,1.739-1.159c1.352,0,2.704,0,4.057,0
	c0.181-2.183-0.244-4.376,0-6.376c0.073-0.586,0.474-0.673,0.58-1.159c0.121-0.555-0.096-1.182,0-1.74
	c0.65-0.123,0.903-0.645,1.16-1.159c0.386,0,0.771,0,1.159,0c0.033-0.354,0.086-0.688,0.579-0.581
	c1.021,0.524,1.795,1.299,2.318,2.32c-0.189,0.828,0.489,1.233,0.581,1.74c0.234,1.302-0.602,3.836,0.579,3.477
	c0,0.385,0,0.772,0,1.159c0,1.546,0,3.092,0,4.636c0.827-0.191,1.234,0.491,1.739,0.581c0.742,0.132,1.585-0.171,2.317,0
	c0.046,0.01-0.036,0.534,0,0.58c0.727,0.887,3.904-0.672,4.638,0c-0.001,0.581,0.471,0.688,0.58,1.157c0,1.354,0,2.705,0,4.061
	c1.905,1.185,5.87,0.311,8.695,0.578c-0.156-2.089-0.146-4.01,2.319-3.478c0.649,0.122,0.901,0.642,1.159,1.159
	c0,0.771,0,1.546,0,2.318c2.318,0,4.638,0,6.955,0c0-0.578,0-1.159,0-1.74c0.76,0.181,0.291-0.868,0.58-1.159
	c0.05-0.048,0.562,0.059,0.581,0c0.16-0.529-0.129-1.197,0-1.739c0.031-0.352,0.086-0.686,0.579-0.578c0.117-0.548-0.147-1.2,0-1.74
	c0.013-0.049,0.53,0.041,0.58,0c0.722-0.591-0.556-3.021,0-3.478c-0.361-1.571-2.423-1.444-2.32-3.477c0-1.162,0-2.318,0-3.48
	c0.729-0.236,1.185-0.746,1.161-1.737c0.727-0.239,1.185-0.749,1.159-1.74c0-10.049,0-20.095,0-30.143
	c0.195-0.583-0.388-0.386-0.58-0.58c-0.097-0.097,0.096-0.482,0-0.579c-0.079-0.079-0.522,0.09-0.579,0
	c-0.17-0.267,0.104-0.857,0-1.159c-0.021-0.059-0.525,0.044-0.581,0c-0.188-0.155,0.146-0.95,0-1.16
	c-0.42-1.773,1.001-1.705,0.581-3.478c0.826-0.139,0.977-0.955,1.738-1.16c0.827-0.139,0.977-0.954,1.738-1.159
	c0-2.512,0-5.023,0-7.535c-0.302-0.858-0.856-1.461-1.159-2.319c0.555,0.047,0.425-0.191,0.58-0.58
	c0.173-0.433-0.02-1.157,0.579-1.159c0-0.387,0-0.773,0-1.159c0.36-2.152-0.942-5.966,1.159-6.377c0,2.126,0,4.252,0,6.377
	c0.033,0.353,0.087,0.686,0.581,0.58c0,0.386,0,0.773,0,1.159c0.032,0.354,0.087,0.687,0.579,0.58c0,0.387,0,0.773,0,1.159
	c-0.302,0.858-0.858,1.461-1.16,2.319c0.862,0.107,0.527,1.401,0.581,2.318c0.105,1.843-0.081,3.645,0,5.217
	c0.386,0,0.771,0,1.159,0c-0.104,0.759,0.773,0.291,1.159,0.58c0.088,0.066-0.063,0.484,0,0.581c0.123,0.186,0.862-0.03,0.579,0.58
	c0.485,1.253,1.501,1.977,1.159,4.057c0.197,0.583-0.386,0.388-0.579,0.581c-0.195,0.195,0.156,0.923,0,1.159
	c-0.062,0.092-0.498-0.082-0.58,0c-0.098,0.098,0.086,0.466,0,0.579c-0.066,0.088-0.484-0.063-0.579,0
	c-0.093,0.062,0.081,0.498,0,0.58c-0.095,0.094-0.489-0.099-0.58,0c-0.094,0.102,0.099,0.481,0,0.579
	c-0.061,0.062-0.549-0.072-0.579,0c-0.141,0.328,0.106,0.819,0,1.159c0,9.469,0,18.936,0,28.405c0.6,1.526,2.298,1.954,2.897,3.477
	c-0.13,1.096,0.653,1.279,0.579,2.318c0.998-0.03,1.487,0.448,1.74,1.162c0.773,0,1.545,0,2.318,0
	c0.354,0.031,0.687,0.086,0.579,0.579c0,2.705,0,5.41,0,8.116c0.354,0.032,0.687,0.086,0.58,0.578c0.387,0,0.772,0,1.16,0
	c0.825-0.021,0.979,1.166,1.738,1.161c0.019,0-0.022-0.545,0-0.581c0.062-0.092,0.498,0.082,0.58,0c0.064-0.065-0.078-0.542,0-0.58
	c0.474-0.225,1.244,0.181,1.739,0c0.581,0.005,0.689-0.469,1.159-0.578c0-5.411,0-10.819,0-16.23
	c2.543,0.609,1.904-1.961,4.059-1.74c0.386,0,0.771,0,1.159,0c0.191,0.007,0.387-0.01,0.579,0c0.354,0.018,0.686,0.097,0.579,0.578
	c0.354,0.033,0.688,0.086,0.58,0.581c0.582,0,0.69-0.469,1.159-0.581c0.497-1.85-0.912-1.793-1.159-2.899
	c0.193-0.005,0.387,0.01,0.579,0c0.354-0.018,0.687-0.097,0.58-0.578c0.341-0.107,0.833,0.14,1.16,0
	c0.072-0.033-0.062-0.517,0-0.579c0.192-0.193,0.966,0.191,1.159,0c0.092-0.092-0.098-0.499,0-0.581
	c0.114-0.097,0.453,0.084,0.579,0c0.187-0.125-0.03-0.861,0.58-0.581c0.238,0.729,0.747,1.187,1.738,1.161
	c0.108,0.856,1.401,0.53,2.319,0.579c0.277-0.579-0.363-1.798,0-2.318c0.062-0.092,0.49,0.071,0.58,0c0-0.387,0-0.772,0-1.159
	c0.572,0.229,0.398-0.428,0.579-0.581c0.114-0.097,0.453,0.084,0.579,0c0.094-0.062-0.081-0.5,0-0.581c0.096-0.094,0.488,0.1,0.58,0
	c0.439-0.463,0.39-2.227,1.74-1.737c0.353,0.033,0.685,0.087,0.579,0.581c0.393,1.345,1.926,1.549,2.318,2.896
	c0,0.387,0,0.771,0,1.159c0.354,0.033,0.687,0.086,0.579,0.581c0.556,0.102,1.189-0.13,1.74,0c0.643,0.153,0.906,0.622,1.159,1.159
	c-0.242,1.979,0.175,3.304,2.316,2.899c0-2.321,0-4.639,0-6.957c0.831-0.138,0.979-0.953,1.743-1.159c1.931,0,3.861,0,5.795,0
	c0.649-0.122,0.901-0.645,1.159-1.159c0.774,0,1.546,0,2.318,0c0,2.318,0,4.637,0,6.955c0.17,1.182,1.569,1.139,1.739,2.321
	c0.581-0.003,0.69,0.469,1.159,0.578c0,0.387,0,0.774,0,1.162c0.033,0.352,0.087,0.685,0.581,0.578
	c0.03-0.354,0.086-0.685,0.578-0.578c0-4.061,0-8.116,0-12.174c-0.008-1.154-1.582-0.736-1.159-2.319
	c0.356-0.092,0.815,0.12,1.159,0c0.059-0.021-0.043-0.523,0-0.579c0.66-0.804,3.457,0.61,4.058,0c0,0.581,0.469,0.69,0.581,1.159
	c0,6.185,0,12.365,0,18.55c0.352,0.033,0.686,0.087,0.578,0.581c0.033,0.352,0.087,0.685,0.581,0.578
	c-0.033,0.996,0.446,1.485,1.159,1.74c0.236-0.729,0.749-1.187,1.737-1.162c1.585-0.42,1.167,1.154,2.32,1.162
	c0.141-0.828,0.956-0.978,1.159-1.74c0.133-0.077,0.464,0.094,0.581,0c0.188-0.155-0.147-0.95,0-1.159
	c0.03-0.354,0.087-0.688,0.578-0.581c1.536-0.183-0.542,3.248,1.74,2.318c0.13-0.074,0.464,0.097,0.578,0
	c0.19-0.153-0.146-0.948,0-1.156c0.522-8.848-0.695-18.056,0-26.667c0.048-0.607,0.472-0.324,0.581-0.581
	c0.593-1.385-0.451-2.902,0-4.057c1.182-0.171,1.136-1.569,2.317-1.74c1.099-0.13,1.279,0.653,2.318,0.58
	c-0.188-0.584,0.377-0.383,0.581-0.58c0.1-0.094-0.089-0.473,0-0.58c0.14-0.17,0.947,0.104,1.159,0
	c0.637-0.314,1.589-0.856,2.318-1.159c0.331-0.138,0.819,0.117,1.159,0c0.059-0.021-0.044-0.525,0-0.58
	c0.132-0.162,0.952,0.084,1.158,0c0.066-0.026-0.051-0.518,0-0.579c0.133-0.161,0.953,0.083,1.162,0
	c0.44-0.177,0.764-0.494,1.156-0.58c0.331-0.073,0.706,0.167,0.581,0.58c0.581,0,1.159,0,1.739,0
	c0.996-0.032,1.485,0.446,1.74,1.159c0,4.637,0,9.275,0,13.912c1.096-0.13,1.279,0.654,2.318,0.58
	c0.581,0.001,0.688-0.47,1.159-0.58c1.638,0.479,1.5-0.817,2.896-0.579c0.099-0.677,0.917-0.631,1.742-0.581
	c0,2.706,0,5.411,0,8.116c1.151,0.586,2.474,1.003,2.896,2.318c-0.003,0.581,0.472,0.69,0.578,1.161c0,0.385,0,0.772,0,1.157
	c0.464,0.025,0.545,0.097,0.581,0.581c0.344,4.68-0.229,12.243,0,16.811c0.079,1.562-0.714,4.119,1.161,4.639
	c0.031-0.354,0.087-0.688,0.578-0.581c0-4.058,0-8.116,0-12.171c0.581,0,0.69-0.472,1.159-0.581c0.388,0,0.774,0,1.159,0
	c0.033-0.354,0.087-0.688,0.578-0.581c0-8.694,0-17.388,0-26.085c0.831-0.138,0.979-0.954,1.743-1.159c3.283,0,6.566,0,9.853,0
	c-0.002,0.582,0.469,0.69,0.581,1.159c0.095,7.436-0.13,16.257,0,23.187c0.025,1.452-0.545,6.414,0,6.957
	c0.191,0.193,0.92-0.148,1.156,0c0.678-0.097,0.632-0.915,0.581-1.74c0-11.978,0-23.958,0-35.938
	c0.354-0.033,0.688-0.087,0.581-0.58c0.581-0.771,0.548-2.157,1.737-2.319c0.586-1.154,1.004-2.476,2.318-2.897
	c0.035,0.353,0.086,0.687,0.581,0.58c-0.424,1.582,1.15,1.167,1.158,2.318c0.008,1.153,1.582,0.738,1.159,2.319
	c0.354,0.033,0.688,0.087,0.581,0.58c0,11.014,0,22.027,0,33.042c0,0.772,0,1.546,0,2.318c0,0.385,0,0.771,0,1.159
	c-0.003,0.581,0.469,0.69,0.581,1.159c0.963,0,1.931,0,2.896,0c0-17.004,0-34.008,0-51.012c0.354-0.032,0.685-0.086,0.58-0.58
	c0.385,0,0.772,0,1.159,0c1.096,0.13,1.279-0.653,2.318-0.579c0.354-0.033,0.688-0.087,0.581-0.58c0.575-0.024,1.161,0.031,1.737,0
	c0.356-0.019,0.688-0.098,0.581-0.579c0.58,0,1.159,0,1.737,0c0,19.516,0,39.031,0,58.547c0.583-0.003,0.692,0.472,1.161,0.581
	c1.159,0,2.318,0,3.478,0c0.583,0.002,0.69-0.472,1.159-0.581c0-11.593,0-23.187,0-34.78c0.387,0,0.774,0,1.159,0
	c0.033-0.354,0.086-0.687,0.58-0.581c0.436-0.214,1.338,0.268,1.74,0c0.184-0.124-0.03-0.861,0.578-0.58
	c0.762-0.083,1.562,0.108,2.318,0c0.583-0.083,0.675-0.474,1.159-0.58c0.626-0.136,2.298-0.208,2.898,0
	c0.059,0.021-0.046,0.524,0,0.58c0.271,0.327,2.431-0.085,2.899,0c0.035,0.006-0.028,0.536,0,0.58c0.387,0,0.774,0,1.159,0
	c0.501-0.316,0.491,0.542,0.578,0.581c0.652,0.278,1.676-0.291,2.32,0c0.063,0.028-0.043,0.513,0,0.58
	c0.125,0.186,0.864-0.031,0.578,0.58c0,3.864,0,7.729,0,11.593c1.74,0,3.48,0,5.218,0c0.354,0.033,0.688,0.086,0.58,0.581
	c0.388,0,0.774,0,1.159,0c0.683,0.211,1.664-0.28,2.321,0c0.071,0.031-0.062,0.52,0,0.579c0.094,0.097,0.463-0.077,0.578,0
	c0.354,0.033,0.686,0.086,0.578,0.581c0.968,0,1.934,0,2.898,0c0.077,0.13-0.094,0.463,0,0.579c0.156,0.188,0.951-0.143,1.162,0
	c0.352,0.033,0.686,0.086,0.578,0.581c0.181,0.713-0.234,1.625,0,2.318c0.021,0.062,0.527-0.051,0.578,0
	c0.097,0.097-0.094,0.479,0,0.581c0.097,0.097,0.474-0.089,0.581,0c0.122,0.102-0.028,0.978,0,1.159
	c0.173,1.133-0.128,1.943,0,3.477c2.176-0.436,1.264,2.216,2.899,2.318c0.03-0.352,0.086-0.685,0.58-0.578c0-0.387,0-0.771,0-1.159
	c0.084-0.762-0.114-1.564,0-2.318c0.082-0.571,0.474-0.339,0.578-0.581c0.533-1.246-0.41-2.52,0-3.48
	c0.828-0.138,0.977-0.953,1.74-1.157c1.156,0,2.318,0,3.478,0c0.073,0.13-0.095,0.464,0,0.579c0.155,0.191,0.95-0.146,1.159,0
	c0.354,0.033,0.688,0.086,0.58,0.578c0,4.639,0,9.278,0,13.914c1.473,0.071,2.247,0.843,2.318,2.318c0.388,0,0.771,0,1.159,0
	c0-2.705,0-5.411,0-8.116c0.354-0.03,0.686-0.086,0.578-0.578c0.036-0.354,0.087-0.685,0.581-0.581c0.112-0.336-0.146-0.838,0-1.159
	c0.03-0.064,0.515,0.046,0.581,0c0.091-0.061-0.082-0.5,0-0.581c0.234-0.234,1.405,0.117,1.737,0c0.059-0.021-0.046-0.522,0-0.579
	c0.155-0.191,0.952,0.145,1.161,0c0.107-0.339-0.143-0.833,0-1.159c0.066-0.156,0.904,0.007,0.578-0.581c0.966,0,1.934,0,2.899,0
	c0,3.286,0,6.572,0,9.856c1.151,0.007,0.736,1.582,2.318,1.159c0.033-0.354,0.086-0.688,0.578-0.581c0-0.387,0-0.772,0-1.159
	c0-0.772,0-1.547,0-2.318c0.774,0,1.549,0,2.32,0c0.316-0.843-0.678-2.996,0.578-2.899c0.193,0.007,0.388-0.01,0.581,0
	c0.354,0.018,0.686,0.099,0.581,0.581c-0.006,0.581,0.469,0.69,0.578,1.159c0.73,0.153,1.603-0.199,2.318,0
	c0.637,0.176,0.914,0.601,1.158,1.159c0,0.965,0,1.934,0,2.899c-0.195,0.583,0.388,0.385,0.581,0.578
	c0.097,0.097-0.076,0.464,0,0.581c0.057,0.086,0.494-0.072,0.581,0c0.887,0.723-0.673,3.903,0,4.636
	c-0.005,0.581,0.469,0.69,0.578,1.161c0.033,0.352,0.087,0.686,0.578,0.579c0.036-0.354,0.087-0.686,0.581-0.579
	c0-0.58,0-1.161,0-1.739c0.828-0.141,0.979-0.955,1.74-1.159c0.578,0,1.159,0,1.739,0c0.535,0.176,0.747-0.688,1.157-0.581
	c0.056,0.016-0.046,0.535,0,0.581c0.097,0.097,0.463-0.076,0.58,0c0.354,0.03,0.688,0.087,0.581,0.578c0.966,0,1.931,0,2.899,0
	c0.03,0.354,0.086,0.686,0.578,0.581c0.583-0.003,0.69,0.469,1.159,0.578c0,0.581,0,1.161,0,1.74c1.353,0,2.705,0,4.058,0
	c0-1.934,0-3.865,0-5.796c0.858-0.303,1.46-0.858,2.318-1.162c-0.003,0.581,0.471,0.69,0.581,1.162c0.385,0,0.771,0,1.158,0
	c0.354,0.031,0.688,0.087,0.581,0.578c0,0.578,0,1.159,0,1.74c-0.002,0.581,0.469,0.688,0.578,1.159c0.194-0.008,0.388,0.01,0.579,0
	c0.537-0.028,0.425-0.538,0.58-0.581c1.742-0.477,3.261,0.367,4.637,0c0-0.581,0.471-0.69,0.58-1.159c0-0.387,0-0.771,0-1.159
	c0.354-0.033,0.688-0.087,0.581-0.578c0.352-0.036,0.686-0.086,0.581-0.581c0.385,0,0.77,0,1.156,0
	c0.24-0.729,0.749-1.185,1.74-1.159c0.578,0,1.159,0,1.74,0c0.13,0.074,0.463-0.094,0.58,0c0.188,0.155-0.147,0.95,0,1.159
	c0.581-0.002,0.688,0.468,1.157,0.581c0.239-0.729,0.749-1.187,1.739-1.162c-0.196-0.581,0.388-0.387,0.578-0.578
	c0.199-0.199-0.178-0.94,0-1.159c0.158-0.188,0.953,0.143,1.162,0c0.387,0,0.771,0,1.159,0c0.649,0.123,0.901,0.642,1.159,1.159
	c-0.003,0.581,0.469,0.69,0.58,1.159c0.385,0,0.772,0,1.157,0c0.349-0.232,1.452,0.291,1.742,0c0.056-0.059-0.071-0.553,0-0.581
	c0.331-0.13,0.83,0.143,1.156,0c0.158-0.066-0.005-0.907,0.581-0.578c0.171,1.182,1.569,1.136,1.737,2.318c0,1.159,0,2.318,0,3.478
	c0.318,0.843-0.675,2.996,0.581,2.898c0-0.58,0.469-0.688,0.58-1.158c0.041-1.797-0.059-3.523,0-4.64
	c0.019-0.352,0.098-0.683,0.581-0.578c0.578,0,1.157,0,1.737,0c0.652,0.122,0.902,0.645,1.159,1.159c0.388,0,0.772,0,1.159,0
	c0,0.581,0.469,0.69,0.581,1.159c0,1.934,0,3.864,0,5.798c3.255,0.741,2.135-2.892,2.317-5.217c0.581,0.002,0.691-0.472,1.159-0.581
	c0.354-0.033,0.686-0.087,0.579-0.578c0.035-0.354,0.086-0.688,0.58-0.581c0.752-0.112,1.577,0.147,2.318,0
	c0.046-0.01-0.041-0.54,0-0.581c0.291-0.287,1.391,0.234,1.74,0c0.106,0.342-0.141,0.836,0,1.162c0.033,0.071,0.52-0.062,0.58,0
	c0.064,0.062-0.073,0.545,0,0.578c0.321,0.146,0.823-0.109,1.159,0c0.352,0.033,0.688,0.087,0.581,0.581c0,0.965,0,1.934,0,2.896
	c0,0.387,0,0.774,0,1.161c-0.005,0.581,0.469,0.688,0.578,1.159c2.963,0.258,1.31-4.102,1.74-6.376
	c1.682-0.443,1.503-2.749,4.056-2.318c0.759-0.188,0.293,0.876,0.58,1.156c0.184,0.179,0.917-0.102,1.159,0
	c0.156,0.069-0.008,0.907,0.581,0.581c0.354,0.033,0.686,0.087,0.578,0.581c0,1.931,0,3.864,0,5.795
	c1.36-0.186,2.176-0.914,4.059-0.578c0.091,0.354-0.12,0.815,0,1.159c0.021,0.059,0.524-0.046,0.58,0c0.187,0.152-0.14,0.95,0,1.159
	c0.062,0.092,0.497-0.081,0.579,0c0.091,0.092-0.098,0.497,0,0.581c0.117,0.097,0.453-0.087,0.58,0
	C520.16,78.961,519.943,79.699,520.555,79.417z M358.822,16.812c-0.033,0.353-0.087,0.686-0.578,0.58
	c-0.036,0.353-0.087,0.687-0.581,0.579c0,0.386,0,0.773,0,1.159c0.352,0.033,0.688,0.087,0.581,0.58
	c-0.005,0.582,0.469,0.69,0.578,1.16c1.638,0.479,1.501-0.817,2.899-0.581c-0.421-1.773,1.001-1.704,0.578-3.478
	C361.141,16.812,359.981,16.812,358.822,16.812z M218.539,56.809c0.388,0,0.773,0,1.159,0c0.032-0.996-0.445-1.485-1.159-1.737
	C218.539,55.649,218.539,56.23,218.539,56.809z M218.539,71.882c-0.085,0.339-0.046,0.695-0.579,0.578
	c0.122,0.652,0.643,0.901,1.159,1.161c0.033-0.356,0.087-0.688,0.579-0.58c0-0.774,0-1.547,0-2.318c-0.386,0-0.771,0-1.159,0
	C218.471,71.089,218.631,71.518,218.539,71.882z M218.539,77.099c0.02,0.354,0.099,0.686,0.58,0.578
	c0.033-0.352,0.087-0.686,0.579-0.578c0.003-0.583-0.469-0.69-0.579-1.159c-0.032-0.354-0.087-0.688-0.58-0.581
	C218.563,75.937,218.509,76.521,218.539,77.099z"/>
</svg>
