<?xml version="1.0" encoding="utf-8"?>
<!-- Generator: Adobe Illustrator 15.1.0, SVG Export Plug-In . SVG Version: 6.00 Build 0)  -->
<!DOCTYPE svg PUBLIC "-//W3C//DTD SVG 1.1//EN" "http://www.w3.org/Graphics/SVG/1.1/DTD/svg11.dtd">
<svg version="1.1" id="Calque_1" xmlns="http://www.w3.org/2000/svg" xmlns:xlink="http://www.w3.org/1999/xlink" x="0px" y="0px"
	 width="86.773px" height="86.773px" viewBox="0 0 86.773 86.773" enable-background="new 0 0 86.773 86.773" xml:space="preserve">
<path display="none" d="M43.387,0C19.425,0,0,19.425,0,43.387s19.425,43.387,43.387,43.387s43.387-19.425,43.387-43.387
	S67.349,0,43.387,0z M40.88,46.981l-8.34,8.375V45.131l-0.096,0.064L21.693,32.54h-7.231L32.54,14.462v7.231l12.651,10.751
	l-0.061,0.095h10.222l-8.594,8.573l20.175,25.811L40.88,46.981z"/>
<path display="none" d="M43.387,0C19.424,0,0,19.425,0,43.387s19.424,43.387,43.387,43.387c23.961,0,43.387-19.425,43.387-43.387
	S67.348,0,43.387,0z M22.35,72.24c-4.357,0-7.887-3.53-7.887-7.888c0-4.354,3.529-7.884,7.887-7.884c4.35,0,7.893,3.53,7.893,7.884
	C30.238,68.713,26.699,72.24,22.35,72.24z M42.133,72.314v-0.003c0-7.437-2.885-14.441-8.109-19.695
	c-5.219-5.247-12.129-8.139-19.561-8.139V33.095c21.064,0,39.057,18.151,39.057,39.22H42.133z M62.248,72.314v-0.003
	c0-26.478-21.764-48.02-47.785-48.02v-11.38c32.215,0,59.168,26.647,59.168,59.402H62.248z"/>
<path display="none" d="M43.387,0C19.425,0,0,19.425,0,43.387s19.425,43.387,43.387,43.387s43.387-19.425,43.387-43.387
	S67.349,0,43.387,0z M28.925,68.696h-0.47H18.078V32.54h10.847V68.696z M23.502,27.625c-3.651,0-6.61-2.956-6.61-6.61
	c0-3.651,2.959-6.606,6.61-6.606c3.65,0,6.609,2.956,6.609,6.606C30.111,24.67,27.152,27.625,23.502,27.625z M68.696,68.696H57.85
	V49.559c0-4.516-1.925-7.595-5.964-7.595c-3.086,0-3.707,2.076-4.516,4.082c-0.297,0.717-0.367,1.72-0.367,2.722v19.928H36.156
	c0,0,0.148-33.003,0-36.156h10.847v6.158c0-2.284,2.56-6.271,11.072-6.271c8.51,0,10.621,0.268,10.621,12.224
	C68.696,56.61,68.696,68.696,68.696,68.696z"/>
<path display="none" d="M43.387,0C19.425,0,0,19.425,0,43.387s19.425,43.387,43.387,43.387s43.387-19.425,43.387-43.387
	S67.349,0,43.387,0z M36.155,57.849h-7.231V47.002h7.231V57.849z M47.002,61.465h-7.231v-3.616h7.231V61.465z M57.849,57.849h-7.231
	V47.002h7.231V57.849z M72.311,47.002c0,6.666-3.651,12.428-9.018,15.56c1.1-1.268,1.787-2.902,1.787-4.713v-7.231
	c0-3.99-3.24-7.231-7.231-7.231H28.924c-3.992,0-7.231,3.241-7.231,7.231v7.231c0,1.811,0.687,3.446,1.787,4.713
	c-5.367-3.132-9.018-8.894-9.018-15.56v-3.616c0-4.131,1.284-7.803,3.616-10.847V18.078l14.462,7.224l21.693,0.007l14.462-7.231
	L68.92,32.54c2.614,3.136,3.391,6.444,3.391,10.847V47.002z"/>
<path display="none" d="M43.387,0C19.424,0,0,19.425,0,43.387s19.424,43.387,43.387,43.387c23.961,0,43.387-19.425,43.387-43.387
	S67.348,0,43.387,0z M69.213,32.208c0.021,0.551,0.035,1.116,0.035,1.677c0,17.131-13.038,36.879-36.878,36.879
	c-7.321,0-14.134-2.146-19.868-5.826c1.018,0.12,2.047,0.184,3.092,0.184c6.07,0,11.66-2.069,16.097-5.547
	c-5.675-0.099-10.456-3.849-12.108-8.996c0.791,0.155,1.604,0.222,2.439,0.222c1.183,0,2.324-0.163,3.414-0.452
	c-5.934-1.187-10.398-6.426-10.398-12.711c0-0.06,0-0.103,0-0.159c1.746,0.968,3.744,1.557,5.871,1.614
	c-3.475-2.323-5.768-6.289-5.768-10.783c0-2.376,0.642-4.604,1.754-6.514c6.393,7.838,15.941,13,26.719,13.541
	c-0.224-0.954-0.335-1.938-0.335-2.959c0-7.153,5.804-12.955,12.962-12.955c3.727,0,7.097,1.571,9.461,4.092
	c2.949-0.583,5.723-1.66,8.23-3.149c-0.97,3.033-3.024,5.568-5.699,7.171c2.625-0.304,5.119-1.003,7.445-2.038
	C73.938,28.098,71.742,30.375,69.213,32.208z"/>
<g display="none">
	<path display="inline" d="M48.781,42.814c-2.73-1.44-5.815-2.158-9.246-2.158c-0.852,0-1.72,0.047-2.597,0.135
		c-2.966,0.294-5.649,1.041-8.057,2.244s-4.261,2.687-5.55,4.45c-1.118,1.554-1.673,3.153-1.673,4.798
		c0,0.26,0.018,0.522,0.048,0.789c0.292,2.964,2.123,5.324,5.503,7.085c2.695,1.44,5.765,2.156,9.2,2.156
		c0.851,0,1.732-0.045,2.64-0.133c4.492-0.44,8.234-1.864,11.228-4.271c2.703-2.201,4.049-4.622,4.049-7.264
		c0-0.262-0.013-0.529-0.043-0.787C53.991,46.92,52.155,44.575,48.781,42.814z M44.816,54.704c-0.909,2.083-2.513,3.613-4.8,4.579
		c-1.294,0.557-2.584,0.836-3.873,0.836c-0.998,0-1.982-0.154-2.949-0.481c-2.142-0.681-3.624-1.958-4.445-3.837
		c-0.383-0.851-0.572-1.711-0.572-2.597c0-1.027,0.263-2.053,0.791-3.083c0.911-1.876,2.434-3.282,4.579-4.224
		c1.319-0.589,2.656-0.877,4.002-0.877c0.796,0,1.591,0.104,2.378,0.308c2.235,0.591,3.83,1.791,4.804,3.615
		c0.499,0.939,0.748,1.903,0.748,2.9C45.479,52.784,45.251,53.734,44.816,54.704z"/>
	<path display="inline" d="M43.387,0C19.424,0,0,19.425,0,43.387s19.424,43.387,43.387,43.387c23.961,0,43.387-19.425,43.387-43.387
		S67.348,0,43.387,0z M61.812,55.297c-1.204,1.804-2.842,3.457-4.909,4.953c-2.064,1.496-4.683,2.728-7.838,3.697
		c-3.155,0.972-6.507,1.453-10.058,1.453c-3.844,0-7.477-0.563-10.895-1.694c-3.422-1.135-6.26-2.818-8.517-5.066
		c-2.266-2.244-3.392-4.805-3.392-7.683c0-4.725,2.695-9.815,8.1-15.275c3.431-3.405,6.896-5.782,10.387-7.132
		c1.646-0.675,3.073-1.012,4.273-1.012c1.319,0,2.377,0.4,3.164,1.188c0.77,0.768,1.147,1.821,1.147,3.171
		c0,0.911-0.176,1.967-0.528,3.166c-0.116,0.415-0.073,0.673,0.133,0.774c0.206,0.104,0.438,0.11,0.705,0.021l0.438-0.176
		c2.818-1.173,5.312-1.76,7.482-1.76c2.172,0,3.728,0.617,4.665,1.849c0.438,0.645,0.667,1.408,0.667,2.289
		c0,0.91-0.237,1.952-0.705,3.125c-0.207,0.292-0.241,0.544-0.112,0.748c0.129,0.205,0.249,0.338,0.353,0.4
		c0.104,0.056,0.313,0.131,0.637,0.219c1.818,0.557,3.37,1.468,4.664,2.73c1.294,1.258,1.943,2.831,1.943,4.71
		C63.617,51.724,63.016,53.491,61.812,55.297z M58.694,33.483c-0.645-0.763-1.44-1.144-2.377-1.144c-0.297,0-0.589,0.03-0.882,0.083
		c-0.142,0.032-0.279,0.047-0.396,0.047c-0.322,0-0.632-0.101-0.924-0.307c-0.422-0.267-0.688-0.634-0.804-1.103
		c-0.026-0.146-0.043-0.296-0.043-0.44c0-0.294,0.086-0.602,0.266-0.924c0.259-0.415,0.646-0.679,1.145-0.793
		c0.559-0.116,1.1-0.176,1.629-0.176c1.965,0,3.654,0.78,5.061,2.337c0.851,0.965,1.41,2.065,1.672,3.302
		c0.09,0.499,0.138,0.98,0.138,1.449c0,0.705-0.12,1.412-0.353,2.113c-0.146,0.473-0.438,0.809-0.877,1.017
		c-0.267,0.144-0.524,0.219-0.791,0.219c-0.207,0-0.4-0.028-0.572-0.088c-0.473-0.148-0.825-0.44-1.058-0.881
		c-0.116-0.262-0.176-0.524-0.176-0.789c0-0.205,0.03-0.4,0.09-0.574c0.116-0.413,0.177-0.791,0.177-1.146
		C59.619,34.863,59.31,34.128,58.694,33.483z M69.864,40.174v0.043c-0.173,0.529-0.512,0.924-1.011,1.189
		c-0.322,0.146-0.645,0.224-0.967,0.224c-0.207,0-0.426-0.035-0.662-0.088c-0.555-0.176-0.955-0.514-1.188-1.012
		c-0.15-0.323-0.223-0.632-0.223-0.924c0-0.237,0.029-0.456,0.09-0.665v-0.043c0.322-1,0.486-2.025,0.486-3.083
		c0-0.675-0.061-1.377-0.177-2.113c-0.383-1.816-1.204-3.418-2.468-4.798c-1.26-1.378-2.76-2.348-4.488-2.906
		c-1.027-0.292-2.055-0.437-3.082-0.437c-0.701,0-1.424,0.069-2.154,0.219c-0.146,0.028-0.297,0.043-0.443,0.043
		c-0.408,0-0.791-0.116-1.143-0.348c-0.474-0.331-0.766-0.771-0.882-1.329c-0.03-0.144-0.048-0.292-0.048-0.44
		c0-0.38,0.121-0.748,0.354-1.101c0.296-0.469,0.718-0.778,1.276-0.924c0.997-0.204,1.995-0.308,2.992-0.308
		c1.496,0,2.962,0.219,4.402,0.66c2.434,0.793,4.536,2.158,6.294,4.095c1.759,1.937,2.902,4.179,3.436,6.737
		c0.201,1.028,0.31,2.025,0.31,2.995C70.569,37.356,70.337,38.794,69.864,40.174z"/>
	<path display="inline" d="M39.093,50.121c-0.267-0.088-0.551-0.075-0.86,0.026c-0.31,0.105-0.537,0.288-0.684,0.552
		c-0.09,0.176-0.133,0.351-0.133,0.525v0.262h0.004c0.091,0.265,0.279,0.456,0.572,0.576c0.146,0.056,0.283,0.09,0.421,0.09
		c0.129,0,0.271-0.034,0.413-0.09c0.322-0.12,0.559-0.312,0.705-0.576c0.15-0.262,0.176-0.524,0.09-0.787
		C39.531,50.435,39.354,50.243,39.093,50.121z"/>
	<path display="inline" d="M35.657,51.569c-0.382-0.142-0.77-0.219-1.147-0.219c-0.353,0-0.723,0.054-1.101,0.176
		c-0.791,0.265-1.397,0.733-1.806,1.408c-0.322,0.469-0.486,0.958-0.486,1.453c0.009,0.21,0.039,0.4,0.095,0.578
		c0.177,0.733,0.619,1.247,1.324,1.539c0.383,0.176,0.778,0.265,1.191,0.265c0.348,0,0.7-0.061,1.053-0.177
		c0.821-0.264,1.453-0.748,1.892-1.453c0.293-0.468,0.443-0.937,0.443-1.41c0-0.202-0.048-0.424-0.138-0.658
		C36.801,52.367,36.358,51.864,35.657,51.569z"/>
</g>
<g>
	<path d="M43.387,0C19.426,0,0,19.425,0,43.387s19.426,43.387,43.387,43.387c23.963,0,43.387-19.425,43.387-43.387S67.35,0,43.387,0
		z M53.104,48.584c0.297,0.393,0.781,0.579,1.473,0.579c1.592,0,3.256-1.112,4.947-3.309c1.736-2.26,2.619-5.324,2.619-9.105
		c0-5.618-2.34-9.537-7.156-11.983c-3.041-1.561-6.516-2.345-10.32-2.345c-7.01,0-12.715,2.164-16.953,6.433
		c-3.805,3.853-5.736,8.534-5.736,13.915c0,5.964,2.252,10.759,6.697,14.236c3.969,3.104,8.885,4.675,14.617,4.675
		c3.93,0,7.656-0.73,11.074-2.178c1.859-0.767,3.812-1.872,5.814-3.281l1.377-0.98l3.107,4.77l-0.525,0.41
		c-3.08,2.383-6.455,4.223-10.043,5.465c-3.59,1.25-7.365,1.886-11.221,1.886c-9.025,0-16.121-2.86-21.104-8.499
		c-4.135-4.674-6.229-10.292-6.229-16.689c0-7.164,2.619-13.326,7.771-18.304c5.402-5.247,12.404-7.909,20.811-7.909
		c6.854,0,12.619,1.829,17.139,5.434c4.809,3.838,7.248,9,7.248,15.342c0,4.988-1.545,9.335-4.59,12.919
		c-3.072,3.619-6.648,5.455-10.623,5.455c-2.158,0-3.855-0.639-5.049-1.886c-0.812-0.847-1.35-1.733-1.604-2.647
		c-0.516,0.71-1.057,1.331-1.625,1.854c-1.934,1.762-4.297,2.651-7.008,2.651c-2.783,0-5.127-1.014-6.977-3.019
		c-1.836-1.978-2.77-4.753-2.77-8.259c0-4,1.377-7.8,4.086-11.284c2.758-3.542,6.199-5.335,10.232-5.335
		c2.43,0,4.357,0.695,5.727,2.065c0.459,0.47,0.857,1.285,1.197,1.79l0.777-2.521h7.551l-4.355,14.703
		c-0.248,0.864-0.439,1.465-0.576,2.02c0,0-0.289,1.221-0.289,1.585C52.621,47.733,52.783,48.157,53.104,48.584z"/>
	<g>
		<ellipse transform="matrix(0.883 0.4695 -0.4695 0.883 24.072 -14.2791)" cx="40.672" cy="41.136" rx="5.498" ry="8.001"/>
	</g>
</g>
</svg>
