<?xml version="1.0" encoding="utf-8"?>
<!-- Generator: Adobe Illustrator 15.1.0, SVG Export Plug-In . SVG Version: 6.00 Build 0)  -->
<!DOCTYPE svg PUBLIC "-//W3C//DTD SVG 1.1//EN" "http://www.w3.org/Graphics/SVG/1.1/DTD/svg11.dtd">
<svg version="1.1" id="Calque_1" xmlns="http://www.w3.org/2000/svg" xmlns:xlink="http://www.w3.org/1999/xlink" x="0px" y="0px"
	 width="890.215px" height="111.755px" viewBox="0 0 890.215 111.755" enable-background="new 0 0 890.215 111.755"
	 xml:space="preserve">
<g>
	<path fill="#FFFFFF" d="M140.074,67.777c-2.24,22.4-20.72,40.6-49.419,40.6c-32.48,0-53.2-20.439-53.2-52.5
		c0-22.819,14.14-52.499,53.2-52.499c21.84,0,45.5,9.939,48.58,36.26h-10.36c-3.08-19.04-20.16-26.74-38.22-26.74
		c-24.78,0-42,13.86-42,42.979c0,22.261,11.62,42.98,42,42.98c23.8,0,35.56-12.04,39.06-31.08H140.074z"/>
	<path fill="#FFFFFF" d="M190.121,29c21.314,0,40.738,12.915,40.738,39.374s-19.424,39.374-40.738,39.374
		c-21.314,0-40.738-12.915-40.738-39.374S168.807,29,190.121,29z M190.121,100.607c16.484,0,32.339-9.659,32.339-32.233
		S206.605,36.14,190.121,36.14s-32.338,9.66-32.338,32.234S173.637,100.607,190.121,100.607z"/>
	<path fill="#FFFFFF" d="M319.583,30.891h11.025v74.967h-7.77V41.075h-0.21l-33.074,64.782h-7.14L249.446,40.97h-0.21v64.888h-7.77
		V30.891h11.339l33.389,65.202L319.583,30.891z"/>
	<path fill="#FFFFFF" d="M345.415,30.891h40.424c11.549,0,22.574,5.774,22.574,21.629c0,14.174-9.346,21.84-26.039,21.84h-29.189
		v31.498h-7.77V30.891z M353.185,67.219h30.029c13.02,0,16.799-5.984,16.799-14.699c0-11.234-6.299-14.489-15.225-14.489h-31.604
		V67.219z"/>
	<path fill="#FFFFFF" d="M417.76,30.891h7.77v67.827h47.563v7.14H417.76V30.891z"/>
	<path fill="#FFFFFF" d="M480.967,30.891h59.639v7.14h-51.869v25.408h49.979v7.141h-49.979v28.139h52.709v7.14h-60.479V30.891z"/>
	<path fill="#FFFFFF" d="M573.997,67.85l-29.188-36.959h10.395l24.359,30.868l25.094-30.868h9.658L584.917,67.43l30.344,38.428
		h-10.289l-25.619-32.234l-25.828,32.234h-9.975L573.997,67.85z"/>
	<path fill="#FFFFFF" d="M722.467,67.777c-2.24,22.4-20.721,40.6-49.42,40.6c-32.48,0-53.199-20.439-53.199-52.5
		c0-22.819,14.139-52.499,53.199-52.499c21.84,0,45.5,9.939,48.58,36.26h-10.361c-3.08-19.04-20.158-26.74-38.219-26.74
		c-24.779,0-42,13.86-42,42.979c0,22.261,11.619,42.98,42,42.98c23.799,0,35.561-12.04,39.061-31.08H722.467z"/>
	<path fill="#FFFFFF" d="M735.555,30.891h7.77v74.967h-7.77V30.891z"/>
	<path fill="#FFFFFF" d="M779.967,38.03h-29.398v-7.14h66.568v7.14h-29.4v67.827h-7.77V38.03z"/>
	<path fill="#FFFFFF" d="M848.743,74.359l-33.705-43.469h10.08l27.51,35.698l27.508-35.698h10.08l-33.703,43.469v31.498h-7.77
		V74.359z"/>
</g>
<g>
	<path fill-rule="evenodd" clip-rule="evenodd" fill="#D10019" d="M7.655,7.627C7.58,7.725,7.543,7.886,7.543,8.111v4.281h7.389
		V10.59H9.007c-0.571,0-0.856-0.24-0.856-0.721c0-0.48,0.285-0.721,0.856-0.721h5.925V8.066c0-0.271,0.09-0.465,0.271-0.586H8.083
		C7.873,7.48,7.73,7.53,7.655,7.627z"/>
	<path fill-rule="evenodd" clip-rule="evenodd" fill="#D10019" d="M21.33,11.401c0-0.315-0.042-0.53-0.124-0.642
		c-0.083-0.113-0.297-0.169-0.642-0.169h-3.92v1.802h4.686V11.401z"/>
	<path fill-rule="evenodd" clip-rule="evenodd" fill="#D10019" d="M21.207,15.58c0.082-0.097,0.124-0.304,0.124-0.62v-1.126h-4.686
		v1.892h4.01C20.939,15.726,21.124,15.678,21.207,15.58z"/>
	<path fill-rule="evenodd" clip-rule="evenodd" fill="#D10019" d="M24.84,0H4.731C2.119,0,0,2.943,0,6.574v98.607
		c0,3.631,2.119,6.573,4.731,6.573H24.84c2.613,0,4.731-2.942,4.731-6.573V6.574C29.571,2.943,27.453,0,24.84,0z M5.2,65.154
		c-0.481,0-0.721-0.233-0.721-0.699c0-0.48,0.24-0.721,0.721-0.721h1.938v-3.762c0-0.571,0.263-0.856,0.789-0.856
		c0.541,0,0.811,0.286,0.811,0.856v3.762h1.667c0.48,0,0.721,0.24,0.721,0.721c0,0.466-0.241,0.699-0.721,0.699H8.737v8.245
		c0.15-0.104,0.308-0.21,0.473-0.315c0.165-0.104,0.33-0.217,0.496-0.338c0.36-0.255,0.638-0.383,0.833-0.383
		c0.195,0,0.36,0.06,0.496,0.18c0.15,0.105,0.225,0.267,0.225,0.484c0,0.218-0.083,0.432-0.248,0.642
		c-0.166,0.21-0.766,0.653-1.802,1.329c-0.526,0.331-1.041,0.642-1.543,0.935c-0.503,0.293-1.01,0.567-1.521,0.822
		c-0.271,0.15-0.507,0.236-0.709,0.259c-0.203,0.022-0.376,0-0.519-0.068c-0.143-0.067-0.255-0.162-0.338-0.282
		s-0.139-0.248-0.169-0.383c0-0.3,0.3-0.608,0.901-0.924c0.3-0.165,0.604-0.33,0.912-0.496c0.308-0.165,0.612-0.33,0.913-0.496
		v-9.214H5.2z M14.099,39.201c0.616,0,0.894,0.323,0.833,0.969c1.231-2.223,2.065-4.671,2.5-7.344
		c0.105-0.646,0.428-0.969,0.969-0.969c0.541,0,0.811,0.286,0.811,0.856c0,0.376-0.173,1.239-0.518,2.591h4.483
		c1.276,0,1.915,0.458,1.915,1.375c0.015,0.166-0.023,0.466-0.113,0.901c-0.09,0.436-0.207,0.89-0.349,1.363
		c-0.143,0.473-0.293,0.912-0.451,1.318c-0.158,0.405-0.304,0.668-0.439,0.789c-0.15,0.18-0.319,0.27-0.507,0.27
		c-0.188,0-0.387-0.06-0.597-0.18c-0.21-0.135-0.315-0.315-0.315-0.541c0-0.226,0.06-0.503,0.18-0.833
		c0.48-1.352,0.721-2.133,0.721-2.343c0-0.255-0.042-0.417-0.124-0.484c-0.083-0.067-0.236-0.101-0.462-0.101h-4.393
		c-0.346,1.021-0.751,2.027-1.216,3.019c-0.481,1.037-0.819,1.63-1.014,1.78c-0.195,0.15-0.391,0.226-0.586,0.226
		c-0.195,0-0.391-0.068-0.586-0.203c-0.195-0.135-0.292-0.289-0.292-0.461s0.045-0.364,0.135-0.575
		c-0.121,0.09-0.315,0.135-0.586,0.135h-1.532v11.039c0,0.57-0.278,0.856-0.833,0.856c-0.541,0-0.811-0.286-0.811-0.856V40.755
		H8.083c-0.015,1.262-0.038,2.358-0.068,3.289c-0.03,0.932-0.083,1.712-0.158,2.343c-0.135,1.262-0.405,2.433-0.811,3.515
		c-0.391,1.082-0.698,1.742-0.923,1.982c-0.18,0.21-0.383,0.327-0.608,0.349c-0.225,0.023-0.417-0.026-0.574-0.146
		c-0.158-0.121-0.256-0.301-0.293-0.541c-0.038-0.24,0.048-0.518,0.259-0.833c0.601-1.142,0.999-2.305,1.194-3.492
		c0.21-1.231,0.315-3.042,0.315-5.43v-6.308c0-0.555,0.082-0.935,0.248-1.138c0.165-0.203,0.451-0.334,0.856-0.394
		c2.418-0.375,4.536-0.909,6.354-1.6c0.135-0.09,0.289-0.131,0.461-0.124c0.173,0.008,0.334,0.049,0.484,0.124
		c0.15,0.075,0.271,0.184,0.361,0.327c0.09,0.143,0.127,0.312,0.112,0.507c0,0.226-0.112,0.414-0.338,0.563
		c-0.12,0.075-0.357,0.18-0.709,0.315c-0.353,0.135-0.845,0.285-1.476,0.45c-0.616,0.166-1.27,0.312-1.96,0.439
		c-0.691,0.128-1.435,0.244-2.23,0.349c-0.331,0.045-0.496,0.308-0.496,0.789v3.109H14.099z M21.06,43.064
		c0.18,0.668,0.375,1.311,0.585,1.926c0.21,0.601,0.432,1.164,0.665,1.689c0.233,0.526,0.469,1.006,0.71,1.442
		c0.48,0.901,1.149,1.967,2.005,3.199c0.165,0.195,0.259,0.394,0.282,0.597c0.022,0.203-0.004,0.386-0.079,0.552
		c-0.075,0.165-0.188,0.3-0.338,0.405c-0.15,0.105-0.308,0.166-0.473,0.181c-0.21,0-0.413-0.113-0.608-0.338
		c-0.105-0.12-0.252-0.312-0.439-0.574c-0.188-0.263-0.409-0.605-0.665-1.025c-0.511-0.826-1.006-1.81-1.487-2.952
		c-0.481-1.141-0.894-2.388-1.239-3.74c-0.24,0.676-0.529,1.397-0.867,2.163c-0.338,0.766-0.74,1.577-1.206,2.433
		c-0.24,0.435-0.477,0.852-0.709,1.25c-0.233,0.398-0.477,0.785-0.732,1.161c-0.511,0.781-0.811,1.208-0.901,1.284
		c-0.09,0.09-0.184,0.154-0.282,0.192c-0.098,0.037-0.229,0.056-0.394,0.056c-0.121-0.015-0.248-0.056-0.383-0.124
		c-0.135-0.067-0.24-0.169-0.315-0.304c-0.075-0.135-0.101-0.296-0.079-0.484s0.139-0.409,0.349-0.665
		c2.929-4.055,4.393-7.862,4.393-11.422V38.66c0-0.33,0.09-0.578,0.271-0.744c0.18-0.165,0.379-0.244,0.597-0.236
		c0.218,0.008,0.417,0.094,0.597,0.259c0.18,0.166,0.271,0.406,0.271,0.721v2.253C20.722,41.679,20.88,42.396,21.06,43.064z
		 M24.282,90.138h-8.719v2.816h5.655c0.42,0,0.773,0.034,1.059,0.102s0.514,0.184,0.687,0.349c0.173,0.166,0.293,0.395,0.361,0.687
		c0.067,0.293,0.101,0.665,0.101,1.115v6.714c0,1.606-0.894,2.41-2.681,2.41c-0.481,0-1.097-0.083-1.848-0.248
		c-0.706-0.166-1.104-0.346-1.194-0.541c-0.09-0.195-0.135-0.383-0.135-0.563c0-0.15,0.034-0.285,0.102-0.405
		c0.067-0.12,0.154-0.214,0.259-0.282c0.105-0.068,0.214-0.109,0.327-0.124c0.113-0.015,0.207,0.008,0.282,0.067
		c0.856,0.226,1.524,0.338,2.005,0.338c0.781,0,1.171-0.315,1.171-0.946V95.14c0-0.436-0.218-0.653-0.653-0.653h-5.497v11.828
		c0,0.255-0.09,0.446-0.271,0.574c-0.18,0.127-0.379,0.191-0.597,0.191c-0.218,0-0.417-0.064-0.597-0.191
		c-0.18-0.128-0.271-0.319-0.271-0.574V94.486H8.759c-0.24,0-0.405,0.045-0.496,0.135c-0.09,0.09-0.135,0.263-0.135,0.518v7.953
		c0,0.255-0.079,0.458-0.236,0.608c-0.158,0.15-0.364,0.226-0.62,0.226c-0.571,0-0.856-0.278-0.856-0.833v-7.93
		c0-0.871,0.15-1.457,0.45-1.757c0.3-0.3,0.901-0.451,1.802-0.451h5.159v-2.816H5.2c-0.571,0-0.856-0.248-0.856-0.744
		c0-0.51,0.285-0.766,0.856-0.766h8.809l-1.036-1.645c-0.09-0.12-0.135-0.263-0.135-0.428c0-0.165,0.098-0.33,0.293-0.496
		c0.195-0.18,0.409-0.271,0.642-0.271c0.232,0,0.439,0.038,0.62,0.113s0.356,0.225,0.529,0.451c0.172,0.225,0.334,0.465,0.484,0.721
		c0.285,0.436,0.454,0.774,0.507,1.014c0.052,0.241,0.056,0.421,0.011,0.541h8.358c0.57,0,0.856,0.255,0.856,0.766
		C25.138,89.89,24.852,90.138,24.282,90.138z M24.169,80.181c-0.451,0-1.126-0.548-2.028-1.645
		c-0.436-0.556-0.803-1.059-1.104-1.509c-0.301-0.451-0.526-0.849-0.676-1.194c-0.255,0.346-0.522,0.68-0.799,1.003
		c-0.278,0.323-0.552,0.619-0.823,0.89c-0.27,0.271-0.518,0.507-0.743,0.709c-0.225,0.203-0.406,0.35-0.541,0.439
		c-0.376,0.271-0.721,0.353-1.037,0.248c-0.315-0.105-0.473-0.308-0.473-0.608c0-0.271,0.218-0.601,0.653-0.991
		c1.157-1.006,2.17-2.148,3.042-3.424c-0.736-2.163-1.134-5.768-1.194-10.814h-4.708c-0.361,0-0.541,0.21-0.541,0.631v2.433h2.028
		c0.36,0,0.665,0.038,0.912,0.113c0.248,0.075,0.443,0.203,0.586,0.383c0.143,0.18,0.244,0.417,0.304,0.709
		c0.06,0.293,0.09,0.665,0.09,1.115c0,0.872-0.022,2.148-0.067,3.83c-0.03,1.682-0.075,2.688-0.135,3.019
		c-0.06,0.346-0.191,0.661-0.394,0.946s-0.477,0.496-0.822,0.631c-0.315,0.15-0.796,0.225-1.442,0.225
		c-0.631,0-1.063-0.09-1.295-0.27c-0.233-0.18-0.349-0.398-0.349-0.653c0-0.465,0.285-0.698,0.856-0.698l0.744,0.045
		c0.661,0,1.051-0.24,1.171-0.721c0.135-0.496,0.203-2.163,0.203-5.001c0-1.066-0.045-1.705-0.135-1.915
		c-0.075-0.21-0.27-0.315-0.585-0.315h-1.667v1.352c0,1.848-0.158,3.545-0.473,5.091c-0.285,1.547-0.758,2.884-1.419,4.01
		c-0.646,1.141-1.225,1.712-1.735,1.712c-0.121,0-0.233-0.026-0.338-0.079c-0.105-0.053-0.184-0.135-0.237-0.248
		c-0.053-0.113-0.064-0.252-0.034-0.417c0.03-0.166,0.113-0.36,0.248-0.585c1.051-1.622,1.704-3.146,1.96-4.574
		c0.255-1.457,0.383-3.131,0.383-5.024V63.96c0-0.796,0.154-1.348,0.462-1.656c0.308-0.308,0.852-0.462,1.633-0.462h4.776
		c-0.061-0.721-0.09-1.363-0.09-1.926c0-0.563,0.06-0.919,0.18-1.07c0.105-0.09,0.244-0.158,0.417-0.203
		c0.172-0.045,0.334-0.045,0.484,0c0.15,0.045,0.273,0.146,0.372,0.304c0.098,0.158,0.131,0.395,0.102,0.71
		c0,0.496,0.011,0.923,0.034,1.284c0.022,0.36,0.048,0.661,0.079,0.901h2.321c-0.121-0.165-0.274-0.364-0.462-0.597
		c-0.188-0.233-0.41-0.5-0.665-0.8c-0.09-0.105-0.143-0.226-0.158-0.361c-0.015-0.135,0-0.266,0.045-0.394
		c0.045-0.127,0.124-0.233,0.236-0.315c0.113-0.083,0.259-0.124,0.439-0.124c0.21,0,0.465,0.173,0.766,0.518
		c0.15,0.166,0.308,0.346,0.473,0.541c0.165,0.195,0.338,0.398,0.518,0.608c0.345,0.42,0.488,0.729,0.428,0.923h0.518
		c0.48,0,0.721,0.241,0.721,0.721s-0.24,0.721-0.721,0.721h-4.438c0.075,4.341,0.308,7.314,0.699,8.921
		c0.781-1.637,1.269-3.304,1.464-5.001c0.12-0.75,0.405-1.126,0.856-1.126c0.225,0,0.417,0.094,0.574,0.282
		c0.158,0.188,0.237,0.5,0.237,0.935s-0.203,1.359-0.608,2.771c-0.195,0.721-0.447,1.427-0.754,2.118
		c-0.308,0.691-0.672,1.389-1.093,2.095c0.496,1.142,0.958,1.994,1.385,2.557c0.428,0.563,0.695,0.845,0.8,0.845
		c0.045,0,0.086-0.042,0.124-0.124c0.037-0.083,0.071-0.229,0.102-0.439c0.03-0.21,0.052-0.496,0.067-0.856
		c0.015-0.36,0.038-0.826,0.068-1.397c0.015-0.69,0.27-1.036,0.766-1.036c0.24,0,0.413,0.075,0.518,0.225
		c0.105,0.15,0.158,0.421,0.158,0.811C25.385,78.408,24.98,80.181,24.169,80.181z M18.852,20.412
		c0.496-0.42,0.969-0.833,1.419-1.239c0.451-0.405,0.878-0.818,1.284-1.239c0.21-0.24,0.405-0.383,0.585-0.428
		c0.181-0.045,0.338-0.037,0.473,0.022c0.135,0.061,0.24,0.154,0.315,0.282c0.075,0.128,0.12,0.259,0.135,0.394
		c0,0.601-0.969,1.63-2.906,3.086c1.247,0.751,2.605,1.269,4.078,1.555c0.436,0.09,0.751,0.199,0.946,0.327
		c0.195,0.127,0.293,0.304,0.293,0.529c0,0.541-0.375,0.811-1.126,0.811c-0.736,0-1.87-0.338-3.402-1.014
		c-1.517-0.646-2.951-1.622-4.303-2.929v2.298c0,1.352-0.143,2.215-0.428,2.591c-0.271,0.375-0.878,0.563-1.825,0.563
		c-0.241,0-0.507-0.012-0.8-0.034s-0.612-0.064-0.958-0.124c-0.691-0.121-1.089-0.263-1.194-0.428
		c-0.121-0.166-0.181-0.338-0.181-0.518c0-0.451,0.3-0.676,0.901-0.676c0.09,0,0.214,0.011,0.372,0.034s0.327,0.045,0.507,0.067
		s0.364,0.042,0.552,0.057c0.188,0.015,0.349,0.022,0.484,0.022c0.3,0,0.518-0.09,0.653-0.271s0.203-0.668,0.203-1.464v-1.509
		c-0.09,0.075-0.259,0.188-0.507,0.338c-0.248,0.15-0.582,0.346-1.002,0.585c-0.811,0.48-1.622,0.909-2.433,1.284
		c-0.841,0.391-1.457,0.661-1.848,0.811c-0.571,0.21-1.006,0.267-1.307,0.169s-0.45-0.319-0.45-0.665
		c0-0.36,0.285-0.668,0.856-0.923c0.946-0.376,1.877-0.785,2.793-1.228c0.916-0.443,1.832-0.92,2.749-1.431
		c0.496-0.285,0.878-0.278,1.149,0.022v-2.883H8.917c-0.556,0-0.833-0.255-0.833-0.766c0-0.51,0.263-0.766,0.789-0.766h6.06v-1.892
		H7.543v1.284c0,2.448-0.173,4.454-0.519,6.015c-0.165,0.766-0.319,1.397-0.461,1.893c-0.143,0.496-0.274,0.871-0.395,1.126
		c-0.225,0.496-0.533,0.744-0.924,0.744c-0.511,0-0.766-0.218-0.766-0.653c0-0.241,0.067-0.563,0.203-0.969
		c0.48-1.487,0.796-2.779,0.946-3.875c0.075-0.556,0.135-1.19,0.18-1.904s0.067-1.505,0.067-2.377V7.931
		c0-0.676,0.15-1.16,0.451-1.453c0.3-0.293,0.773-0.439,1.419-0.439h6.939c-0.015-0.09-0.061-0.255-0.135-0.496
		c-0.076-0.24-0.113-0.413-0.113-0.518c0-0.255,0.109-0.439,0.327-0.552s0.462-0.169,0.732-0.169c0.271,0,0.492,0.128,0.665,0.383
		c0.172,0.256,0.341,0.706,0.507,1.352h7.727c0.571,0,0.856,0.255,0.856,0.766c0,0.451-0.286,0.676-0.856,0.676h-8.02
		c0.18,0.135,0.271,0.331,0.271,0.586v1.082h4.821c0.496,0,0.879,0.162,1.149,0.484c0.271,0.323,0.406,0.77,0.406,1.34v1.419h1.734
		c0.541,0,0.811,0.24,0.811,0.721c0,0.481-0.27,0.721-0.811,0.721H23.02v1.239c0,0.856-0.177,1.435-0.529,1.735
		c-0.354,0.3-0.913,0.451-1.679,0.451h-4.167v1.104C17.395,19.203,18.131,19.887,18.852,20.412z M8.59,18.351
		c-0.022-0.097-0.011-0.191,0.034-0.281c0.045-0.09,0.098-0.181,0.158-0.271c0.12-0.165,0.33-0.248,0.631-0.248
		c0.3,0,0.751,0.196,1.352,0.586c0.601,0.375,1.07,0.684,1.408,0.924s0.507,0.511,0.507,0.811s-0.143,0.515-0.428,0.642
		c-0.286,0.127-0.639,0.049-1.059-0.237c-0.796-0.555-1.427-0.961-1.893-1.216c-0.225-0.135-0.394-0.263-0.507-0.383
		C8.681,18.558,8.613,18.449,8.59,18.351z"/>
</g>
</svg>
