<?xml version="1.0" encoding="utf-8"?>
<!-- Generator: Adobe Illustrator 15.1.0, SVG Export Plug-In . SVG Version: 6.00 Build 0)  -->
<!DOCTYPE svg PUBLIC "-//W3C//DTD SVG 1.1//EN" "http://www.w3.org/Graphics/SVG/1.1/DTD/svg11.dtd">
<svg version="1.1" id="Calque_1" xmlns="http://www.w3.org/2000/svg" xmlns:xlink="http://www.w3.org/1999/xlink" x="0px" y="0px"
	 width="24.699px" height="20.143px" viewBox="0 0 24.699 20.143" enable-background="new 0 0 24.699 20.143" xml:space="preserve">
<path fill="#3E3D40" d="M0,13.51c0-2.146,1.226-4.459,3.68-6.939c1.56-1.547,3.133-2.627,4.72-3.24
	c0.747-0.307,1.396-0.46,1.94-0.46c0.6,0,1.08,0.182,1.438,0.54C12.127,3.76,12.3,4.238,12.3,4.851c0,0.414-0.08,0.894-0.24,1.438
	c-0.053,0.188-0.033,0.306,0.06,0.352c0.095,0.047,0.2,0.05,0.32,0.01l0.2-0.08c1.28-0.533,2.413-0.8,3.399-0.8
	s1.693,0.28,2.119,0.84c0.199,0.293,0.303,0.64,0.303,1.04c0,0.413-0.107,0.887-0.32,1.42c-0.094,0.133-0.109,0.247-0.051,0.34
	s0.113,0.153,0.16,0.182c0.047,0.025,0.143,0.06,0.289,0.1c0.826,0.253,1.531,0.667,2.119,1.24c0.588,0.571,0.883,1.286,0.883,2.14
	c0,0.787-0.273,1.59-0.82,2.41c-0.547,0.819-1.291,1.57-2.23,2.25c-0.938,0.68-2.127,1.239-3.561,1.68
	c-1.434,0.441-2.957,0.66-4.57,0.66c-1.746,0-3.396-0.256-4.949-0.77c-1.555-0.516-2.844-1.28-3.869-2.302
	C0.513,15.981,0,14.818,0,13.51z M2.5,14.471C2.633,15.818,3.466,16.89,5,17.69c1.226,0.654,2.619,0.979,4.18,0.979
	c0.387,0,0.787-0.021,1.2-0.061c2.041-0.2,3.741-0.847,5.1-1.94c1.229-1,1.84-2.1,1.84-3.3c0-0.119-0.006-0.24-0.02-0.357
	c-0.133-1.335-0.967-2.4-2.5-3.2c-1.24-0.654-2.642-0.98-4.201-0.98c-0.387,0-0.78,0.021-1.18,0.062
	c-1.348,0.134-2.566,0.473-3.66,1.02s-1.936,1.221-2.521,2.021c-0.507,0.706-0.76,1.433-0.76,2.18
	C2.48,14.231,2.487,14.35,2.5,14.471z M5.7,15.711c-0.173-0.387-0.26-0.777-0.26-1.18c0-0.467,0.12-0.933,0.36-1.4
	c0.413-0.853,1.104-1.491,2.08-1.919c0.6-0.268,1.207-0.398,1.818-0.398c0.36,0,0.722,0.047,1.08,0.14
	c1.015,0.269,1.74,0.813,2.182,1.643c0.227,0.427,0.34,0.864,0.34,1.317c0,0.428-0.104,0.859-0.301,1.3
	c-0.414,0.946-1.141,1.642-2.181,2.08c-0.587,0.253-1.173,0.38-1.76,0.38c-0.453,0-0.9-0.07-1.34-0.219
	C6.747,17.144,6.073,16.564,5.7,15.711z M6.82,15.332c0.08,0.333,0.28,0.566,0.602,0.699c0.173,0.08,0.353,0.12,0.54,0.12
	c0.158,0,0.318-0.027,0.479-0.08c0.373-0.12,0.66-0.34,0.86-0.66c0.133-0.213,0.2-0.426,0.2-0.641c0-0.092-0.021-0.192-0.062-0.299
	c-0.08-0.32-0.28-0.549-0.6-0.683c-0.173-0.064-0.349-0.1-0.521-0.1c-0.16,0-0.327,0.024-0.5,0.08
	c-0.358,0.12-0.634,0.333-0.82,0.64c-0.146,0.213-0.22,0.436-0.22,0.66C6.78,15.165,6.793,15.251,6.82,15.332z M9.64,13.751
	c0.04,0.12,0.126,0.207,0.26,0.262c0.066,0.025,0.129,0.041,0.19,0.041c0.06,0,0.123-0.016,0.188-0.041
	c0.146-0.055,0.253-0.142,0.32-0.262c0.067-0.119,0.08-0.238,0.04-0.357c-0.04-0.12-0.12-0.207-0.24-0.263
	c-0.12-0.04-0.25-0.034-0.39,0.012c-0.142,0.048-0.244,0.131-0.312,0.251c-0.04,0.08-0.06,0.159-0.06,0.238v0.119H9.64z
	 M16.061,1.331c-0.014-0.065-0.021-0.133-0.021-0.2c0-0.173,0.055-0.34,0.16-0.5c0.135-0.213,0.326-0.354,0.58-0.42
	c0.453-0.093,0.906-0.14,1.359-0.14c0.68,0,1.346,0.1,2,0.3c1.105,0.36,2.061,0.98,2.859,1.86s1.318,1.898,1.561,3.061
	c0.092,0.467,0.141,0.92,0.141,1.36c0,0.68-0.105,1.333-0.32,1.96v0.02c-0.078,0.24-0.232,0.42-0.459,0.54
	c-0.146,0.066-0.293,0.102-0.439,0.102c-0.094,0-0.193-0.016-0.301-0.04c-0.252-0.08-0.434-0.233-0.539-0.46
	c-0.068-0.146-0.102-0.287-0.102-0.42c0-0.107,0.014-0.207,0.041-0.302v-0.02c0.146-0.454,0.221-0.92,0.221-1.4
	c0-0.307-0.027-0.626-0.08-0.96c-0.174-0.825-0.547-1.553-1.121-2.18c-0.572-0.626-1.254-1.066-2.039-1.32
	c-0.467-0.133-0.934-0.198-1.4-0.198c-0.318,0-0.646,0.031-0.979,0.1c-0.066,0.013-0.135,0.02-0.201,0.02
	c-0.186,0-0.359-0.053-0.52-0.158C16.246,1.784,16.113,1.584,16.061,1.331z M16.859,4.471c-0.012-0.066-0.02-0.135-0.02-0.2
	c0-0.134,0.039-0.273,0.121-0.42c0.117-0.188,0.293-0.309,0.52-0.36c0.254-0.053,0.5-0.08,0.74-0.08c0.893,0,1.66,0.354,2.299,1.062
	c0.387,0.438,0.641,0.938,0.76,1.5c0.041,0.227,0.062,0.445,0.062,0.658c0,0.32-0.055,0.642-0.16,0.96
	c-0.066,0.215-0.199,0.367-0.398,0.462c-0.121,0.065-0.238,0.1-0.359,0.1c-0.094,0-0.182-0.013-0.26-0.04
	c-0.215-0.067-0.375-0.2-0.48-0.4c-0.053-0.119-0.08-0.238-0.08-0.358c0-0.093,0.014-0.182,0.041-0.261
	c0.053-0.188,0.08-0.359,0.08-0.521c0-0.373-0.141-0.707-0.42-1c-0.293-0.347-0.654-0.52-1.08-0.52c-0.135,0-0.268,0.014-0.4,0.038
	c-0.064,0.015-0.127,0.021-0.18,0.021c-0.146,0-0.287-0.046-0.42-0.14C17.033,4.851,16.912,4.684,16.859,4.471z"/>
</svg>
