<?xml version="1.0" encoding="utf-8"?>
<!-- Generator: Adobe Illustrator 18.0.0, SVG Export Plug-In . SVG Version: 6.00 Build 0)  -->
<!DOCTYPE svg PUBLIC "-//W3C//DTD SVG 1.1//EN" "http://www.w3.org/Graphics/SVG/1.1/DTD/svg11.dtd">
<svg version="1.1" id="Calque_1" xmlns="http://www.w3.org/2000/svg" xmlns:xlink="http://www.w3.org/1999/xlink" x="0px" y="0px"
	 viewBox="0 0 560 560" enable-background="new 0 0 560 560" xml:space="preserve">
<g>
	<path d="M96,310.7c-6.8-2-35.8-9.6-37.9-10.1c-9.4-2.6-15.6-7.9-15.6-17c0-2.9,0.7-5.6,1.8-7.6H20.8c-0.9,3-1.4,6.7-1.4,10.3
		c0,13.6,6.6,27.3,29,33.3c18,5,30,7.4,39.2,10.9c5.3,2,10.8,6.1,10.8,16.2c0,9.9-7.5,19.6-27.8,19.6c-18.4,0-33.3-7.4-33.3-28.4
		h-23c0.5,33,24.8,47.1,54.8,47.1c26.1,0,52.2-11.6,52.2-41C121.5,330.5,113.2,315.9,96,310.7z M115.7,276.4c0-0.1-0.1-0.3-0.1-0.4
		H90.2c0,0,0.1,0.1,0.1,0.1c0.1,0.1,0.2,0.2,0.3,0.3c2.4,3.4,3.9,7.6,4.3,13.6h23C117.8,285,117.1,280.5,115.7,276.4z M70.2,266.7
		C70.2,266.7,70.2,266.7,70.2,266.7c-0.1-0.1-0.2,0-0.4,0C70,266.7,70.1,266.8,70.2,266.7c0,0.1,0,0.1,0,0.1
		C70.3,266.8,70.2,266.8,70.2,266.7z M59,258.8c0,0.1,0,0.2,0,0.3c0,0.1,0,0.3,0,0.4c0-0.1,0.1-0.3,0-0.4
		C59.1,259,59,258.9,59,258.8z M59,257.6C59,257.6,59,257.6,59,257.6c0,0.2,0,0.4,0,0.5C59,258,59,257.8,59,257.6z M58.9,257.5
		c-0.1-0.4-0.4-0.5-0.7-0.8c0,0,0,0,0-0.1c-0.2-0.2-0.2-0.4-0.2-0.6c0,0-0.1,0-0.1,0c0,0.1,0.1,0.2,0.1,0.2v0c0,0.1,0,0.1,0,0.2
		c0,0,0,0,0,0c0,0,0.1,0.1,0.1,0.2c0,0,0,0,0.1,0.1C58.4,256.9,58.8,257.1,58.9,257.5C58.9,257.5,59,257.5,58.9,257.5
		C59,257.5,59,257.5,58.9,257.5z M31.9,261.1c0,0.3-0.1,0.8-0.1,0.8C31.8,261.7,31.9,261.3,31.9,261.1z M31.3,261
		c-0.1-0.1,0.1-0.5,0-0.6c-0.1-0.1-0.5,0.1-0.6,0c0,0,0,0,0,0c0,0,0,0,0,0.1c0.1,0.1,0.3-0.1,0.4,0c0,0-0.1,0-0.1,0.1c0,0,0,0,0,0
		c0,0.1,0.1,0.1,0.1,0.2C31.1,260.9,31.2,261,31.3,261C31.2,261,31.2,261,31.3,261C31.2,261.1,31.3,261.1,31.3,261
		C31.3,261.1,31.3,261.1,31.3,261z"/>
	<path d="M249.4,276h-26.7c10.2,9.5,14.7,25,14.7,40.6c0,25.2-11.8,50-39.9,50c-28.1,0-39.9-24.8-39.9-50c0-15.6,4.5-31.1,14.7-40.6
		h-26.7c-7.1,11.4-10.9,25.5-10.9,40.6c0,37.5,23.5,68.8,62.9,68.8c39.3,0,62.9-31.2,62.9-68.8C260.3,301.5,256.5,287.4,249.4,276z"
		/>
	<path d="M306,255.8c0,0.8-0.2,1.9,1.1,1.3c0.1-0.1,0.5,0.1,0.6,0c0.2-0.2,0-0.9,0.1-1.1c0-0.4,0.2-0.8,0.2-1.1v-0.1
		C307.3,255.1,306.7,255.4,306,255.8z M304.5,256.9c0,0,0.1,0.1,0.1,0.1h0c0.1,0,0.2-0.2,0.2-0.2c0,0,0.1-0.2,0.1-0.3
		C304.8,256.6,304.7,256.8,304.5,256.9z M302.4,258c0.5,0.1,0.2,0.2,0.5,0.2c0.1-0.6,0.7-0.8,1.1-1.2
		C303.4,257.4,302.9,257.7,302.4,258z M389.1,276h-26.8c0,0,0.1,0.1,0.1,0.1c10.2,9.5,14.7,24.9,14.7,40.6c0,25.2-11.8,50-39.9,50
		c-28.1,0-39.9-24.8-39.9-50c0-15.6,4.5-30.9,14.7-40.4c0.1-0.1,0.1-0.1,0.2-0.2h-26.9c0,0,0,0,0,0c-7.1,11.4-10.9,25.5-10.9,40.6
		c0,37.5,23.5,68.8,62.9,68.8c39.3,0,62.9-31.3,62.9-68.8C400,301.5,396.2,287.4,389.1,276z"/>
	<path d="M525.6,271.2c0.2,0.1,0.4,0.8,0.4,0.6v4.2h-21v72h-0.7l-44.4-71.8l-0.1-0.2H420v106h22v-96h0.5l59.8,96H527V271.7
		C526.4,271.5,525.7,271.3,525.6,271.2z"/>
</g>
<path fill="#F2F2F2" d="M70.2,266.7C70.2,266.7,70.2,266.7,70.2,266.7c-0.1-0.1-0.2,0-0.4,0C70,266.7,70.1,266.8,70.2,266.7
	c0,0.1,0,0.1,0,0.1C70.3,266.8,70.2,266.8,70.2,266.7z M154.2,265h-1.1c-0.5-0.1-0.1,0.2-0.1,0.6v0.7
	C153.4,265.8,153.8,265.4,154.2,265z M289.9,269.9c0-0.1-0.1-0.1-0.1-0.2c-0.2,0.2-0.8,0.5-0.8,0.7v0.1l0,0.1l0.3,2.4
	c0.2,0.3,0.7-0.9,0.7-2.9v0C290,270,290,270,289.9,269.9z M304,257C304,257,304,257.1,304,257C304,257.1,304,257.1,304,257
	C304,257,304,257,304,257z M304.3,256.8C304.3,256.8,304.3,256.8,304.3,256.8C304.3,256.8,304.2,256.8,304.3,256.8
	c-0.1,0-0.1,0-0.1,0.1c0,0.1-0.1,0.1-0.1,0.2c0,0,0.1-0.1,0.1-0.1c0,0,0.1,0,0.1,0h0c0.1,0,0.1,0,0.2-0.1
	C304.4,256.9,304.4,256.8,304.3,256.8z M305.4,254.8c-0.5-0.1-0.5,0.2-0.5,0.6c-0.1,0.2,0.1,0.6,0.1,0.9c0,0,0,0,0,0v0.1
	c0,0,0,0,0,0c0.3-0.2,0.7-0.5,1-0.7v0c0,0,0,0,0,0C306,255.2,305.9,254.8,305.4,254.8z M432.8,250c0.3,0-0.6,0.3-0.7,0.5
	c-0.1,0.2-0.1,0.3-0.1,0.5v0h4v-1H432.8z"/>
<path d="M302.4,258C302.4,258.1,302.4,258.1,302.4,258c-0.5,0.4-1,0.7-1.5,1c-0.3,0.2-0.7,0.5-1,0.7c-0.1,0.1-0.2,0.1-0.2,0.2
	c-0.4,0.3-0.7,0.6-1.1,0.8c-0.4,0.3-0.8,0.7-1.2,1c-0.3,0.3-0.6,0.5-1,0.8c-0.1,0.1-0.3,0.2-0.4,0.3c-0.3,0.2-0.5,0.5-0.8,0.7
	c-0.4,0.4-0.8,0.8-1.2,1.2c-0.4,0.4-0.8,0.8-1.2,1.2c-0.2,0.2-0.5,0.5-0.7,0.7c-0.3,0.3-0.6,0.6-0.8,0.9c-0.1,0.1-0.2,0.2-0.3,0.3
	c-0.4,0.4-0.8,0.9-1.1,1.4c0,0.1-0.1,0.1-0.2,0.2c0.3-6.8-0.1-21.4,0.1-20.5c0.6,0,1.2,0.5,1.2,0.6v1.1c0,0.3,0,0.7,0.5,0.6
	c0-0.3,0.5-0.7,0.5-0.6v-11.8c0-1.1-1.3-0.7-0.9-2.2c0.3-0.1,1,0.1,1.3,0c0,0,0-0.5,0-0.6c0.6-0.8,3.4,0.6,4,0
	c0,0.6,0.6,0.7,0.6,1.1v18c0,0,0.6,0.1,0.5,0.6c0,0.3,0,0.7,0.5,0.6c0,1,0.4,1.5,1.1,1.7c0.2-0.7,0.6-1.2,1.6-1.1
	c1.1-0.3,1.4,0.4,1.4,0.8v0C302.1,258,302.3,258,302.4,258C302.4,258,302.4,258,302.4,258z"/>
<path d="M242.8,258h-2.3c-0.2,0-0.7-1-1.7-1c0.1-1-0.9-1.1-0.8-2.2c-0.6-1.5-2-1.8-3-3.3v-27.6c1-0.3,0.1-0.8,0.2-1.1
	c0-0.1,0.6,0.1,0.7,0c0.1-0.1,0-0.5,0.1-0.6c0.1-0.1,0.5,0.1,0.6,0c0.1-0.1-0.1-0.5,0-0.6c0.1-0.1,0.5,0.1,0.6,0
	c0.1-0.1-0.1-0.5,0-0.6c0.1-0.1,0.5,0.1,0.6,0c0.2-0.2-0.2-0.9,0-1.1c0.2-0.2,0.8,0,0.6-0.6c0.3-2-0.6-2.7-1.1-3.9
	c0.3-0.6-0.5-0.4-0.6-0.6c-0.1-0.1,0.1-0.3,0-0.4c-0.3-0.3-1.1-0.4-1.1-0.4h-1.1c-0.1-2,0.1-3.4,0-5.2c0-0.9,0.3-2.2-0.5-2.3
	c0.3-0.8,1.2-1.5,1.2-2.3V203c-1,0.1-1-0.2-1-0.6v-7.9c-2,0.4-1,4.1-1,6.2v1.1c-1,0-0.6,0.7-0.8,1.1c-0.1,0.4,0.1,0.6-0.5,0.6
	c0.3,0.8,0.2,1.4,1.2,2.3v7.3c-1,0.2-1.1,1-1.9,1.1c-0.7,0.2-1,1-1.8,1.1c0.4,1.7-1,1.7-0.6,3.4c0.1,0.2-0.2,1,0,1.1
	c0,0,0.5-0.1,0.5,0c0.1,0.3-0.2,0.9,0,1.1c0.1,0.1,0.5-0.1,0.6,0c0.1,0.1-0.3,0.5-0.2,0.6c0.2,0.2,1.4,0,0.4,0.6v29.3
	c0,1-0.3,1.5-1,1.7c0,1,0,1.5-1,1.7v0.6c5.3,3,10.1,6.8,14.2,11.2l0.8-7.8C243,258.3,243.1,258,242.8,258z M232.6,249.8v-1.7
	c0.7,0.2,1.2,0.7,1.1,1.7H232.6z"/>
<path d="M527,271.7v4.3h-22v-13c0.7,0,1.5,0,2.2-0.1c0,0,0-0.7,0-0.7c0.3-0.3,1.3,0.2,1.7,0c0.1,0.3-0.1,0.8,0,1.1
	c0,0.1,0.5-0.1,0.5,0c0.1,0.1-0.1,0.5,0,0.6c0.3,0.1,0.8-0.1,1.1,0c0.3,0,0.5,0.1,0.5,0.6v4c0,0.6,0.5,0.7,0.6,1.1
	c2.9,0.2,1.3-4,1.8-6.2c1.6-0.4,1.5-2.7,4-2.2c0.7-0.2,0.3,0.8,0.5,1.1c0.2,0.2,0.9-0.1,1.1,0c0.1,0.1-0.1,0.9,0.5,0.6
	c0.3,0,0.5,0.1,0.5,0.6v5.6c2-0.2,2.2-0.9,4-0.6c0.1,0.3,0,0.8,0.1,1.1c0,0.1,0.5,0,0.6,0c0.2,0.1-0.2,0.9,0,1.1
	c0.1,0.1,0.5-0.1,0.5,0c0.1,0.1-0.2,0.5-0.1,0.6c0.1,0.1,0.3-0.1,0.5,0C525.7,271.3,526.4,271.5,527,271.7z"/>
<path d="M459.7,276H420v-25h4v9.5c2,0.1,2.5,0.5,2.6,2.5h1.4v-8.2c0,0,0.5-0.1,0.4-0.6c0-0.3-0.1-0.7,0.4-0.6c0.1-0.3-0.1-0.8,0-1.1
	c0-0.1,0.5,0,0.6,0c0.1-0.1-0.1-0.5,0-0.6c0.2-0.2,1.4,0.1,1.7,0c0.1,0-0.1-0.5,0-0.6c0.2-0.2,0.9,0.2,1.1,0c0.1-0.1,0-0.3,0-0.5
	c0,0-0.1,0-0.1,0h4v8.4c1,0,0.3,1.5,1.8,1.1c0-0.3,0.2-0.7,0.2-0.6V257h2.7c0.3-1-0.7-3.1,0.5-3c0.2,0,0.4-0.2,0.6-0.2
	c0.3,0,0.7,0.1,0.5,0.6c0,0.6,0.4,0.7,0.5,1.1c0.7,0.2,1.5-0.2,2.2,0c0.6,0.2,1,0.6,1,1.1v2.8c0,0.6,0.5,0.4,0.7,0.6
	c0.1,0.1,0.1,0.5,0.2,0.6c0.1,0.1,0.5-0.1,0.6,0c0.9,0.7-0.7,3.8,0,4.5c0,0.6,0.4,0.7,0.5,1.1c0,0.3,0.1,0.7,0.5,0.6
	c0-0.4,0.5-0.7,0.5-0.6v-1.7c1-0.1,1.1-0.4,1.8-1.4h0.9l0.1,0.1L459.7,276z"/>
<path d="M389.1,276h-26.8c-5.8-5.4-13.5-8.8-23.2-9.2V256c0,0,0.3,0,0.7-1h1.1c0,0,0.1-0.2,0.1-0.2V248c4.2,0.2,8.2,0.7,12,1.7v0.1
	c0,0.8,0.2,1.5,0.2,2.3c0,1.4-0.4,6.2,0.1,6.8c0.2,0.2,0.9-0.1,1.1,0c0.7-0.1,0.6-0.9,0.6-1.7v-6.9c2.8,0.8,5.5,1.7,8,2.9v4.6
	c0,0.6,0.3,0.3,0.4,1.3h2.6v-4.5c3.2,1.6,6.2,3.6,9,5.7v3.7c0,0,0.4,0.1,0.8,0.1h3.5C383.1,267.5,386.3,271.6,389.1,276z"/>
<path d="M373,207c0.1,0-0.2,0.5-0.6,0.5c-0.6,0-1.1,0-1.7,0c0.1,0.5-0.2,0.7-0.6,0.8c-1-0.1-1.2,0.8-2.2,0.8h-1.1
	c0.1,0,0.2,0.1-0.8,0.2v45.3c3.2,1.6,6.2,3.6,9,5.7V207H373z M371.9,214.3c-1.4-0.2-1.2,1-2.8,0.5c-0.1-0.5-0.6-0.6-0.6-1.1
	c0.1-0.5-0.5-0.6-0.5-0.6V212c0,0.1,0.5-0.2,0.5-0.5c0.5,0.1,0.5-0.5,0.6-0.5h3.4C372.9,213,371.5,212.6,371.9,214.3z"/>
<path d="M363,222.1v30.9c-2.5-1.1-5.2-2.1-8-2.9v-28.1c0,0,0.7-0.1,0.5-0.6c0.6-0.8,0.5-2.1,1.7-2.3c0.6-1.1,1-2.4,2.3-2.8
	c0,0.3,0.1,0.7,0.6,0.6c-0.4,1.5,1.1,1.1,1.1,2.2c0,1.1,1.6,0.7,1.2,2.3C362.7,221.6,363,221.7,363,222.1z"/>
<path d="M336.9,266.6c0,0.1,0,0.3,0,0.4h0c-10.4,0-18.6,3.3-24.8,9h-26.9c0.3-0.5,0.6-1,0.9-1.4c0.3-0.5,0.6-1,1-1.4
	c0.3-0.5,0.7-0.9,1-1.4c0,0,0,0,0-0.1c0.3-0.4,0.6-0.7,0.9-1.1c0,0,0,0,0-0.1c0,0,0,0,0.1,0c0.1,0,0.1,0,0.1-0.1
	c0.1-0.1,0.3-0.2,0.4-0.3c0.1-0.1,0.1-0.1,0.2-0.2c0.1-0.1,0.1-0.1,0.1-0.2c0,0,0,0,0,0c0-0.1,0-0.1,0-0.2c0.4-0.5,0.7-0.9,1.1-1.4
	c0.1-0.1,0.2-0.2,0.3-0.3c0.3-0.3,0.5-0.6,0.8-0.9c0.2-0.2,0.5-0.5,0.7-0.7c0.4-0.4,0.8-0.8,1.2-1.2c0.4-0.4,0.8-0.8,1.2-1.2
	c0.2-0.2,0.5-0.5,0.8-0.7c0.1-0.1,0.3-0.2,0.4-0.3c0.3-0.3,0.6-0.6,1-0.8c0.4-0.3,0.8-0.7,1.2-1c0.4-0.3,0.7-0.6,1.1-0.8
	c0.1-0.1,0.2-0.1,0.2-0.2c0.3-0.3,0.7-0.5,1-0.7c0.5-0.3,1-0.7,1.4-1c0,0,0,0,0.1,0c0.5,0.1,0.2,0.2,0.5,0.2
	c0.1-0.6,0.7-0.8,1.1-1.2c0,0,0.1,0,0.1-0.1c0,0,0.1-0.1,0.1-0.1c0,0,0.1,0,0.1,0h0c0.1,0,0.1,0,0.2-0.1c0,0,0.1,0.1,0.1,0.1h0
	c0.1,0,0.2-0.2,0.2-0.2c0,0,0.1-0.2,0.1-0.3c0.3-0.2,0.7-0.5,1-0.7c0,0.8-0.2,1.9,1.1,1.3c0.1-0.1,0.5,0.1,0.6,0
	c0.2-0.2,0-0.9,0.1-1.1c0-0.4,0.2-0.8,0.2-1.1v-0.1c8.3-4.3,18-6.7,29-6.7h0c0.3,4.6-0.2,11.6,0,15.9
	C337,264.7,336.9,265.7,336.9,266.6z"/>
<path d="M353,249.7c-3.8-0.9-7.8-1.4-12-1.7v-18.6c1-0.1,1.4-0.5,2.1-1.5h9.6c0,1,0.3,0.8,0.4,1.3C353.2,235.7,353,243.4,353,249.7z
	"/>
<path d="M337,248L337,248c-10.9,0-20.6,2.4-29,6.7v-0.1c0-8.2-0.9-16.7-0.2-24.6c0-0.6,0.3-0.3,0.4-0.6c0.6-1.3-0.4-2.8,0-3.9
	c1.2-0.2,1.1-1.5,2.2-1.7c1.1-0.1,1.2,0.6,2.3,0.6c-0.2-0.6,0.4-0.4,0.6-0.6c0.1-0.1-0.1-0.5,0-0.6c0.1-0.2,0.9,0.1,1.1,0
	c0.6-0.3,1.5-0.8,2.3-1.1c0.3-0.1,0.8,0.1,1.1,0c0.1,0,0-0.5,0-0.6c0.1-0.2,0.9,0.1,1.1,0c0.1,0,0-0.5,0-0.6c0.1-0.2,0.9,0.1,1.1,0
	c0.4-0.2,0.7-0.5,1.1-0.6c0.3-0.1,0.7,0.5,0.6,0.5h1.7c1,0,1.6,0.5,1.6,1.1v13.5c1-0.1,1.3,0.6,2.3,0.6c0.6,0,0.7-0.5,1.2-0.6
	c1.6,0.5,1.5-0.8,2.8-0.6c0.1-0.7,0.7-0.6,1.7-0.6v7.9c1,0.6,2.2,1,2.6,2.3c0,0.6,0.4,0.7,0.4,1.1v1.1c1,0,0.7,0.1,0.8,0.6
	c0,0.1,0.2,0.2,0.2,0.3C337,247.9,337,248,337,248z"/>
<path d="M243.3,267.8c-0.3,0.4-0.8,0.7-1.3,0.7l0.2-1.9c-4.1-4.4-8.9-8.2-14.2-11.2v2.8c0,2,2,1.9,2.3,3.4c-0.5,0.4,0.7,2.8,0,3.4
	c0,0-0.5,0-0.5,0c-0.2,0.5,0.1,1.2,0,1.7c-0.5-0.1-0.5,0.2-0.6,0.6c-0.1,0.5,0.2,1.2,0,1.7c0,0-0.6-0.1-0.6,0
	c-0.3,0.3,0.4,1.3-0.6,1.1v1.9h-7v-2.5c0-0.5-0.3-1-1-1.1c-2.4-0.5-2.3,1.5-2.2,3.5c-0.1,0-0.3,0-0.5,0.1c1.9,1.2,3.6,2.5,5.3,4
	h26.7C247.6,273.1,245.5,270.3,243.3,267.8z M233.2,270.1c-0.5,0.1-0.5-0.2-0.6-0.6c0-0.6,0-1.1,0-1.7c0.5-0.1,0.5,0.2,0.6,0.6
	c0.1,0.4,0.6,0.6,0.6,1.1C233.3,269.4,233.2,269.7,233.2,270.1z M234,265.6c-1-0.1-0.7,0.2-0.7,0.6c-0.5-0.2-1.1-0.5-1.2-1.1
	c0.5,0.1,0.5-0.4,0.5-0.7c0.1-0.4-0.1-0.3,0-1.3h1.4V265.6z"/>
<path d="M209,267.3v0.9c-3.5-1-7.3-1.6-11.6-1.6c-10.7,0-19,3.6-25.2,9.4h-26.7c1.1-1.7,2.2-3.4,3.5-5h1.9c0-1,1.8-0.9,1.4-2.4
	c0.6-0.1,0.8-1.1,0.8-1.8v-0.5c0.4-0.4,0.8-0.8,1.2-1.2h0.6c0,0.3,0.2,0.7,0.2,0.6v1.4h1.5c0.1,0,0-0.6,0.1-0.7
	c0.1-0.2,0.9,0.1,0.6,0.4c1,0,0.8,0.4,1.8,1.1v1.7c0,0.6,0.2,0.5,0.3,1.5h1.7c0.3,0,0.7-0.3,0.6-0.7c-0.2-0.6,0.4-0.6,0.6-0.8
	c0.1-0.1-0.1-0.5,0-0.6c0.1-0.1,0.5,0.1,0.6,0c0.1-0.1-0.1-0.5,0-0.6c0.1-0.1,0.5,0.1,0.6,0c0.1-0.1-0.1-0.5,0-0.6
	c0.2-0.2,0.9,0.1,1.1,0c0.2,1.2,1.5,1.1,1.7,2.2c0,0.6,0.5,1,0.6,1h2.2c0,0,0.1-0.4,0.1-0.4v-4.5c1,0,0.6,0,0.8,0
	c0.3,0,0.9-0.1,0.8-0.6c0.5,0.3,1.9-0.4,2.2,0c0,0,0,0.6,0,0.6c0.2,0,0.4,0,0.6,0c0.5,0,0.4-0.5,0.6-0.6c0.5-0.1,1.2,0,1.7,0
	c0.3,0,0.7,0.1,0.6,0.6c0.1,0.1-0.1,0.4,0,0.6c0.1,0.2,0.9-0.1,1.1,0c0.8-0.3,1.4-0.8,2.3-1.1c0.3,0,0.7,0.1,0.6,0.6
	c0.6-0.3,1.7,0.3,2.3,0c0.1-0.1-0.1-0.5,0-0.6c0.1-0.1,0.5,0.1,0.6,0c0.1-0.1-0.1-0.5,0-0.6c0.6-0.7,2.9,0.6,3.4,0
	c0.2-0.7,0.7-1.1,1.7-1.1c0.2-0.7,0.7-1,1.7-1h4c0.2-2-0.2-4.3,0-6.3c0.1-0.6,0.5-0.7,0.6-1.2c0.1-0.5-0.1-1,0-1.6
	c0.6-0.1,0.9-0.9,1.1-0.9h1.1c0-1,0-0.9,0.5-0.8c1,0.5,1.7,1.1,2.2,2.1c-0.2,0.8,0.4,1.2,0.5,1.7c0.2,1.3-0.7,3.7,0.3,3.4v5.6
	c1-0.2,1.4,0.5,1.9,0.6c0.7,0.1,1.8-0.2,2.5,0c0,0-0.1,0.5-0.1,0.6c0.7,0.9,3.7-0.7,4.4,0C208.7,266.7,209,266.8,209,267.3z"/>
<path d="M115.6,276H90.2c-4.2-5.6-10.9-9-19.2-9h0c0,0-0.1,0-0.1,0c0-0.1,0.1-0.1,0.1-0.2c0.3-0.6,0.8-1,1.5-1.2
	c0-0.4,0.6-0.7,0.6-0.6v-9c0,0,0.7-0.2,0.6-0.7c0.1-0.6,0.6-0.3,1.1-1.3h4.5c0.2,1,1.8,1.4,1.8,2.5v7.9c0,0,0.6,0.1,0.5,0.6h1.7
	c-0.2,0.6,0.4,0.4,0.6,0.6s-0.1,0.9,0,1.1c0.2,0.2,1.2-0.1,1.2,0v-1.1c0-0.4,0-0.7,0.5-0.6c0.6,0,0.6,0.5,1.1,0.6
	c0.1,0.1-0.1,0.4,0,0.6c0.1,0.1,0.8-0.2,0.6-0.6c0.2,0,0.4,0,0.6,0c0.5,0,0.4,0.5,0.6,0.6c0.7,0.2,1.5-0.1,2.2,0
	c0,0.6,0.5,0.7,0.6,1.2c0.3,0,0.7-0.3,0.6,0.7h1.1c0,0,0-0.5,0-0.7c0-0.3,0.1-0.8,0.6-0.7c0.6,0,0.7-0.5,1.1-0.6
	c0,0.3,0.1,0.6,0.6,0.5c0.3,0,0.7,0.4,0.6,0.4h2.8c0.5,1,0.9,1.9,2.3,1.8c0.8-0.3,1.3-0.7,2.3-1v-3.4c1-0.2,1-0.7,1-1.7v-3.3
	c0,0,0,0,0,0C109.3,263.8,113.3,269.3,115.6,276z"/>
<path d="M69.6,266.7c-1,0-2-0.1-3.1-0.1c-1,0-2.1,0-3.1,0.1c-0.1,0-0.3,0-0.4,0v-13c1,0,2.1,0,3,0c1.2,0,2.9-0.5,3,0.6
	c0.1,3.1-0.1,8.9,0,11.3c0,0.6,0.3,0.2,0.6,0.6C69.7,266.2,69.5,266.6,69.6,266.7z"/>
<path d="M59.1,259.1c0,0.1,0,0.3,0,0.4c0,0,0,0.1,0,0.1v0c0,0.5,0,1.1,0,1.6c0,0.6-0.1,1.1-0.1,1.7c0,0,0,0.1,0,0.1
	c0,0.6-0.1,1.1-0.1,1.6c0,0.7-0.1,1.3,0,1.9c0,0.2,0,0.3,0,0.5c-3.9,0.8-7.7,2.1-10.6,4.4c-0.2,0.1-0.4,0.3-0.6,0.5
	c-0.2,0.1-0.3,0.3-0.5,0.4c-0.1,0.1-0.3,0.2-0.4,0.4c-0.4,0.4-0.7,0.8-1.1,1.2c-0.1,0.1-0.2,0.2-0.2,0.3c-0.2,0.3-0.4,0.6-0.6,0.9
	c-0.2,0.2-0.3,0.5-0.5,0.8H20.8c1.8-6,5.3-11.5,9.9-15.7c0,0,0,0.1,0,0.1c0.1,0.1,0.5-0.1,0.6,0c0.1,0.1-0.1,0.5,0,0.6
	c0,0,0,0,0.1,0c0.1,0,0.4-0.1,0.5,0c0,0,0,0,0,0.1c0,0.2,0,0.6-0.1,0.8c0,0.1,0,0.2,0,0.3c0.1,0.1,0.4,0,0.5,0.1c0,0,0,0,0.1,0.1
	c0,0,0,0.1,0,0.1c0,0.1,0,0.2-0.1,0.4h1.7c0.6,0,0.7-0.6,1.1-0.7c0.2,1.1-1,3.3,0.9,2.8c0.1-1-0.1-2.9,0.9-2.3v-4.5
	c1-0.1,1.2-0.7,1.9-0.9c0.6,0,0.9-0.3,1.4-0.3h2.8c0,0,0.1,0.4,0.6,0.3c0.1-0.6,0.6-1,1.1-1.2c0-0.3,0.1-0.7,0.6-0.6
	c0-0.2,0-0.4,0-0.6c0-0.3,0.1-0.7,0.6-0.6c0.4-1.5,1.8-2,4-1.7c-0.4,1.7,1.5,1.1,1.1,2.8c1.1,0.2,1.1,1.5,2.2,1.7
	c0-0.1,0.1-0.2,0.1-0.3c0.1-0.2,0.2-0.4,0.4-0.5c0.1-0.1,0.2-0.1,0.2-0.2c0.1,0,0.2-0.1,0.3-0.1c0.1,0,0.2,0,0.3-0.1
	c0.9-0.1,2.1,0.1,3,0c0,0,0.1,0,0.1,0c0,0,0.2,0,0.2,0c0.1,0,0.1,0,0.1,0c0,0.3,0.1,0.5,0.2,0.6c0,0,0,0,0,0.1
	c0.2,0.2,0.6,0.4,0.7,0.8c0,0,0,0.1,0.1,0.1c0,0,0,0,0,0s0,0,0,0c0,0.2,0,0.3,0,0.5c0,0.2,0,0.4,0,0.6C59,258.9,59.1,259,59.1,259.1
	z"/>
</svg>
