<?xml version="1.0" encoding="utf-8"?>
<!-- Generator: Adobe Illustrator 18.0.0, SVG Export Plug-In . SVG Version: 6.00 Build 0)  -->
<!DOCTYPE svg PUBLIC "-//W3C//DTD SVG 1.1//EN" "http://www.w3.org/Graphics/SVG/1.1/DTD/svg11.dtd">
<svg version="1.1" id="Calque_1" xmlns="http://www.w3.org/2000/svg" xmlns:xlink="http://www.w3.org/1999/xlink" x="0px" y="0px"
	 viewBox="0 0 558.6 130.4" enable-background="new 0 0 558.6 130.4" xml:space="preserve">
<polygon fill="#A31D23" points="209.5,129.7 243.8,0 63.1,0 28.8,129.7 "/>
<polygon fill="#1A171B" points="32.8,45.8 34.8,31 41.9,31 35.5,45.8 "/>
<polygon fill="#1A171B" points="7.1,77.5 32.7,77.5 32.7,83.8 0.1,83.8 0.1,31 7.1,31 "/>
<path fill="#FFFFFF" d="M72.8,60c-0.2-1.6-0.5-3.8-2.2-5.5c-1.4-1.4-3.6-2.2-5.6-2.2c-2.8,0-4.7,1.3-5.8,2.5
	c-1.6,1.7-1.9,3.5-2.3,5.2H72.8z M84.3,74.5c-1.3,2-2.7,4-4.7,5.8c-3.4,3.1-8.5,5.5-14.7,5.5c-11.6,0-19.7-7.4-19.7-20.2
	c0-9.4,4.6-21.5,20-21.5c2.3,0,9,0.2,14,5.6c5.1,5.5,5.4,13.1,5.5,17.5H56.8c-0.1,4.9,2.7,9.7,8.9,9.7c6.3,0,8.4-4.1,9.9-6.9
	L84.3,74.5z M65.3,31.3h11l-8.9,9.3h-4.7L65.3,31.3z"/>
<path fill="#FFFFFF" d="M124.8,75.2c-1.4,2.2-3,4.7-6.1,7c-3,2.1-6.8,3.5-11.2,3.5c-7.5,0-19.4-4.5-19.4-20.4
	c0-11.4,6.6-20.9,19.6-20.9c4.3,0,11.7,1.2,16.7,9.3l-8.5,4.9c-0.7-1.4-1.4-2.8-3.3-4.1c-1.1-0.8-2.5-1.3-4.3-1.3
	c-6.2,0-8.3,7.1-8.3,11.8c0,5.2,2.5,11.7,8.7,11.7c0.6,0,3.4,0,5.8-2.7c1-1.1,1.3-2,1.7-3.1L124.8,75.2z"/>
<path fill="#FFFFFF" d="M140.1,57.1c-1.4,2.2-1.9,4.9-1.9,7.6c0,6.2,3,11.7,9.4,11.7c6.2,0,9.3-5,9.3-11.1c0-4.3-1-7.7-3.2-9.8
	c-2.4-2.2-5.1-2.3-6.7-2.2C143.6,53.5,141.7,54.7,140.1,57.1 M168.5,64.8c0,9.9-5.7,20.7-20.9,20.7c-11,0-21-6.3-21-20.7
	c0-12,7.6-21.5,22.5-20.6C165,45.1,168.5,57.7,168.5,64.8"/>
<rect x="172.7" y="31.6" fill="#FFFFFF" width="11.5" height="52.8"/>
<path fill="#FFFFFF" d="M216.4,60c-0.2-1.6-0.5-3.8-2.2-5.5c-1.4-1.4-3.6-2.2-5.6-2.2c-2.8,0-4.7,1.3-5.8,2.5
	c-1.6,1.7-1.9,3.5-2.3,5.2H216.4z M227.8,74.5c-1.4,2-2.7,4-4.7,5.8c-3.4,3.1-8.4,5.5-14.7,5.5c-11.6,0-19.7-7.4-19.7-20.2
	c0-9.4,4.6-21.5,20-21.5c2.3,0,9,0.2,14,5.6c5.1,5.5,5.4,13.1,5.5,17.5h-27.9c-0.1,4.9,2.7,9.7,8.9,9.7c6.3,0,8.4-4.1,9.9-6.9
	L227.8,74.5z"/>
<path fill="#1A171B" d="M250.2,66.8c0,7.3,3.4,13.3,11,13.3c6.8,0,11.1-5.1,11.1-13.5c0-9.9-6.1-13.1-10.8-13.2
	C256.8,53.4,250.2,56.1,250.2,66.8 M278.1,31.6v52.9h-6v-4.6c-1.4,1.7-4.7,5.6-12.1,5.6c-10.2,0-16.2-7.6-16.2-18.8
	c0-13.8,9-18.5,16.1-18.5c2.3,0,8.1,0.5,12.2,5.8V31.6H278.1z"/>
<path fill="#1A171B" d="M311,63.5c-0.5-9.3-7.2-10.8-10.1-10.8c-5.1,0-9.3,3.7-10,10.8H311z M317.5,73.6c-0.8,2.4-4,11.9-15.9,11.9
	c-10.5,0-17.3-7.1-17.3-19c0-13.3,9.6-18.4,17-18.4c6.5,0,13.4,3.6,15.5,12.5c0.7,3,0.7,5.7,0.7,7.2h-26.8
	c-0.1,5.9,3,13.2,11.4,13.2c5.3,0,8.3-3.5,9.3-8.2L317.5,73.6z"/>
<path fill="#1A171B" d="M363.3,64.9c0-1.8,0-6.7-2.5-9.6c-0.5-0.7-2.2-2.3-4.5-2.3c-8.1,0-8.1,10.2-8.1,12c0,5.5,1.5,12.1,7.3,12.1
	c1.3,0,2.6-0.4,3.7-1.2C363.3,73,363.3,67.1,363.3,64.9 M374.2,31.6v52.8h-10.5v-3.7c-1.8,1.8-4.8,4.7-10.5,4.7
	c-3.9,0-7.9-1.5-11-4.5c-5.7-5.5-5.7-13.3-5.7-15.8c0-14.7,8.4-20.8,16.2-20.8c5.2,0,8.2,2.4,10.3,4V31.6H374.2z"/>
<path fill="#1A171B" d="M406.1,60c-0.2-1.6-0.5-3.8-2.2-5.5c-1.4-1.4-3.6-2.2-5.6-2.2c-2.8,0-4.7,1.3-5.8,2.5
	c-1.6,1.7-1.9,3.5-2.3,5.2H406.1z M417.6,74.5c-1.3,2-2.7,4-4.7,5.8c-3.4,3.1-8.4,5.5-14.7,5.5c-11.6,0-19.7-7.4-19.7-20.2
	c0-9.4,4.6-21.5,20-21.5c2.3,0,9,0.2,14.1,5.6c5.1,5.5,5.4,13.1,5.5,17.5h-27.9c-0.1,4.9,2.7,9.7,8.9,9.7c6.3,0,8.4-4.1,9.9-6.9
	L417.6,74.5z"/>
<path fill="#1A171B" d="M426.1,71.3c3.1,3.1,7,5.4,11.4,5.4c2.8,0,7-0.9,7-3.8c0-1.3-0.8-1.9-1.5-2.3c-1.7-0.9-4.4-1.1-6.7-1.5
	c-1.7-0.3-3.5-0.7-5.2-1.2c-2.4-0.7-4.8-1.6-6.5-3.4c-1.7-1.7-2.9-4.4-2.9-7.3c0-6.4,5.5-13.1,16.4-13.1c9.2,0,14.7,4,17.4,5.8
	l-7.1,6.6c-3.7-2.8-7.1-3.9-9.8-3.9c-4.5,0-5.5,1.8-5.5,2.9c0,2.2,2.5,2.7,6.2,3.4c7.8,1.4,17,3.5,17,12.8c0,9.2-9.3,13.7-18.5,13.7
	c-10.8,0-16.4-5.2-18.9-7.5L426.1,71.3z"/>
<path fill="#1A171B" d="M461.7,45.3H473v39.1h-11.4V45.3z M461.7,31.6H473v8.9h-11.4V31.6z"/>
<path fill="#1A171B" d="M490.9,63.8c0,3.3,0.2,10.1,7.3,10.1c5.8,0,7.2-4.6,7.2-10.1c0-1.9-0.2-5.8-1.4-7.6c-0.9-1.4-3-3-6.3-2.8
	C492.3,53.5,490.9,58.2,490.9,63.8 M505.5,79.3c-2.2,1.5-5,3.3-10.3,3.3c-3.2,0-6.4-0.8-8.9-2.5c-5.2-3.4-7.2-9.4-7.2-16.1
	c0-7.8,3.7-19.1,16.6-19.1c6,0,8.7,2.6,10.5,4.3v-3.7h10.8v37.5c-0.1,4.3-0.3,9.3-6,12.6c-4,2.4-9.8,3-13.3,3
	c-7.8,0-12.9-2.7-15-4.9c-3.1-3.1-3-7-3-9.1h11.9c0.2,1.7,0.3,4.2,3.4,5.6c0.7,0.4,1.9,0.8,3.7,0.8c6.9,0,6.9-4.1,6.9-7.3V79.3z"/>
<path fill="#1A171B" d="M535.5,48.9c1.1-1.2,1.9-2.1,3.9-3.1c1.8-0.7,4.3-1.4,7.1-1.4c2.3,0,4.9,0.4,6.9,1.6
	c4.1,2.2,5.2,5.7,5.2,11.7v26.7h-11.4v-22c0-3.5-0.1-4.8-0.5-5.8c-0.9-2.1-2.9-3-5.2-3c-6,0-6,4.9-6,9.7v21.1h-11.5v-39h11.6V48.9z"
	/>
<polygon fill="#1A171B" points="244.4,127.9 247.9,111.7 250.1,111.7 245.8,130.4 243.4,130.4 237.3,114.2 233.8,130.4 231.5,130.4 
	235.8,111.7 238.3,111.7 "/>
<path fill="#1A171B" d="M257.8,122.6h5.8l-0.9-9.3L257.8,122.6z M263.8,124.5h-7.1l-3.4,5.9h-2.5l10.8-18.7h2.8l2.4,18.7h-2.4
	L263.8,124.5z"/>
<polygon fill="#1A171B" points="284.4,127.9 287.9,111.7 290.1,111.7 285.8,130.4 283.4,130.4 277.3,114.2 273.8,130.4 271.5,130.4 
	275.8,111.7 278.3,111.7 "/>
<polygon fill="#1A171B" points="308.3,113.7 302.7,113.7 298.8,130.4 296.5,130.4 300.4,113.7 294.7,113.7 295.1,111.7 308.8,111.7 
	"/>
<polygon fill="#1A171B" points="322.6,128.4 322.2,130.4 308.7,130.4 313,111.7 325.2,111.7 324.7,113.7 314.9,113.7 313.5,119.9 
	322.5,119.9 322,121.7 313.1,121.7 311.5,128.4 "/>
<path fill="#1A171B" d="M330,123.9c0,0.5-0.1,1,0.1,1.7c0.6,2.8,3.1,3.4,4.8,3.4c4.1,0,5-2.6,5-3.8c0-0.8-0.3-1.5-0.9-2
	c-0.4-0.4-1-0.6-2-1.1l-2.3-0.9c-2.3-0.9-4.4-2-4.4-4.7c0-2,1.2-3.8,3.6-4.6c1.2-0.4,2.6-0.6,3.5-0.6c0.6,0,2.4,0.1,3.8,0.7
	c2.3,1.1,2.8,3.1,2.9,4.3l-2.3,0.6c-0.2-0.9-0.4-2.2-1.7-3c-0.8-0.5-1.8-0.8-2.9-0.8c-2.7,0-4.5,1.4-4.5,3.2c0,1.5,1.2,2,3.3,2.9
	l2.8,1.1c2,0.8,3.4,2.3,3.4,4.5c0,2.1-1.1,3.8-2.9,4.8c-1.6,0.9-3.2,1-4.6,1c-1.2,0-2.9-0.1-4.6-1c-0.8-0.4-2.9-1.5-2.9-5.4
	L330,123.9z"/>
<path fill="#1A171B" d="M361.4,122.6h5.7l-0.9-9.3L361.4,122.6z M367.3,124.5h-7.1l-3.4,5.9h-2.5l10.8-18.7h2.9l2.4,18.7H368
	L367.3,124.5z"/>
<polygon fill="#1A171B" points="388.3,113.7 382.7,113.7 378.8,130.4 376.5,130.4 380.4,113.7 374.7,113.7 375.2,111.7 388.8,111.7 
	"/>
<polygon fill="#1A171B" points="391.6,128.4 400.4,128.4 399.9,130.4 388.8,130.4 393.1,111.7 395.4,111.7 "/>
<path fill="#1A171B" d="M410.1,122.6h5.7l-0.9-9.3L410.1,122.6z M416.1,124.5H409l-3.4,5.9h-2.5l10.8-18.7h2.9l2.4,18.7h-2.4
	L416.1,124.5z"/>
<polygon fill="#1A171B" points="436.7,127.9 440.3,111.7 442.5,111.7 438.2,130.4 435.8,130.4 429.6,114.2 426.1,130.4 423.8,130.4 
	428.1,111.7 430.6,111.7 "/>
<polygon fill="#1A171B" points="460.7,113.7 455,113.7 451.1,130.4 448.8,130.4 452.8,113.7 447,113.7 447.5,111.7 461.1,111.7 "/>
<polygon fill="#1A171B" points="467.7,111.7 463.4,130.4 461.1,130.4 465.4,111.7 "/>
<path fill="#1A171B" d="M481,113.2c-1.6,0-3.2,0.6-4.4,1.7c-2.2,1.9-3,5.2-3,7.5c0,2.1,0.7,3.8,1.5,4.7c1,1.1,2.5,1.8,4.1,1.8
	c1.8,0,4-0.9,5.4-2.7c1.5-1.9,2-4.4,2-6.3C486.7,115.5,484.3,113.2,481,113.2 M488.5,129.6l-1.6,1.6l-2.5-2c-1.6,1-3.4,1.5-5.2,1.5
	c-4.6,0-8.1-3.3-8.1-8.5c0-5.4,3.6-10.8,9.9-10.8c4.7,0,8.1,3.1,8.1,8.5c0,2.7-0.8,5.7-3,7.8L488.5,129.6z"/>
<path fill="#1A171B" d="M511.2,111.7l-2.6,11.2c-0.8,3.8-2.2,7.8-8.2,7.8c-2.5,0-6.3-1-6.3-5.4c0-1.4,0.4-3.4,0.6-4.2l2.2-9.4h2.3
	l-2.2,9.6c-0.2,0.7-0.5,2.5-0.5,3.4c0,0.7,0.1,1.4,0.3,2c0.5,1,1.6,1.9,3.7,1.9c4.2,0,5.1-3.1,6-6.8l2.3-10.2H511.2z"/>
<polygon fill="#1A171B" points="528.1,128.4 527.6,130.4 514.2,130.4 518.5,111.7 530.6,111.7 530.2,113.7 520.4,113.7 519,119.9 
	527.9,119.9 527.5,121.7 518.6,121.7 517,128.4 "/>
</svg>
